<svg width="289" height="71" viewBox="0 0 289 71" fill="none" xmlns="http://www.w3.org/2000/svg">
<path d="M21 38C21 38.5304 20.7893 39.0391 20.4142 39.4142C20.0391 39.7893 19.5304 40 19 40H7L3 44V28C3 27.4696 3.21071 26.9609 3.58579 26.5858C3.96086 26.2107 4.46957 26 5 26H19C19.5304 26 20.0391 26.2107 20.4142 26.5858C20.7893 26.9609 21 27.4696 21 28V38Z" stroke="white" stroke-width="2" stroke-linecap="round" stroke-linejoin="round"/>
<rect x="36" width="253" height="71" rx="6" fill="#E087FF" fill-opacity="0.12"/>
<path d="M53.686 20.27C53.686 20.8487 53.5367 21.3573 53.238 21.796C52.9487 22.2347 52.524 22.5753 51.964 22.818C51.4133 23.0607 50.7553 23.182 49.99 23.182C48.4967 23.182 47.3113 22.7527 46.434 21.894L47.33 20.9C48.058 21.572 48.9447 21.908 49.99 21.908C50.5687 21.908 51.0447 21.7727 51.418 21.502C51.8007 21.2313 51.992 20.8487 51.992 20.354C51.992 20.0647 51.9313 19.822 51.81 19.626C51.698 19.43 51.502 19.2573 51.222 19.108C50.942 18.9493 50.5407 18.7907 50.018 18.632C48.9447 18.3147 48.156 17.9367 47.652 17.498C47.148 17.0593 46.896 16.4807 46.896 15.762C46.896 15.2487 47.036 14.796 47.316 14.404C47.6053 14.0027 48.002 13.6947 48.506 13.48C49.01 13.256 49.5793 13.144 50.214 13.144C51.5113 13.144 52.5893 13.5313 53.448 14.306L52.594 15.272C51.9313 14.7027 51.1707 14.418 50.312 14.418C49.7893 14.418 49.3647 14.5253 49.038 14.74C48.7207 14.9547 48.562 15.2627 48.562 15.664C48.562 15.916 48.6273 16.1307 48.758 16.308C48.898 16.4853 49.1267 16.6487 49.444 16.798C49.7707 16.938 50.228 17.0967 50.816 17.274C51.7493 17.554 52.4587 17.9133 52.944 18.352C53.4387 18.7907 53.686 19.43 53.686 20.27ZM57.2085 20.774C57.2085 21.2033 57.2925 21.516 57.4605 21.712C57.6379 21.8987 57.9039 21.992 58.2585 21.992C58.5945 21.992 58.9165 21.894 59.2245 21.698C59.5419 21.502 59.7939 21.2547 59.9805 20.956V15.608H61.5485V23H60.1905L60.0925 22.048C59.8312 22.412 59.4905 22.692 59.0705 22.888C58.6505 23.084 58.2165 23.182 57.7685 23.182C57.0592 23.182 56.5272 22.9907 56.1725 22.608C55.8179 22.2253 55.6405 21.6793 55.6405 20.97V15.608H57.2085V20.774ZM69.2711 15.426C69.6537 15.426 70.0271 15.4867 70.3911 15.608L70.1251 18.338H69.0051V16.826C68.4917 16.8353 68.0437 17.0407 67.6611 17.442C67.2877 17.8433 66.9891 18.408 66.7651 19.136V21.88H68.2491V23H64.1051V21.88H65.1971V16.728H64.1051V15.608H66.3871L66.6671 17.316C66.9564 16.6813 67.3064 16.21 67.7171 15.902C68.1371 15.5847 68.6551 15.426 69.2711 15.426ZM73.7316 19.808C73.7783 20.5267 73.9836 21.068 74.3476 21.432C74.7209 21.7867 75.1876 21.964 75.7476 21.964C76.0929 21.964 76.4196 21.9127 76.7276 21.81C77.0449 21.698 77.3669 21.5347 77.6936 21.32L78.3656 22.272C78.0203 22.5613 77.6143 22.7853 77.1476 22.944C76.6809 23.1027 76.1909 23.182 75.6776 23.182C74.5483 23.182 73.6709 22.832 73.0456 22.132C72.4203 21.4227 72.1076 20.48 72.1076 19.304C72.1076 18.5667 72.2429 17.904 72.5136 17.316C72.7843 16.7187 73.1763 16.252 73.6896 15.916C74.2029 15.58 74.8003 15.412 75.4816 15.412C76.4616 15.412 77.2363 15.7433 77.8056 16.406C78.3843 17.0593 78.6736 17.96 78.6736 19.108C78.6736 19.388 78.6596 19.6213 78.6316 19.808H73.7316ZM75.4956 16.574C74.9916 16.574 74.5809 16.756 74.2636 17.12C73.9463 17.484 73.7643 18.0253 73.7176 18.744H77.1476C77.1289 18.044 76.9796 17.5073 76.6996 17.134C76.4196 16.7607 76.0183 16.574 75.4956 16.574ZM83.7781 20.48C84.1421 20.48 84.4455 20.6013 84.6881 20.844C84.9401 21.0867 85.0661 21.3853 85.0661 21.74C85.0661 21.9453 85.0335 22.1507 84.9681 22.356C84.9121 22.5613 84.8095 22.8273 84.6601 23.154L83.5821 25.632H82.3641L83.0361 22.79C82.8775 22.678 82.7468 22.5287 82.6441 22.342C82.5508 22.1553 82.5041 21.9547 82.5041 21.74C82.5041 21.3853 82.6255 21.0867 82.8681 20.844C83.1201 20.6013 83.4235 20.48 83.7781 20.48ZM101.225 15.412C103.017 15.412 103.913 16.7047 103.913 19.29C103.913 20.4567 103.666 21.3993 103.171 22.118C102.677 22.8273 101.972 23.182 101.057 23.182C100.283 23.182 99.6572 22.9113 99.1812 22.37V25.842L97.6132 26.024V15.608H98.9712L99.0692 16.56C99.3492 16.1867 99.6712 15.902 100.035 15.706C100.409 15.51 100.805 15.412 101.225 15.412ZM100.791 16.616C100.465 16.616 100.166 16.714 99.8952 16.91C99.6245 17.106 99.3865 17.3627 99.1812 17.68V21.138C99.5452 21.6887 100.031 21.964 100.637 21.964C101.179 21.964 101.585 21.7493 101.855 21.32C102.126 20.8907 102.261 20.2187 102.261 19.304C102.261 18.3613 102.14 17.68 101.897 17.26C101.655 16.8307 101.286 16.616 100.791 16.616ZM109.256 20.984C109.256 21.6093 109.629 21.922 110.376 21.922C110.749 21.922 111.141 21.838 111.552 21.67L111.944 22.762C111.43 23.042 110.796 23.182 110.04 23.182C109.302 23.182 108.724 22.9767 108.304 22.566C107.893 22.146 107.688 21.572 107.688 20.844V13.788H105.462V12.64H109.256V20.984ZM115.704 19.808C115.751 20.5267 115.956 21.068 116.32 21.432C116.694 21.7867 117.16 21.964 117.72 21.964C118.066 21.964 118.392 21.9127 118.7 21.81C119.018 21.698 119.34 21.5347 119.666 21.32L120.338 22.272C119.993 22.5613 119.587 22.7853 119.12 22.944C118.654 23.1027 118.164 23.182 117.65 23.182C116.521 23.182 115.644 22.832 115.018 22.132C114.393 21.4227 114.08 20.48 114.08 19.304C114.08 18.5667 114.216 17.904 114.486 17.316C114.757 16.7187 115.149 16.252 115.662 15.916C116.176 15.58 116.773 15.412 117.454 15.412C118.434 15.412 119.209 15.7433 119.778 16.406C120.357 17.0593 120.646 17.96 120.646 19.108C120.646 19.388 120.632 19.6213 120.604 19.808H115.704ZM117.468 16.574C116.964 16.574 116.554 16.756 116.236 17.12C115.919 17.484 115.737 18.0253 115.69 18.744H119.12C119.102 18.044 118.952 17.5073 118.672 17.134C118.392 16.7607 117.991 16.574 117.468 16.574ZM128.453 21.194C128.453 21.474 128.495 21.684 128.579 21.824C128.663 21.9547 128.807 22.0527 129.013 22.118L128.649 23.182C127.874 23.0887 127.365 22.748 127.123 22.16C126.852 22.496 126.511 22.7527 126.101 22.93C125.699 23.098 125.256 23.182 124.771 23.182C124.024 23.182 123.431 22.972 122.993 22.552C122.554 22.132 122.335 21.5767 122.335 20.886C122.335 20.1113 122.638 19.514 123.245 19.094C123.861 18.674 124.729 18.464 125.849 18.464H126.899V17.988C126.899 17.5213 126.759 17.1807 126.479 16.966C126.199 16.7513 125.793 16.644 125.261 16.644C124.999 16.644 124.696 16.6767 124.351 16.742C124.005 16.8073 123.655 16.9007 123.301 17.022L122.909 15.916C123.795 15.58 124.659 15.412 125.499 15.412C126.479 15.412 127.216 15.6267 127.711 16.056C128.205 16.4853 128.453 17.0967 128.453 17.89V21.194ZM125.233 22.034C125.559 22.034 125.872 21.95 126.171 21.782C126.479 21.614 126.721 21.3807 126.899 21.082V19.444H126.031C125.321 19.444 124.803 19.5653 124.477 19.808C124.15 20.0413 123.987 20.382 123.987 20.83C123.987 21.222 124.089 21.5207 124.295 21.726C124.509 21.9313 124.822 22.034 125.233 22.034ZM133.879 21.992C134.374 21.992 134.761 21.9033 135.041 21.726C135.331 21.5487 135.475 21.306 135.475 20.998C135.475 20.7833 135.433 20.6107 135.349 20.48C135.265 20.34 135.097 20.214 134.845 20.102C134.593 19.9807 134.215 19.8547 133.711 19.724C132.899 19.5187 132.288 19.2573 131.877 18.94C131.476 18.6133 131.275 18.1467 131.275 17.54C131.275 16.896 131.541 16.3827 132.073 16C132.605 15.608 133.324 15.412 134.229 15.412C135.321 15.412 136.259 15.6967 137.043 16.266L136.371 17.26C135.709 16.8213 135.009 16.602 134.271 16.602C133.338 16.602 132.871 16.8727 132.871 17.414C132.871 17.6007 132.923 17.7547 133.025 17.876C133.137 17.9973 133.324 18.114 133.585 18.226C133.847 18.3287 134.234 18.45 134.747 18.59C135.55 18.814 136.147 19.0893 136.539 19.416C136.941 19.7427 137.141 20.2327 137.141 20.886C137.141 21.642 136.829 22.216 136.203 22.608C135.578 22.9907 134.803 23.182 133.879 23.182C132.657 23.182 131.644 22.8367 130.841 22.146L131.667 21.194C131.975 21.4367 132.316 21.6327 132.689 21.782C133.072 21.922 133.469 21.992 133.879 21.992ZM140.888 19.808C140.935 20.5267 141.14 21.068 141.504 21.432C141.877 21.7867 142.344 21.964 142.904 21.964C143.249 21.964 143.576 21.9127 143.884 21.81C144.201 21.698 144.523 21.5347 144.85 21.32L145.522 22.272C145.177 22.5613 144.771 22.7853 144.304 22.944C143.837 23.1027 143.347 23.182 142.834 23.182C141.705 23.182 140.827 22.832 140.202 22.132C139.577 21.4227 139.264 20.48 139.264 19.304C139.264 18.5667 139.399 17.904 139.67 17.316C139.941 16.7187 140.333 16.252 140.846 15.916C141.359 15.58 141.957 15.412 142.638 15.412C143.618 15.412 144.393 15.7433 144.962 16.406C145.541 17.0593 145.83 17.96 145.83 19.108C145.83 19.388 145.816 19.6213 145.788 19.808H140.888ZM142.652 16.574C142.148 16.574 141.737 16.756 141.42 17.12C141.103 17.484 140.921 18.0253 140.874 18.744H144.304C144.285 18.044 144.136 17.5073 143.856 17.134C143.576 16.7607 143.175 16.574 142.652 16.574ZM159.987 15.412C161.779 15.412 162.675 16.7047 162.675 19.29C162.675 20.4567 162.428 21.3993 161.933 22.118C161.438 22.8273 160.734 23.182 159.819 23.182C159.044 23.182 158.419 22.9113 157.943 22.37V25.842L156.375 26.024V15.608H157.733L157.831 16.56C158.111 16.1867 158.433 15.902 158.797 15.706C159.17 15.51 159.567 15.412 159.987 15.412ZM159.553 16.616C159.226 16.616 158.928 16.714 158.657 16.91C158.386 17.106 158.148 17.3627 157.943 17.68V21.138C158.307 21.6887 158.792 21.964 159.399 21.964C159.94 21.964 160.346 21.7493 160.617 21.32C160.888 20.8907 161.023 20.2187 161.023 19.304C161.023 18.3613 160.902 17.68 160.659 17.26C160.416 16.8307 160.048 16.616 159.553 16.616ZM170.005 15.426C170.388 15.426 170.761 15.4867 171.125 15.608L170.859 18.338H169.739V16.826C169.226 16.8353 168.778 17.0407 168.395 17.442C168.022 17.8433 167.723 18.408 167.499 19.136V21.88H168.983V23H164.839V21.88H165.931V16.728H164.839V15.608H167.121L167.401 17.316C167.691 16.6813 168.041 16.21 168.451 15.902C168.871 15.5847 169.389 15.426 170.005 15.426ZM176.132 15.412C177.196 15.412 178.017 15.762 178.596 16.462C179.175 17.1527 179.464 18.0953 179.464 19.29C179.464 20.4847 179.17 21.432 178.582 22.132C177.994 22.832 177.173 23.182 176.118 23.182C175.054 23.182 174.228 22.8413 173.64 22.16C173.061 21.4693 172.772 20.5173 172.772 19.304C172.772 18.128 173.066 17.1853 173.654 16.476C174.251 15.7667 175.077 15.412 176.132 15.412ZM176.132 16.63C175.563 16.63 175.133 16.8493 174.844 17.288C174.564 17.7267 174.424 18.3987 174.424 19.304C174.424 20.2187 174.564 20.8953 174.844 21.334C175.124 21.7633 175.549 21.978 176.118 21.978C176.687 21.978 177.112 21.7587 177.392 21.32C177.672 20.8813 177.812 20.2047 177.812 19.29C177.812 18.3847 177.672 17.7173 177.392 17.288C177.112 16.8493 176.692 16.63 176.132 16.63ZM185.423 23H183.603L180.985 15.608H182.679L184.541 21.698L186.431 15.608H188.041L185.423 23ZM192.907 11.982C193.206 11.982 193.448 12.08 193.635 12.276C193.831 12.4627 193.929 12.696 193.929 12.976C193.929 13.256 193.831 13.4893 193.635 13.676C193.448 13.8627 193.206 13.956 192.907 13.956C192.599 13.956 192.352 13.8627 192.165 13.676C191.978 13.4893 191.885 13.256 191.885 12.976C191.885 12.6867 191.978 12.4487 192.165 12.262C192.361 12.0753 192.608 11.982 192.907 11.982ZM193.985 21.852H196.001V23H190.219V21.852H192.417V16.756H190.289V15.608H193.985V21.852ZM204.256 12.64V23H202.87L202.758 22.09C202.515 22.4447 202.216 22.7153 201.862 22.902C201.507 23.0887 201.115 23.182 200.686 23.182C199.762 23.182 199.066 22.8367 198.6 22.146C198.133 21.4553 197.9 20.508 197.9 19.304C197.9 18.548 198.016 17.876 198.25 17.288C198.492 16.7 198.833 16.2427 199.272 15.916C199.71 15.58 200.228 15.412 200.826 15.412C201.582 15.412 202.202 15.6827 202.688 16.224V12.458L204.256 12.64ZM201.232 16.616C200.69 16.616 200.275 16.84 199.986 17.288C199.706 17.7267 199.566 18.3987 199.566 19.304C199.566 21.096 200.079 21.992 201.106 21.992C201.722 21.992 202.249 21.6373 202.688 20.928V17.442C202.305 16.8913 201.82 16.616 201.232 16.616ZM208.044 19.808C208.091 20.5267 208.296 21.068 208.66 21.432C209.033 21.7867 209.5 21.964 210.06 21.964C210.405 21.964 210.732 21.9127 211.04 21.81C211.357 21.698 211.679 21.5347 212.006 21.32L212.678 22.272C212.333 22.5613 211.927 22.7853 211.46 22.944C210.993 23.1027 210.503 23.182 209.99 23.182C208.861 23.182 207.983 22.832 207.358 22.132C206.733 21.4227 206.42 20.48 206.42 19.304C206.42 18.5667 206.555 17.904 206.826 17.316C207.097 16.7187 207.489 16.252 208.002 15.916C208.515 15.58 209.113 15.412 209.794 15.412C210.774 15.412 211.549 15.7433 212.118 16.406C212.697 17.0593 212.986 17.96 212.986 19.108C212.986 19.388 212.972 19.6213 212.944 19.808H208.044ZM209.808 16.574C209.304 16.574 208.893 16.756 208.576 17.12C208.259 17.484 208.077 18.0253 208.03 18.744H211.46C211.441 18.044 211.292 17.5073 211.012 17.134C210.732 16.7607 210.331 16.574 209.808 16.574ZM229.705 22.608C229.425 22.7853 229.098 22.9253 228.725 23.028C228.352 23.1307 227.96 23.182 227.549 23.182C226.709 23.182 226.06 22.9673 225.603 22.538C225.146 22.0993 224.917 21.5067 224.917 20.76V16.756H223.279V15.608H224.917V13.956L226.485 13.774V15.608H228.991L228.809 16.756H226.485V20.746C226.485 21.1473 226.588 21.446 226.793 21.642C226.998 21.8287 227.325 21.922 227.773 21.922C228.268 21.922 228.725 21.8053 229.145 21.572L229.705 22.608ZM233.494 16.518C233.792 16.154 234.138 15.8787 234.53 15.692C234.931 15.5053 235.351 15.412 235.79 15.412C236.471 15.412 236.984 15.6033 237.33 15.986C237.675 16.3593 237.848 16.9007 237.848 17.61V23H236.28V17.848C236.28 17.4093 236.196 17.0967 236.028 16.91C235.86 16.714 235.589 16.616 235.216 16.616C234.889 16.616 234.572 16.7233 234.264 16.938C233.965 17.1433 233.708 17.4 233.494 17.708V23H231.926V12.654L233.494 12.486V16.518ZM241.622 19.808C241.669 20.5267 241.874 21.068 242.238 21.432C242.612 21.7867 243.078 21.964 243.638 21.964C243.984 21.964 244.31 21.9127 244.618 21.81C244.936 21.698 245.258 21.5347 245.584 21.32L246.256 22.272C245.911 22.5613 245.505 22.7853 245.038 22.944C244.572 23.1027 244.082 23.182 243.568 23.182C242.439 23.182 241.562 22.832 240.936 22.132C240.311 21.4227 239.998 20.48 239.998 19.304C239.998 18.5667 240.134 17.904 240.404 17.316C240.675 16.7187 241.067 16.252 241.58 15.916C242.094 15.58 242.691 15.412 243.372 15.412C244.352 15.412 245.127 15.7433 245.696 16.406C246.275 17.0593 246.564 17.96 246.564 19.108C246.564 19.388 246.55 19.6213 246.522 19.808H241.622ZM243.386 16.574C242.882 16.574 242.472 16.756 242.154 17.12C241.837 17.484 241.655 18.0253 241.608 18.744H245.038C245.02 18.044 244.87 17.5073 244.59 17.134C244.31 16.7607 243.909 16.574 243.386 16.574ZM50.816 38.894C51.404 38.894 52.0107 38.684 52.636 38.264L53.35 39.272C53.0233 39.552 52.6313 39.776 52.174 39.944C51.7167 40.1027 51.2453 40.182 50.76 40.182C49.6307 40.182 48.7487 39.8367 48.114 39.146C47.4793 38.446 47.162 37.5127 47.162 36.346C47.162 35.59 47.3067 34.918 47.596 34.33C47.8853 33.7327 48.3007 33.266 48.842 32.93C49.3927 32.5847 50.0413 32.412 50.788 32.412C51.768 32.412 52.622 32.7107 53.35 33.308L52.622 34.288C52.0247 33.8773 51.4227 33.672 50.816 33.672C50.2 33.672 49.7147 33.896 49.36 34.344C49.0053 34.7827 48.828 35.45 48.828 36.346C48.828 37.2233 49.0053 37.8673 49.36 38.278C49.7147 38.6887 50.2 38.894 50.816 38.894ZM58.6085 32.412C59.6725 32.412 60.4939 32.762 61.0725 33.462C61.6512 34.1527 61.9405 35.0953 61.9405 36.29C61.9405 37.4847 61.6465 38.432 61.0585 39.132C60.4705 39.832 59.6492 40.182 58.5945 40.182C57.5305 40.182 56.7045 39.8413 56.1165 39.16C55.5379 38.4693 55.2485 37.5173 55.2485 36.304C55.2485 35.128 55.5425 34.1853 56.1305 33.476C56.7279 32.7667 57.5539 32.412 58.6085 32.412ZM58.6085 33.63C58.0392 33.63 57.6099 33.8493 57.3205 34.288C57.0405 34.7267 56.9005 35.3987 56.9005 36.304C56.9005 37.2187 57.0405 37.8953 57.3205 38.334C57.6005 38.7633 58.0252 38.978 58.5945 38.978C59.1639 38.978 59.5885 38.7587 59.8685 38.32C60.1485 37.8813 60.2885 37.2047 60.2885 36.29C60.2885 35.3847 60.1485 34.7173 59.8685 34.288C59.5885 33.8493 59.1685 33.63 58.6085 33.63ZM64.0351 32.608H65.3931L65.5051 33.574C65.8131 33.2007 66.1724 32.916 66.5831 32.72C67.0031 32.5147 67.4417 32.412 67.8991 32.412C68.5804 32.412 69.0937 32.6033 69.4391 32.986C69.7844 33.3687 69.9571 33.91 69.9571 34.61V40H68.3891V35.394C68.3891 34.9367 68.3611 34.5867 68.3051 34.344C68.2584 34.092 68.1604 33.91 68.0111 33.798C67.8617 33.6767 67.6377 33.616 67.3391 33.616C67.0031 33.616 66.6811 33.7187 66.3731 33.924C66.0744 34.1293 65.8177 34.386 65.6031 34.694V40H64.0351V32.608ZM78.6036 39.608C78.3236 39.7853 77.9969 39.9253 77.6236 40.028C77.2503 40.1307 76.8583 40.182 76.4476 40.182C75.6076 40.182 74.9589 39.9673 74.5016 39.538C74.0443 39.0993 73.8156 38.5067 73.8156 37.76V33.756H72.1776V32.608H73.8156V30.956L75.3836 30.774V32.608H77.8896L77.7076 33.756H75.3836V37.746C75.3836 38.1473 75.4863 38.446 75.6916 38.642C75.8969 38.8287 76.2236 38.922 76.6716 38.922C77.1663 38.922 77.6236 38.8053 78.0436 38.572L78.6036 39.608ZM86.0601 32.426C86.4428 32.426 86.8161 32.4867 87.1801 32.608L86.9141 35.338H85.7941V33.826C85.2808 33.8353 84.8328 34.0407 84.4501 34.442C84.0768 34.8433 83.7781 35.408 83.5541 36.136V38.88H85.0381V40H80.8941V38.88H81.9861V33.728H80.8941V32.608H83.1761L83.4561 34.316C83.7455 33.6813 84.0955 33.21 84.5061 32.902C84.9261 32.5847 85.4441 32.426 86.0601 32.426ZM94.8747 38.194C94.8747 38.474 94.9167 38.684 95.0007 38.824C95.0847 38.9547 95.2293 39.0527 95.4347 39.118L95.0707 40.182C94.296 40.0887 93.7873 39.748 93.5447 39.16C93.274 39.496 92.9333 39.7527 92.5227 39.93C92.1213 40.098 91.678 40.182 91.1927 40.182C90.446 40.182 89.8533 39.972 89.4147 39.552C88.976 39.132 88.7567 38.5767 88.7567 37.886C88.7567 37.1113 89.06 36.514 89.6667 36.094C90.2827 35.674 91.1507 35.464 92.2707 35.464H93.3207V34.988C93.3207 34.5213 93.1807 34.1807 92.9007 33.966C92.6207 33.7513 92.2147 33.644 91.6827 33.644C91.4213 33.644 91.118 33.6767 90.7727 33.742C90.4273 33.8073 90.0773 33.9007 89.7227 34.022L89.3307 32.916C90.2173 32.58 91.0807 32.412 91.9207 32.412C92.9007 32.412 93.638 32.6267 94.1327 33.056C94.6273 33.4853 94.8747 34.0967 94.8747 34.89V38.194ZM91.6547 39.034C91.9813 39.034 92.294 38.95 92.5927 38.782C92.9007 38.614 93.1433 38.3807 93.3207 38.082V36.444H92.4527C91.7433 36.444 91.2253 36.5653 90.8987 36.808C90.572 37.0413 90.4087 37.382 90.4087 37.83C90.4087 38.222 90.5113 38.5207 90.7167 38.726C90.9313 38.9313 91.244 39.034 91.6547 39.034ZM101.183 38.894C101.771 38.894 102.378 38.684 103.003 38.264L103.717 39.272C103.391 39.552 102.999 39.776 102.541 39.944C102.084 40.1027 101.613 40.182 101.127 40.182C99.9979 40.182 99.1159 39.8367 98.4812 39.146C97.8465 38.446 97.5292 37.5127 97.5292 36.346C97.5292 35.59 97.6739 34.918 97.9632 34.33C98.2525 33.7327 98.6679 33.266 99.2092 32.93C99.7599 32.5847 100.409 32.412 101.155 32.412C102.135 32.412 102.989 32.7107 103.717 33.308L102.989 34.288C102.392 33.8773 101.79 33.672 101.183 33.672C100.567 33.672 100.082 33.896 99.7272 34.344C99.3725 34.7827 99.1952 35.45 99.1952 36.346C99.1952 37.2233 99.3725 37.8673 99.7272 38.278C100.082 38.6887 100.567 38.894 101.183 38.894ZM112.182 39.608C111.902 39.7853 111.575 39.9253 111.202 40.028C110.828 40.1307 110.436 40.182 110.026 40.182C109.186 40.182 108.537 39.9673 108.08 39.538C107.622 39.0993 107.394 38.5067 107.394 37.76V33.756H105.756V32.608H107.394V30.956L108.962 30.774V32.608H111.468L111.286 33.756H108.962V37.746C108.962 38.1473 109.064 38.446 109.27 38.642C109.475 38.8287 109.802 38.922 110.25 38.922C110.744 38.922 111.202 38.8053 111.622 38.572L112.182 39.608ZM122.797 32.608H124.155L124.267 33.574C124.575 33.2007 124.934 32.916 125.345 32.72C125.765 32.5147 126.203 32.412 126.661 32.412C127.342 32.412 127.855 32.6033 128.201 32.986C128.546 33.3687 128.719 33.91 128.719 34.61V40H127.151V35.394C127.151 34.9367 127.123 34.5867 127.067 34.344C127.02 34.092 126.922 33.91 126.773 33.798C126.623 33.6767 126.399 33.616 126.101 33.616C125.765 33.616 125.443 33.7187 125.135 33.924C124.836 34.1293 124.579 34.386 124.365 34.694V40H122.797V32.608ZM136.847 38.194C136.847 38.474 136.889 38.684 136.973 38.824C137.057 38.9547 137.202 39.0527 137.407 39.118L137.043 40.182C136.269 40.0887 135.76 39.748 135.517 39.16C135.247 39.496 134.906 39.7527 134.495 39.93C134.094 40.098 133.651 40.182 133.165 40.182C132.419 40.182 131.826 39.972 131.387 39.552C130.949 39.132 130.729 38.5767 130.729 37.886C130.729 37.1113 131.033 36.514 131.639 36.094C132.255 35.674 133.123 35.464 134.243 35.464H135.293V34.988C135.293 34.5213 135.153 34.1807 134.873 33.966C134.593 33.7513 134.187 33.644 133.655 33.644C133.394 33.644 133.091 33.6767 132.745 33.742C132.4 33.8073 132.05 33.9007 131.695 34.022L131.303 32.916C132.19 32.58 133.053 32.412 133.893 32.412C134.873 32.412 135.611 32.6267 136.105 33.056C136.6 33.4853 136.847 34.0967 136.847 34.89V38.194ZM133.627 39.034C133.954 39.034 134.267 38.95 134.565 38.782C134.873 38.614 135.116 38.3807 135.293 38.082V36.444H134.425C133.716 36.444 133.198 36.5653 132.871 36.808C132.545 37.0413 132.381 37.382 132.381 37.83C132.381 38.222 132.484 38.5207 132.689 38.726C132.904 38.9313 133.217 39.034 133.627 39.034ZM144.682 32.412C145.139 32.412 145.499 32.5707 145.76 32.888C146.021 33.2053 146.152 33.7467 146.152 34.512V40H144.766V34.722C144.766 34.3113 144.733 34.0267 144.668 33.868C144.612 33.7093 144.481 33.63 144.276 33.63C143.884 33.63 143.52 33.8773 143.184 34.372V40H141.91V34.722C141.91 34.3113 141.877 34.0267 141.812 33.868C141.756 33.7093 141.625 33.63 141.42 33.63C141.028 33.63 140.664 33.8773 140.328 34.372V40H138.928V32.608H140.104L140.216 33.406C140.449 33.0793 140.687 32.832 140.93 32.664C141.173 32.496 141.462 32.412 141.798 32.412C142.451 32.412 142.871 32.7247 143.058 33.35C143.282 33.0513 143.525 32.8227 143.786 32.664C144.047 32.496 144.346 32.412 144.682 32.412ZM149.282 36.808C149.329 37.5267 149.534 38.068 149.898 38.432C150.272 38.7867 150.738 38.964 151.298 38.964C151.644 38.964 151.97 38.9127 152.278 38.81C152.596 38.698 152.918 38.5347 153.244 38.32L153.916 39.272C153.571 39.5613 153.165 39.7853 152.698 39.944C152.232 40.1027 151.742 40.182 151.228 40.182C150.099 40.182 149.222 39.832 148.596 39.132C147.971 38.4227 147.658 37.48 147.658 36.304C147.658 35.5667 147.794 34.904 148.064 34.316C148.335 33.7187 148.727 33.252 149.24 32.916C149.754 32.58 150.351 32.412 151.032 32.412C152.012 32.412 152.787 32.7433 153.356 33.406C153.935 34.0593 154.224 34.96 154.224 36.108C154.224 36.388 154.21 36.6213 154.182 36.808H149.282ZM151.046 33.574C150.542 33.574 150.132 33.756 149.814 34.12C149.497 34.484 149.315 35.0253 149.268 35.744H152.698C152.68 35.044 152.53 34.5073 152.25 34.134C151.97 33.7607 151.569 33.574 151.046 33.574ZM170.425 38.194C170.425 38.474 170.467 38.684 170.551 38.824C170.635 38.9547 170.78 39.0527 170.985 39.118L170.621 40.182C169.847 40.0887 169.338 39.748 169.095 39.16C168.825 39.496 168.484 39.7527 168.073 39.93C167.672 40.098 167.229 40.182 166.743 40.182C165.997 40.182 165.404 39.972 164.965 39.552C164.527 39.132 164.307 38.5767 164.307 37.886C164.307 37.1113 164.611 36.514 165.217 36.094C165.833 35.674 166.701 35.464 167.821 35.464H168.871V34.988C168.871 34.5213 168.731 34.1807 168.451 33.966C168.171 33.7513 167.765 33.644 167.233 33.644C166.972 33.644 166.669 33.6767 166.323 33.742C165.978 33.8073 165.628 33.9007 165.273 34.022L164.881 32.916C165.768 32.58 166.631 32.412 167.471 32.412C168.451 32.412 169.189 32.6267 169.683 33.056C170.178 33.4853 170.425 34.0967 170.425 34.89V38.194ZM167.205 39.034C167.532 39.034 167.845 38.95 168.143 38.782C168.451 38.614 168.694 38.3807 168.871 38.082V36.444H168.003C167.294 36.444 166.776 36.5653 166.449 36.808C166.123 37.0413 165.959 37.382 165.959 37.83C165.959 38.222 166.062 38.5207 166.267 38.726C166.482 38.9313 166.795 39.034 167.205 39.034ZM173.164 32.608H174.522L174.634 33.574C174.942 33.2007 175.301 32.916 175.712 32.72C176.132 32.5147 176.571 32.412 177.028 32.412C177.709 32.412 178.223 32.6033 178.568 32.986C178.913 33.3687 179.086 33.91 179.086 34.61V40H177.518V35.394C177.518 34.9367 177.49 34.5867 177.434 34.344C177.387 34.092 177.289 33.91 177.14 33.798C176.991 33.6767 176.767 33.616 176.468 33.616C176.132 33.616 175.81 33.7187 175.502 33.924C175.203 34.1293 174.947 34.386 174.732 34.694V40H173.164V32.608ZM187.467 29.64V40H186.081L185.969 39.09C185.726 39.4447 185.427 39.7153 185.073 39.902C184.718 40.0887 184.326 40.182 183.897 40.182C182.973 40.182 182.277 39.8367 181.811 39.146C181.344 38.4553 181.111 37.508 181.111 36.304C181.111 35.548 181.227 34.876 181.461 34.288C181.703 33.7 182.044 33.2427 182.483 32.916C182.921 32.58 183.439 32.412 184.037 32.412C184.793 32.412 185.413 32.6827 185.899 33.224V29.458L187.467 29.64ZM184.443 33.616C183.901 33.616 183.486 33.84 183.197 34.288C182.917 34.7267 182.777 35.3987 182.777 36.304C182.777 38.096 183.29 38.992 184.317 38.992C184.933 38.992 185.46 38.6373 185.899 37.928V34.442C185.516 33.8913 185.031 33.616 184.443 33.616ZM201.036 38.992C201.53 38.992 201.918 38.9033 202.198 38.726C202.487 38.5487 202.632 38.306 202.632 37.998C202.632 37.7833 202.59 37.6107 202.506 37.48C202.422 37.34 202.254 37.214 202.002 37.102C201.75 36.9807 201.372 36.8547 200.868 36.724C200.056 36.5187 199.444 36.2573 199.034 35.94C198.632 35.6133 198.432 35.1467 198.432 34.54C198.432 33.896 198.698 33.3827 199.23 33C199.762 32.608 200.48 32.412 201.386 32.412C202.478 32.412 203.416 32.6967 204.2 33.266L203.528 34.26C202.865 33.8213 202.165 33.602 201.428 33.602C200.494 33.602 200.028 33.8727 200.028 34.414C200.028 34.6007 200.079 34.7547 200.182 34.876C200.294 34.9973 200.48 35.114 200.742 35.226C201.003 35.3287 201.39 35.45 201.904 35.59C202.706 35.814 203.304 36.0893 203.696 36.416C204.097 36.7427 204.298 37.2327 204.298 37.886C204.298 38.642 203.985 39.216 203.36 39.608C202.734 39.9907 201.96 40.182 201.036 40.182C199.813 40.182 198.8 39.8367 197.998 39.146L198.824 38.194C199.132 38.4367 199.472 38.6327 199.846 38.782C200.228 38.922 200.625 38.992 201.036 38.992ZM210.662 40.028C210.363 40.924 209.929 41.624 209.36 42.128C208.8 42.6413 208.025 42.94 207.036 43.024L206.84 41.848C207.325 41.7733 207.717 41.6567 208.016 41.498C208.315 41.3487 208.553 41.1573 208.73 40.924C208.907 40.6907 209.066 40.3827 209.206 40H208.674L206.182 32.608H207.848L209.71 38.908L211.6 32.608H213.21L210.662 40.028ZM220.233 32.412C220.69 32.412 221.049 32.5707 221.311 32.888C221.572 33.2053 221.703 33.7467 221.703 34.512V40H220.317V34.722C220.317 34.3113 220.284 34.0267 220.219 33.868C220.163 33.7093 220.032 33.63 219.827 33.63C219.435 33.63 219.071 33.8773 218.735 34.372V40H217.461V34.722C217.461 34.3113 217.428 34.0267 217.363 33.868C217.307 33.7093 217.176 33.63 216.971 33.63C216.579 33.63 216.215 33.8773 215.879 34.372V40H214.479V32.608H215.655L215.767 33.406C216 33.0793 216.238 32.832 216.481 32.664C216.723 32.496 217.013 32.412 217.349 32.412C218.002 32.412 218.422 32.7247 218.609 33.35C218.833 33.0513 219.075 32.8227 219.337 32.664C219.598 32.496 219.897 32.412 220.233 32.412ZM225.099 33.49C225.351 33.1447 225.65 32.8787 225.995 32.692C226.35 32.5053 226.728 32.412 227.129 32.412C228.072 32.412 228.767 32.7527 229.215 33.434C229.663 34.1153 229.887 35.0673 229.887 36.29C229.887 37.4473 229.626 38.3853 229.103 39.104C228.59 39.8227 227.866 40.182 226.933 40.182C226.112 40.182 225.468 39.8787 225.001 39.272L224.917 40H223.531V29.64L225.099 29.458V33.49ZM226.555 38.992C227.096 38.992 227.507 38.7727 227.787 38.334C228.076 37.886 228.221 37.2093 228.221 36.304C228.221 35.3707 228.09 34.6893 227.829 34.26C227.577 33.8307 227.199 33.616 226.695 33.616C226.378 33.616 226.079 33.714 225.799 33.91C225.528 34.106 225.295 34.3627 225.099 34.68V38.138C225.472 38.7073 225.958 38.992 226.555 38.992ZM234.894 32.412C235.958 32.412 236.779 32.762 237.358 33.462C237.936 34.1527 238.226 35.0953 238.226 36.29C238.226 37.4847 237.932 38.432 237.344 39.132C236.756 39.832 235.934 40.182 234.88 40.182C233.816 40.182 232.99 39.8413 232.402 39.16C231.823 38.4693 231.534 37.5173 231.534 36.304C231.534 35.128 231.828 34.1853 232.416 33.476C233.013 32.7667 233.839 32.412 234.894 32.412ZM234.894 33.63C234.324 33.63 233.895 33.8493 233.606 34.288C233.326 34.7267 233.186 35.3987 233.186 36.304C233.186 37.2187 233.326 37.8953 233.606 38.334C233.886 38.7633 234.31 38.978 234.88 38.978C235.449 38.978 235.874 38.7587 236.154 38.32C236.434 37.8813 236.574 37.2047 236.574 36.29C236.574 35.3847 236.434 34.7173 236.154 34.288C235.874 33.8493 235.454 33.63 234.894 33.63ZM243.568 37.984C243.568 38.6093 243.942 38.922 244.688 38.922C245.062 38.922 245.454 38.838 245.864 38.67L246.256 39.762C245.743 40.042 245.108 40.182 244.352 40.182C243.615 40.182 243.036 39.9767 242.616 39.566C242.206 39.146 242 38.572 242 37.844V30.788H239.774V29.64H243.568V37.984ZM263.283 39.608C263.003 39.7853 262.677 39.9253 262.303 40.028C261.93 40.1307 261.538 40.182 261.127 40.182C260.287 40.182 259.639 39.9673 259.181 39.538C258.724 39.0993 258.495 38.5067 258.495 37.76V33.756H256.857V32.608H258.495V30.956L260.063 30.774V32.608H262.569L262.387 33.756H260.063V37.746C260.063 38.1473 260.166 38.446 260.371 38.642C260.577 38.8287 260.903 38.922 261.351 38.922C261.846 38.922 262.303 38.8053 262.723 38.572L263.283 39.608ZM268.472 32.412C269.536 32.412 270.357 32.762 270.936 33.462C271.514 34.1527 271.804 35.0953 271.804 36.29C271.804 37.4847 271.51 38.432 270.922 39.132C270.334 39.832 269.512 40.182 268.458 40.182C267.394 40.182 266.568 39.8413 265.98 39.16C265.401 38.4693 265.112 37.5173 265.112 36.304C265.112 35.128 265.406 34.1853 265.994 33.476C266.591 32.7667 267.417 32.412 268.472 32.412ZM268.472 33.63C267.902 33.63 267.473 33.8493 267.184 34.288C266.904 34.7267 266.764 35.3987 266.764 36.304C266.764 37.2187 266.904 37.8953 267.184 38.334C267.464 38.7633 267.888 38.978 268.458 38.978C269.027 38.978 269.452 38.7587 269.732 38.32C270.012 37.8813 270.152 37.2047 270.152 36.29C270.152 35.3847 270.012 34.7173 269.732 34.288C269.452 33.8493 269.032 33.63 268.472 33.63ZM50.858 49.412C52.65 49.412 53.546 50.7047 53.546 53.29C53.546 54.4567 53.2987 55.3993 52.804 56.118C52.3093 56.8273 51.6047 57.182 50.69 57.182C49.9153 57.182 49.29 56.9113 48.814 56.37V59.842L47.246 60.024V49.608H48.604L48.702 50.56C48.982 50.1867 49.304 49.902 49.668 49.706C50.0413 49.51 50.438 49.412 50.858 49.412ZM50.424 50.616C50.0973 50.616 49.7987 50.714 49.528 50.91C49.2573 51.106 49.0193 51.3627 48.814 51.68V55.138C49.178 55.6887 49.6633 55.964 50.27 55.964C50.8113 55.964 51.2173 55.7493 51.488 55.32C51.7587 54.8907 51.894 54.2187 51.894 53.304C51.894 52.3613 51.7727 51.68 51.53 51.26C51.2873 50.8307 50.9187 50.616 50.424 50.616ZM60.8765 49.426C61.2592 49.426 61.6325 49.4867 61.9965 49.608L61.7305 52.338H60.6105V50.826C60.0972 50.8353 59.6492 51.0407 59.2665 51.442C58.8932 51.8433 58.5945 52.408 58.3705 53.136V55.88H59.8545V57H55.7105V55.88H56.8025V50.728H55.7105V49.608H57.9925L58.2725 51.316C58.5619 50.6813 58.9119 50.21 59.3225 49.902C59.7425 49.5847 60.2605 49.426 60.8765 49.426ZM67.0031 49.412C68.0671 49.412 68.8884 49.762 69.4671 50.462C70.0457 51.1527 70.3351 52.0953 70.3351 53.29C70.3351 54.4847 70.0411 55.432 69.4531 56.132C68.8651 56.832 68.0437 57.182 66.9891 57.182C65.9251 57.182 65.0991 56.8413 64.5111 56.16C63.9324 55.4693 63.6431 54.5173 63.6431 53.304C63.6431 52.128 63.9371 51.1853 64.5251 50.476C65.1224 49.7667 65.9484 49.412 67.0031 49.412ZM67.0031 50.63C66.4337 50.63 66.0044 50.8493 65.7151 51.288C65.4351 51.7267 65.2951 52.3987 65.2951 53.304C65.2951 54.2187 65.4351 54.8953 65.7151 55.334C65.9951 55.7633 66.4197 55.978 66.9891 55.978C67.5584 55.978 67.9831 55.7587 68.2631 55.32C68.5431 54.8813 68.6831 54.2047 68.6831 53.29C68.6831 52.3847 68.5431 51.7173 68.2631 51.288C67.9831 50.8493 67.5631 50.63 67.0031 50.63ZM75.9996 55.894C76.5876 55.894 77.1943 55.684 77.8196 55.264L78.5336 56.272C78.2069 56.552 77.8149 56.776 77.3576 56.944C76.9003 57.1027 76.4289 57.182 75.9436 57.182C74.8143 57.182 73.9323 56.8367 73.2976 56.146C72.6629 55.446 72.3456 54.5127 72.3456 53.346C72.3456 52.59 72.4903 51.918 72.7796 51.33C73.0689 50.7327 73.4843 50.266 74.0256 49.93C74.5763 49.5847 75.2249 49.412 75.9716 49.412C76.9516 49.412 77.8056 49.7107 78.5336 50.308L77.8056 51.288C77.2083 50.8773 76.6063 50.672 75.9996 50.672C75.3836 50.672 74.8983 50.896 74.5436 51.344C74.1889 51.7827 74.0116 52.45 74.0116 53.346C74.0116 54.2233 74.1889 54.8673 74.5436 55.278C74.8983 55.6887 75.3836 55.894 75.9996 55.894ZM82.1261 53.808C82.1728 54.5267 82.3781 55.068 82.7421 55.432C83.1155 55.7867 83.5821 55.964 84.1421 55.964C84.4875 55.964 84.8141 55.9127 85.1221 55.81C85.4395 55.698 85.7615 55.5347 86.0881 55.32L86.7601 56.272C86.4148 56.5613 86.0088 56.7853 85.5421 56.944C85.0755 57.1027 84.5855 57.182 84.0721 57.182C82.9428 57.182 82.0655 56.832 81.4401 56.132C80.8148 55.4227 80.5021 54.48 80.5021 53.304C80.5021 52.5667 80.6375 51.904 80.9081 51.316C81.1788 50.7187 81.5708 50.252 82.0841 49.916C82.5975 49.58 83.1948 49.412 83.8761 49.412C84.8561 49.412 85.6308 49.7433 86.2001 50.406C86.7788 51.0593 87.0681 51.96 87.0681 53.108C87.0681 53.388 87.0541 53.6213 87.0261 53.808H82.1261ZM83.8901 50.574C83.3861 50.574 82.9755 50.756 82.6581 51.12C82.3408 51.484 82.1588 52.0253 82.1121 52.744H85.5421C85.5235 52.044 85.3741 51.5073 85.0941 51.134C84.8141 50.7607 84.4128 50.574 83.8901 50.574ZM90.5207 53.808C90.5673 54.5267 90.7727 55.068 91.1367 55.432C91.51 55.7867 91.9767 55.964 92.5367 55.964C92.882 55.964 93.2087 55.9127 93.5167 55.81C93.834 55.698 94.156 55.5347 94.4827 55.32L95.1547 56.272C94.8093 56.5613 94.4033 56.7853 93.9367 56.944C93.47 57.1027 92.98 57.182 92.4667 57.182C91.3373 57.182 90.46 56.832 89.8347 56.132C89.2093 55.4227 88.8967 54.48 88.8967 53.304C88.8967 52.5667 89.032 51.904 89.3027 51.316C89.5733 50.7187 89.9653 50.252 90.4787 49.916C90.992 49.58 91.5893 49.412 92.2707 49.412C93.2507 49.412 94.0253 49.7433 94.5947 50.406C95.1733 51.0593 95.4627 51.96 95.4627 53.108C95.4627 53.388 95.4487 53.6213 95.4207 53.808H90.5207ZM92.2847 50.574C91.7807 50.574 91.37 50.756 91.0527 51.12C90.7353 51.484 90.5533 52.0253 90.5067 52.744H93.9367C93.918 52.044 93.7687 51.5073 93.4887 51.134C93.2087 50.7607 92.8073 50.574 92.2847 50.574ZM103.521 46.64V57H102.135L102.023 56.09C101.781 56.4447 101.482 56.7153 101.127 56.902C100.773 57.0887 100.381 57.182 99.9512 57.182C99.0272 57.182 98.3319 56.8367 97.8652 56.146C97.3985 55.4553 97.1652 54.508 97.1652 53.304C97.1652 52.548 97.2819 51.876 97.5152 51.288C97.7579 50.7 98.0985 50.2427 98.5372 49.916C98.9759 49.58 99.4939 49.412 100.091 49.412C100.847 49.412 101.468 49.6827 101.953 50.224V46.458L103.521 46.64ZM100.497 50.616C99.9559 50.616 99.5405 50.84 99.2512 51.288C98.9712 51.7267 98.8312 52.3987 98.8312 53.304C98.8312 55.096 99.3445 55.992 100.371 55.992C100.987 55.992 101.515 55.6373 101.953 54.928V51.442C101.571 50.8913 101.085 50.616 100.497 50.616ZM107.604 55.824C107.604 55.4507 107.734 55.1333 107.996 54.872C108.257 54.6107 108.574 54.48 108.948 54.48C109.33 54.48 109.652 54.6107 109.914 54.872C110.175 55.1333 110.306 55.4507 110.306 55.824C110.306 56.2067 110.175 56.5287 109.914 56.79C109.652 57.0513 109.33 57.182 108.948 57.182C108.574 57.182 108.257 57.0513 107.996 56.79C107.734 56.5287 107.604 56.2067 107.604 55.824ZM115.998 55.824C115.998 55.4507 116.129 55.1333 116.39 54.872C116.652 54.6107 116.969 54.48 117.342 54.48C117.725 54.48 118.047 54.6107 118.308 54.872C118.57 55.1333 118.7 55.4507 118.7 55.824C118.7 56.2067 118.57 56.5287 118.308 56.79C118.047 57.0513 117.725 57.182 117.342 57.182C116.969 57.182 116.652 57.0513 116.39 56.79C116.129 56.5287 115.998 56.2067 115.998 55.824ZM124.393 55.824C124.393 55.4507 124.523 55.1333 124.785 54.872C125.046 54.6107 125.363 54.48 125.737 54.48C126.119 54.48 126.441 54.6107 126.703 54.872C126.964 55.1333 127.095 55.4507 127.095 55.824C127.095 56.2067 126.964 56.5287 126.703 56.79C126.441 57.0513 126.119 57.182 125.737 57.182C125.363 57.182 125.046 57.0513 124.785 56.79C124.523 56.5287 124.393 56.2067 124.393 55.824Z" fill="white"/>
</svg>
