<svg width="238" height="85" viewBox="0 0 238 85" fill="none" xmlns="http://www.w3.org/2000/svg">
<g filter="url(#filter0_d_3060_13631)">
<circle cx="42.2285" cy="42.2285" r="36.2285" fill="#6CE89E"/>
<path d="M52.2419 29.3032C51.2284 29.3032 50.2875 29.8287 49.7566 30.6924L44.037 39.1842C43.8506 39.4641 43.9263 39.8414 44.2061 40.0277C44.433 40.1789 44.7331 40.1602 44.9397 39.9825L50.5697 35.0993C50.6633 35.0151 50.8075 35.0237 50.8917 35.1172C50.9299 35.1601 50.9501 35.2154 50.9501 35.2724V50.5612C50.9501 50.6875 50.848 50.7888 50.7217 50.7888C50.6539 50.7888 50.59 50.7592 50.5471 50.707L33.5284 30.3354C32.9742 29.6813 32.1603 29.304 31.3035 29.3032H30.7087C29.0989 29.3032 27.7939 30.6082 27.7939 32.218V53.7512C27.7939 55.361 29.0989 56.666 30.7087 56.666C31.7222 56.666 32.6631 56.1405 33.194 55.2768L38.9137 46.785C39.1 46.5051 39.0244 46.1278 38.7445 45.9415C38.5176 45.7902 38.2175 45.809 38.0109 45.9867L32.3809 50.8699C32.2874 50.9541 32.1431 50.9455 32.0589 50.852C32.0207 50.8091 32.0005 50.7537 32.0013 50.6968V35.4041C32.0013 35.2778 32.1034 35.1765 32.2297 35.1765C32.2967 35.1765 32.3614 35.2061 32.4043 35.2583L49.4206 55.6338C49.9749 56.2879 50.7888 56.6652 51.6455 56.666H52.2403C53.8501 56.6667 55.1559 55.3625 55.1575 53.7527V32.218C55.1575 30.6082 53.8525 29.3032 52.2427 29.3032H52.2419Z" fill="black"/>
</g>
<g clip-path="url(#clip0_3060_13631)">
<path d="M202 78C221.882 78 238 61.8823 238 42C238 22.1177 221.882 6 202 6C182.118 6 166 22.1177 166 42C166 61.8823 182.118 78 202 78Z" fill="#2775CA"/>
<path d="M196.815 60.2345C196.826 60.3662 196.805 60.4986 196.753 60.619C196.701 60.7394 196.621 60.8435 196.519 60.9214C196.418 60.9992 196.299 61.0481 196.175 61.0632C196.05 61.0783 195.924 61.0592 195.809 61.0078C192.09 59.752 188.845 57.2828 186.543 53.9564C184.241 50.6299 183 46.6182 183 42.5001C183 38.3819 184.241 34.3702 186.543 31.0437C188.845 27.7173 192.09 25.2481 195.809 23.9924C195.924 23.9409 196.05 23.9218 196.175 23.9369C196.299 23.9521 196.418 24.0009 196.519 24.0788C196.621 24.1566 196.701 24.2608 196.753 24.3811C196.805 24.5015 196.826 24.634 196.815 24.7656V26.2737C196.807 26.4918 196.74 26.7031 196.624 26.8835C196.507 27.0639 196.345 27.2062 196.155 27.2943C193.199 28.4327 190.646 30.502 188.842 33.222C187.038 35.9419 186.07 39.1809 186.07 42.5001C186.07 45.8193 187.038 49.0583 188.842 51.7782C190.646 54.4981 193.199 56.5675 196.155 57.7059C196.345 57.794 196.507 57.9363 196.624 58.1167C196.74 58.2971 196.807 58.5083 196.815 58.7265V60.2345Z" fill="white"/>
<path d="M203.673 54.2132C203.673 54.4279 203.591 54.6339 203.446 54.7857C203.301 54.9376 203.104 55.0229 202.899 55.0229H201.352C201.147 55.0229 200.95 54.9376 200.805 54.7857C200.66 54.6339 200.578 54.4279 200.578 54.2132V51.6568C199.234 51.6029 197.95 51.0581 196.95 50.1171C195.949 49.1761 195.295 47.8982 195.1 46.5051C195.083 46.3967 195.089 46.2858 195.118 46.1801C195.146 46.0745 195.196 45.9765 195.264 45.893C195.332 45.8095 195.417 45.7426 195.512 45.6968C195.607 45.651 195.711 45.6274 195.816 45.6278H197.58C197.76 45.6294 197.933 45.6955 198.071 45.8151C198.209 45.9347 198.304 46.1004 198.339 46.2843C198.667 47.8854 199.556 49.1225 202.257 49.1225C204.254 49.1225 205.671 47.9576 205.671 46.2105C205.671 44.4629 204.836 43.8015 201.902 43.2985C197.577 42.6893 195.528 41.3126 195.528 37.7652C195.578 36.3756 196.125 35.0563 197.06 34.0686C197.996 33.0808 199.251 32.4967 200.578 32.4318V29.9234C200.578 29.7087 200.66 29.5028 200.805 29.3509C200.95 29.1991 201.147 29.1138 201.352 29.1138H202.899C203.104 29.1138 203.301 29.1991 203.446 29.3509C203.591 29.5028 203.673 29.7087 203.673 29.9234V32.503C204.789 32.6263 205.838 33.1219 206.666 33.9167C207.493 34.7115 208.054 35.7634 208.267 36.9174C208.288 37.027 208.285 37.1402 208.259 37.2486C208.233 37.357 208.184 37.458 208.116 37.5443C208.048 37.6305 207.963 37.6998 207.866 37.7472C207.769 37.7945 207.663 37.8187 207.556 37.818H205.929C205.76 37.8163 205.597 37.7574 205.463 37.6502C205.329 37.543 205.232 37.3931 205.186 37.2232C204.746 35.6622 203.68 34.9852 201.827 34.9852C199.778 34.9852 198.716 36.0182 198.716 37.4739C198.716 39.0093 199.322 39.7773 202.458 40.2539C206.708 40.8625 208.909 42.1335 208.909 45.919C208.865 47.3827 208.307 48.7778 207.34 49.8366C206.374 50.8953 205.067 51.5431 203.673 51.6554V54.2132Z" fill="white"/>
<path d="M208.191 61.0078C208.076 61.0592 207.95 61.0783 207.825 61.0632C207.7 61.0481 207.582 60.9992 207.48 60.9214C207.379 60.8435 207.299 60.7394 207.247 60.619C207.195 60.4986 207.173 60.3662 207.184 60.2345V58.7265C207.183 58.5057 207.245 58.2895 207.363 58.1071C207.481 57.9246 207.649 57.7846 207.844 57.7059C210.801 56.5675 213.354 54.4981 215.158 51.7782C216.962 49.0583 217.93 45.8193 217.93 42.5001C217.93 39.1809 216.962 35.9419 215.158 33.222C213.354 30.502 210.801 28.4327 207.844 27.2943C207.655 27.2062 207.493 27.0639 207.376 26.8835C207.259 26.7031 207.193 26.4918 207.184 26.2736V24.7656C207.173 24.634 207.195 24.5015 207.247 24.3811C207.299 24.2608 207.379 24.1566 207.48 24.0788C207.582 24.0009 207.7 23.9521 207.825 23.9369C207.95 23.9218 208.076 23.9409 208.191 23.9924C211.91 25.2481 215.155 27.7173 217.457 31.0437C219.759 34.3702 221 38.3819 221 42.5001C221 46.6182 219.759 50.6299 217.457 53.9564C215.155 57.2828 211.91 59.752 208.191 61.0078Z" fill="white"/>
</g>
<path d="M117 45L113 41L117 37" stroke="white" stroke-width="2" stroke-linecap="round" stroke-linejoin="round"/>
<path d="M113 41L125 41" stroke="white" stroke-width="2" stroke-linecap="round" stroke-linejoin="round"/>
<path d="M127 55L131 51L127 47" stroke="white" stroke-width="2" stroke-linecap="round" stroke-linejoin="round"/>
<path d="M119 51L131 51" stroke="white" stroke-width="2" stroke-linecap="round" stroke-linejoin="round"/>
<defs>
<filter id="filter0_d_3060_13631" x="0" y="0" width="84.457" height="84.457" filterUnits="userSpaceOnUse" color-interpolation-filters="sRGB">
<feFlood flood-opacity="0" result="BackgroundImageFix"/>
<feColorMatrix in="SourceAlpha" type="matrix" values="0 0 0 0 0 0 0 0 0 0 0 0 0 0 0 0 0 0 127 0" result="hardAlpha"/>
<feOffset/>
<feGaussianBlur stdDeviation="3"/>
<feComposite in2="hardAlpha" operator="out"/>
<feColorMatrix type="matrix" values="0 0 0 0 0 0 0 0 0 0 0 0 0 0 0 0 0 0 0.07 0"/>
<feBlend mode="normal" in2="BackgroundImageFix" result="effect1_dropShadow_3060_13631"/>
<feBlend mode="normal" in="SourceGraphic" in2="effect1_dropShadow_3060_13631" result="shape"/>
</filter>
<clipPath id="clip0_3060_13631">
<rect width="72" height="72" fill="white" transform="translate(166 6)"/>
</clipPath>
</defs>
</svg>
