<svg width="24" height="24" viewBox="0 0 24 24" fill="none" xmlns="http://www.w3.org/2000/svg">
<mask id="path-1-outside-1_2421_7990" maskUnits="userSpaceOnUse" x="4" y="3" width="15" height="18" fill="black">
<rect fill="white" x="4" y="3" width="15" height="18"/>
<path d="M16.4012 10.1272H15.2488V5.86845C15.25 5.44873 15.1037 5.0409 14.8337 4.71105C14.5636 4.3812 14.1856 4.14864 13.7609 4.05106C13.3361 3.95347 12.8895 3.99658 12.4935 4.1734C12.0974 4.35021 11.775 4.65038 11.5786 5.02526C11.3822 5.40013 11.3233 5.82776 11.4113 6.23886C11.4994 6.64997 11.7293 7.02045 12.0638 7.29029C12.3983 7.56013 12.8178 7.71353 13.2543 7.72562C13.6908 7.73771 14.1188 7.60778 14.4689 7.3569V10.1272H10.0196C9.76575 10.1272 9.51442 10.1752 9.27993 10.2686C9.04544 10.362 8.83238 10.4989 8.65295 10.6714C8.47351 10.8439 8.3312 11.0488 8.23415 11.2742C8.1371 11.4996 8.08721 11.7412 8.08733 11.9851C8.08733 11.9983 8.08733 12.0123 8.08733 12.0254V16.2841H6.93399C6.55235 16.284 6.1792 16.3924 5.86156 16.5957C5.54392 16.799 5.29601 17.0882 5.14905 17.4267C5.0021 17.7652 4.96269 18.1379 5.03579 18.4979C5.10889 18.8579 5.29122 19.1891 5.55981 19.4496C5.8284 19.7102 6.17124 19.8886 6.54511 19.9622C6.91898 20.0358 7.30716 20.0014 7.66074 19.8634C8.01432 19.7253 8.31747 19.4898 8.532 19.1864C8.74652 18.8831 8.86282 18.5255 8.86624 18.1587V17.0336H11.7724C11.5134 17.3689 11.3797 17.7784 11.3929 18.1958C11.4061 18.6132 11.5654 19.0142 11.8451 19.3337C12.1248 19.6533 12.5085 19.8729 12.9342 19.9568C13.3598 20.0408 13.8025 19.9843 14.1906 19.7965C14.5787 19.6087 14.8895 19.3006 15.0727 18.9219C15.256 18.5433 15.301 18.1163 15.2004 17.71C15.0998 17.3037 14.8596 16.942 14.5185 16.6832C14.1775 16.4244 13.7556 16.2838 13.3211 16.2841H8.86624V13.4736C9.238 13.7408 9.6975 13.8702 10.1605 13.8383C10.6235 13.8064 11.0591 13.6151 11.3873 13.2997C11.7156 12.9842 11.9146 12.5656 11.9478 12.1206C11.981 11.6756 11.8463 11.234 11.5683 10.8767H14.4689V12.0053C14.4727 12.3718 14.5893 12.729 14.8039 13.032C15.0185 13.335 15.3217 13.5702 15.6751 13.7079C16.0286 13.8456 16.4165 13.8797 16.7901 13.8059C17.1636 13.7321 17.5061 13.5537 17.7744 13.2932C18.0427 13.0327 18.2248 12.7017 18.2977 12.3419C18.3706 11.9821 18.3311 11.6097 18.1842 11.2714C18.0372 10.9332 17.7895 10.6443 17.472 10.4411C17.1546 10.238 16.7817 10.1296 16.4003 10.1298L16.4012 10.1272ZM13.3156 6.97515C13.0875 6.97515 12.8645 6.91014 12.6748 6.78835C12.4852 6.66655 12.3374 6.49343 12.2501 6.29088C12.1628 6.08834 12.1399 5.86547 12.1844 5.65044C12.2289 5.43542 12.3388 5.23791 12.5001 5.08289C12.6614 4.92787 12.8669 4.8223 13.0906 4.77953C13.3143 4.73676 13.5462 4.75871 13.757 4.84261C13.9677 4.92651 14.1478 5.06858 14.2746 5.25087C14.4013 5.43315 14.4689 5.64746 14.4689 5.8667C14.4691 6.01238 14.4393 6.15665 14.3814 6.29128C14.3235 6.42592 14.2386 6.54828 14.1315 6.65137C14.0244 6.75446 13.8972 6.83627 13.7572 6.89213C13.6172 6.94798 13.4672 6.97679 13.3156 6.97691V6.97515ZM14.4689 18.1421C14.4689 18.3613 14.4013 18.5756 14.2746 18.7579C14.1478 18.9402 13.9677 19.0822 13.757 19.1661C13.5462 19.25 13.3143 19.272 13.0906 19.2292C12.8669 19.1865 12.6614 19.0809 12.5001 18.9259C12.3388 18.7708 12.2289 18.5733 12.1844 18.3583C12.1399 18.1433 12.1628 17.9204 12.2501 17.7179C12.3374 17.5153 12.4852 17.3422 12.6748 17.2204C12.8645 17.0986 13.0875 17.0336 13.3156 17.0336C13.6214 17.0338 13.9146 17.1507 14.1309 17.3585C14.3471 17.5663 14.4687 17.8482 14.4689 18.1421ZM6.93399 19.2496C6.70585 19.2496 6.48283 19.1846 6.29314 19.0628C6.10346 18.9409 5.95563 18.7678 5.86836 18.5652C5.7811 18.3626 5.75831 18.1397 5.80289 17.9246C5.84746 17.7096 5.9574 17.5121 6.11879 17.3571C6.28017 17.2021 6.48576 17.0966 6.70954 17.0539C6.93333 17.0112 7.16526 17.0333 7.37599 17.1174C7.58671 17.2014 7.76678 17.3436 7.8934 17.526C8.02002 17.7084 8.08751 17.9228 8.08733 18.1421C8.08709 18.4359 7.96547 18.7176 7.7492 18.9253C7.53294 19.133 7.23972 19.2496 6.93399 19.2496ZM10.0196 13.0927C9.79143 13.0927 9.56841 13.0277 9.37872 12.9058C9.18904 12.784 9.04121 12.6108 8.95395 12.4082C8.86668 12.2056 8.84389 11.9827 8.88847 11.7677C8.93304 11.5526 9.04298 11.3551 9.20437 11.2001C9.36576 11.0451 9.57134 10.9396 9.79513 10.897C10.0189 10.8543 10.2508 10.8764 10.4616 10.9604C10.6723 11.0444 10.8524 11.1866 10.979 11.3691C11.1056 11.5515 11.1731 11.7658 11.1729 11.9851C11.1727 12.2789 11.051 12.5607 10.8348 12.7683C10.6185 12.976 10.3253 13.0927 10.0196 13.0927ZM16.3966 13.0927C16.1685 13.0927 15.9455 13.0277 15.7558 12.9058C15.5661 12.784 15.4183 12.6108 15.331 12.4082C15.2437 12.2056 15.2209 11.9827 15.2655 11.7677C15.3101 11.5526 15.42 11.3551 15.5814 11.2001C15.7428 11.0451 15.9484 10.9396 16.1722 10.897C16.396 10.8543 16.6279 10.8764 16.8386 10.9604C17.0493 11.0444 17.2294 11.1866 17.356 11.3691C17.4827 11.5515 17.5501 11.7658 17.55 11.9851C17.5497 12.2782 17.4287 12.5592 17.2134 12.7668C16.9982 12.9744 16.7061 13.0915 16.4012 13.0927H16.3966Z"/>
</mask>
<path d="M16.4012 10.1272H15.2488V5.86845C15.25 5.44873 15.1037 5.0409 14.8337 4.71105C14.5636 4.3812 14.1856 4.14864 13.7609 4.05106C13.3361 3.95347 12.8895 3.99658 12.4935 4.1734C12.0974 4.35021 11.775 4.65038 11.5786 5.02526C11.3822 5.40013 11.3233 5.82776 11.4113 6.23886C11.4994 6.64997 11.7293 7.02045 12.0638 7.29029C12.3983 7.56013 12.8178 7.71353 13.2543 7.72562C13.6908 7.73771 14.1188 7.60778 14.4689 7.3569V10.1272H10.0196C9.76575 10.1272 9.51442 10.1752 9.27993 10.2686C9.04544 10.362 8.83238 10.4989 8.65295 10.6714C8.47351 10.8439 8.3312 11.0488 8.23415 11.2742C8.1371 11.4996 8.08721 11.7412 8.08733 11.9851C8.08733 11.9983 8.08733 12.0123 8.08733 12.0254V16.2841H6.93399C6.55235 16.284 6.1792 16.3924 5.86156 16.5957C5.54392 16.799 5.29601 17.0882 5.14905 17.4267C5.0021 17.7652 4.96269 18.1379 5.03579 18.4979C5.10889 18.8579 5.29122 19.1891 5.55981 19.4496C5.8284 19.7102 6.17124 19.8886 6.54511 19.9622C6.91898 20.0358 7.30716 20.0014 7.66074 19.8634C8.01432 19.7253 8.31747 19.4898 8.532 19.1864C8.74652 18.8831 8.86282 18.5255 8.86624 18.1587V17.0336H11.7724C11.5134 17.3689 11.3797 17.7784 11.3929 18.1958C11.4061 18.6132 11.5654 19.0142 11.8451 19.3337C12.1248 19.6533 12.5085 19.8729 12.9342 19.9568C13.3598 20.0408 13.8025 19.9843 14.1906 19.7965C14.5787 19.6087 14.8895 19.3006 15.0727 18.9219C15.256 18.5433 15.301 18.1163 15.2004 17.71C15.0998 17.3037 14.8596 16.942 14.5185 16.6832C14.1775 16.4244 13.7556 16.2838 13.3211 16.2841H8.86624V13.4736C9.238 13.7408 9.6975 13.8702 10.1605 13.8383C10.6235 13.8064 11.0591 13.6151 11.3873 13.2997C11.7156 12.9842 11.9146 12.5656 11.9478 12.1206C11.981 11.6756 11.8463 11.234 11.5683 10.8767H14.4689V12.0053C14.4727 12.3718 14.5893 12.729 14.8039 13.032C15.0185 13.335 15.3217 13.5702 15.6751 13.7079C16.0286 13.8456 16.4165 13.8797 16.7901 13.8059C17.1636 13.7321 17.5061 13.5537 17.7744 13.2932C18.0427 13.0327 18.2248 12.7017 18.2977 12.3419C18.3706 11.9821 18.3311 11.6097 18.1842 11.2714C18.0372 10.9332 17.7895 10.6443 17.472 10.4411C17.1546 10.238 16.7817 10.1296 16.4003 10.1298L16.4012 10.1272ZM13.3156 6.97515C13.0875 6.97515 12.8645 6.91014 12.6748 6.78835C12.4852 6.66655 12.3374 6.49343 12.2501 6.29088C12.1628 6.08834 12.1399 5.86547 12.1844 5.65044C12.2289 5.43542 12.3388 5.23791 12.5001 5.08289C12.6614 4.92787 12.8669 4.8223 13.0906 4.77953C13.3143 4.73676 13.5462 4.75871 13.757 4.84261C13.9677 4.92651 14.1478 5.06858 14.2746 5.25087C14.4013 5.43315 14.4689 5.64746 14.4689 5.8667C14.4691 6.01238 14.4393 6.15665 14.3814 6.29128C14.3235 6.42592 14.2386 6.54828 14.1315 6.65137C14.0244 6.75446 13.8972 6.83627 13.7572 6.89213C13.6172 6.94798 13.4672 6.97679 13.3156 6.97691V6.97515ZM14.4689 18.1421C14.4689 18.3613 14.4013 18.5756 14.2746 18.7579C14.1478 18.9402 13.9677 19.0822 13.757 19.1661C13.5462 19.25 13.3143 19.272 13.0906 19.2292C12.8669 19.1865 12.6614 19.0809 12.5001 18.9259C12.3388 18.7708 12.2289 18.5733 12.1844 18.3583C12.1399 18.1433 12.1628 17.9204 12.2501 17.7179C12.3374 17.5153 12.4852 17.3422 12.6748 17.2204C12.8645 17.0986 13.0875 17.0336 13.3156 17.0336C13.6214 17.0338 13.9146 17.1507 14.1309 17.3585C14.3471 17.5663 14.4687 17.8482 14.4689 18.1421ZM6.93399 19.2496C6.70585 19.2496 6.48283 19.1846 6.29314 19.0628C6.10346 18.9409 5.95563 18.7678 5.86836 18.5652C5.7811 18.3626 5.75831 18.1397 5.80289 17.9246C5.84746 17.7096 5.9574 17.5121 6.11879 17.3571C6.28017 17.2021 6.48576 17.0966 6.70954 17.0539C6.93333 17.0112 7.16526 17.0333 7.37599 17.1174C7.58671 17.2014 7.76678 17.3436 7.8934 17.526C8.02002 17.7084 8.08751 17.9228 8.08733 18.1421C8.08709 18.4359 7.96547 18.7176 7.7492 18.9253C7.53294 19.133 7.23972 19.2496 6.93399 19.2496ZM10.0196 13.0927C9.79143 13.0927 9.56841 13.0277 9.37872 12.9058C9.18904 12.784 9.04121 12.6108 8.95395 12.4082C8.86668 12.2056 8.84389 11.9827 8.88847 11.7677C8.93304 11.5526 9.04298 11.3551 9.20437 11.2001C9.36576 11.0451 9.57134 10.9396 9.79513 10.897C10.0189 10.8543 10.2508 10.8764 10.4616 10.9604C10.6723 11.0444 10.8524 11.1866 10.979 11.3691C11.1056 11.5515 11.1731 11.7658 11.1729 11.9851C11.1727 12.2789 11.051 12.5607 10.8348 12.7683C10.6185 12.976 10.3253 13.0927 10.0196 13.0927ZM16.3966 13.0927C16.1685 13.0927 15.9455 13.0277 15.7558 12.9058C15.5661 12.784 15.4183 12.6108 15.331 12.4082C15.2437 12.2056 15.2209 11.9827 15.2655 11.7677C15.3101 11.5526 15.42 11.3551 15.5814 11.2001C15.7428 11.0451 15.9484 10.9396 16.1722 10.897C16.396 10.8543 16.6279 10.8764 16.8386 10.9604C17.0493 11.0444 17.2294 11.1866 17.356 11.3691C17.4827 11.5515 17.5501 11.7658 17.55 11.9851C17.5497 12.2782 17.4287 12.5592 17.2134 12.7668C16.9982 12.9744 16.7061 13.0915 16.4012 13.0927H16.3966Z" fill="#FF2424"/>
<path d="M16.4012 10.1272H15.2488V5.86845C15.25 5.44873 15.1037 5.0409 14.8337 4.71105C14.5636 4.3812 14.1856 4.14864 13.7609 4.05106C13.3361 3.95347 12.8895 3.99658 12.4935 4.1734C12.0974 4.35021 11.775 4.65038 11.5786 5.02526C11.3822 5.40013 11.3233 5.82776 11.4113 6.23886C11.4994 6.64997 11.7293 7.02045 12.0638 7.29029C12.3983 7.56013 12.8178 7.71353 13.2543 7.72562C13.6908 7.73771 14.1188 7.60778 14.4689 7.3569V10.1272H10.0196C9.76575 10.1272 9.51442 10.1752 9.27993 10.2686C9.04544 10.362 8.83238 10.4989 8.65295 10.6714C8.47351 10.8439 8.3312 11.0488 8.23415 11.2742C8.1371 11.4996 8.08721 11.7412 8.08733 11.9851C8.08733 11.9983 8.08733 12.0123 8.08733 12.0254V16.2841H6.93399C6.55235 16.284 6.1792 16.3924 5.86156 16.5957C5.54392 16.799 5.29601 17.0882 5.14905 17.4267C5.0021 17.7652 4.96269 18.1379 5.03579 18.4979C5.10889 18.8579 5.29122 19.1891 5.55981 19.4496C5.8284 19.7102 6.17124 19.8886 6.54511 19.9622C6.91898 20.0358 7.30716 20.0014 7.66074 19.8634C8.01432 19.7253 8.31747 19.4898 8.532 19.1864C8.74652 18.8831 8.86282 18.5255 8.86624 18.1587V17.0336H11.7724C11.5134 17.3689 11.3797 17.7784 11.3929 18.1958C11.4061 18.6132 11.5654 19.0142 11.8451 19.3337C12.1248 19.6533 12.5085 19.8729 12.9342 19.9568C13.3598 20.0408 13.8025 19.9843 14.1906 19.7965C14.5787 19.6087 14.8895 19.3006 15.0727 18.9219C15.256 18.5433 15.301 18.1163 15.2004 17.71C15.0998 17.3037 14.8596 16.942 14.5185 16.6832C14.1775 16.4244 13.7556 16.2838 13.3211 16.2841H8.86624V13.4736C9.238 13.7408 9.6975 13.8702 10.1605 13.8383C10.6235 13.8064 11.0591 13.6151 11.3873 13.2997C11.7156 12.9842 11.9146 12.5656 11.9478 12.1206C11.981 11.6756 11.8463 11.234 11.5683 10.8767H14.4689V12.0053C14.4727 12.3718 14.5893 12.729 14.8039 13.032C15.0185 13.335 15.3217 13.5702 15.6751 13.7079C16.0286 13.8456 16.4165 13.8797 16.7901 13.8059C17.1636 13.7321 17.5061 13.5537 17.7744 13.2932C18.0427 13.0327 18.2248 12.7017 18.2977 12.3419C18.3706 11.9821 18.3311 11.6097 18.1842 11.2714C18.0372 10.9332 17.7895 10.6443 17.472 10.4411C17.1546 10.238 16.7817 10.1296 16.4003 10.1298L16.4012 10.1272ZM13.3156 6.97515C13.0875 6.97515 12.8645 6.91014 12.6748 6.78835C12.4852 6.66655 12.3374 6.49343 12.2501 6.29088C12.1628 6.08834 12.1399 5.86547 12.1844 5.65044C12.2289 5.43542 12.3388 5.23791 12.5001 5.08289C12.6614 4.92787 12.8669 4.8223 13.0906 4.77953C13.3143 4.73676 13.5462 4.75871 13.757 4.84261C13.9677 4.92651 14.1478 5.06858 14.2746 5.25087C14.4013 5.43315 14.4689 5.64746 14.4689 5.8667C14.4691 6.01238 14.4393 6.15665 14.3814 6.29128C14.3235 6.42592 14.2386 6.54828 14.1315 6.65137C14.0244 6.75446 13.8972 6.83627 13.7572 6.89213C13.6172 6.94798 13.4672 6.97679 13.3156 6.97691V6.97515ZM14.4689 18.1421C14.4689 18.3613 14.4013 18.5756 14.2746 18.7579C14.1478 18.9402 13.9677 19.0822 13.757 19.1661C13.5462 19.25 13.3143 19.272 13.0906 19.2292C12.8669 19.1865 12.6614 19.0809 12.5001 18.9259C12.3388 18.7708 12.2289 18.5733 12.1844 18.3583C12.1399 18.1433 12.1628 17.9204 12.2501 17.7179C12.3374 17.5153 12.4852 17.3422 12.6748 17.2204C12.8645 17.0986 13.0875 17.0336 13.3156 17.0336C13.6214 17.0338 13.9146 17.1507 14.1309 17.3585C14.3471 17.5663 14.4687 17.8482 14.4689 18.1421ZM6.93399 19.2496C6.70585 19.2496 6.48283 19.1846 6.29314 19.0628C6.10346 18.9409 5.95563 18.7678 5.86836 18.5652C5.7811 18.3626 5.75831 18.1397 5.80289 17.9246C5.84746 17.7096 5.9574 17.5121 6.11879 17.3571C6.28017 17.2021 6.48576 17.0966 6.70954 17.0539C6.93333 17.0112 7.16526 17.0333 7.37599 17.1174C7.58671 17.2014 7.76678 17.3436 7.8934 17.526C8.02002 17.7084 8.08751 17.9228 8.08733 18.1421C8.08709 18.4359 7.96547 18.7176 7.7492 18.9253C7.53294 19.133 7.23972 19.2496 6.93399 19.2496ZM10.0196 13.0927C9.79143 13.0927 9.56841 13.0277 9.37872 12.9058C9.18904 12.784 9.04121 12.6108 8.95395 12.4082C8.86668 12.2056 8.84389 11.9827 8.88847 11.7677C8.93304 11.5526 9.04298 11.3551 9.20437 11.2001C9.36576 11.0451 9.57134 10.9396 9.79513 10.897C10.0189 10.8543 10.2508 10.8764 10.4616 10.9604C10.6723 11.0444 10.8524 11.1866 10.979 11.3691C11.1056 11.5515 11.1731 11.7658 11.1729 11.9851C11.1727 12.2789 11.051 12.5607 10.8348 12.7683C10.6185 12.976 10.3253 13.0927 10.0196 13.0927ZM16.3966 13.0927C16.1685 13.0927 15.9455 13.0277 15.7558 12.9058C15.5661 12.784 15.4183 12.6108 15.331 12.4082C15.2437 12.2056 15.2209 11.9827 15.2655 11.7677C15.3101 11.5526 15.42 11.3551 15.5814 11.2001C15.7428 11.0451 15.9484 10.9396 16.1722 10.897C16.396 10.8543 16.6279 10.8764 16.8386 10.9604C17.0493 11.0444 17.2294 11.1866 17.356 11.3691C17.4827 11.5515 17.5501 11.7658 17.55 11.9851C17.5497 12.2782 17.4287 12.5592 17.2134 12.7668C16.9982 12.9744 16.7061 13.0915 16.4012 13.0927H16.3966Z" stroke="#FF2424" stroke-width="0.4" mask="url(#path-1-outside-1_2421_7990)"/>
</svg>
