<svg width="126" height="32" viewBox="0 0 126 32" fill="none" xmlns="http://www.w3.org/2000/svg">
<g clip-path="url(#clip0_2435_8648)">
<path d="M50.6816 7.3687V24.262H48.5877V10.1681L44.4509 24.262H39.277L35.1401 10.1681V24.262H33.0518V7.3687H36.3312L40.8469 22.4253H42.8954L47.4094 7.36523L50.6816 7.3687Z" fill="#FF2424"/>
<path d="M54.2617 7.37012H56.2794V9.59192H54.2617V7.37012ZM54.2617 12.1727H56.2794V24.2635H54.2617V12.1727Z" fill="#FF2424"/>
<path d="M68.9456 15.5047V24.2636H66.9261V16.1118C66.9261 14.641 66.2209 13.5535 64.5549 13.5535C62.9234 13.5535 61.629 14.6409 61.629 16.4742V24.2688H59.6113V12.1729H61.629V13.6697C62.0084 13.0912 62.5376 12.6163 63.1651 12.2908C63.7927 11.9654 64.4974 11.8005 65.2112 11.8121C67.2035 11.8121 68.9456 13.0609 68.9456 15.5047Z" fill="#FF2424"/>
<path d="M72.88 20.7891V13.9103H71.2158V12.1759H72.9054V9.15625H74.8995V12.1724H77.7004V13.9069H74.8995V20.737C74.8995 22.3535 75.6065 22.716 76.7667 22.716H77.8291V24.4504H76.7414C74.6457 24.4574 72.88 24.022 72.88 20.7891Z" fill="#FF2424"/>
<path d="M89.5286 16.0353V20.4026C89.5286 22.9123 87.8373 24.6259 85.4914 24.6259C84.0539 24.6259 82.7921 24.0224 82.212 23.1066V24.2635H80.1943V7.37012H82.212V13.3313C82.7921 12.4138 84.0539 11.812 85.4914 11.812C87.8373 11.812 89.5286 13.5239 89.5286 16.0353ZM87.5091 16.1793C87.5091 14.4171 86.3997 13.5481 84.8606 13.5481C83.3215 13.5481 82.212 14.4154 82.212 16.1793V20.2587C82.212 22.0191 83.3233 22.888 84.8606 22.888C86.3979 22.888 87.5091 22.0208 87.5091 20.2587V16.1793Z" fill="#FF2424"/>
<path d="M101.685 12.1723V24.263H99.6673V23.1061C99.0872 24.0219 97.8255 24.6255 96.3879 24.6255C94.0421 24.6255 92.3525 22.9119 92.3525 20.4021V16.0349C92.3525 13.5234 94.0421 11.8115 96.3879 11.8115C97.8255 11.8115 99.0872 12.4134 99.6673 13.3309V12.1723H101.685ZM99.6673 20.2582V16.1823C99.6673 14.4201 98.5579 13.5512 97.0188 13.5512C95.4797 13.5512 94.3702 14.4184 94.3702 16.1823V20.2582C94.3702 22.0186 95.4815 22.8876 97.0188 22.8876C98.5561 22.8876 99.6673 22.0186 99.6673 20.2582Z" fill="#FF2424"/>
<path d="M104.639 20.4022V20.0171H106.653V20.475C106.653 22.0672 107.635 22.8876 109.452 22.8876C110.612 22.8876 111.899 22.5511 111.899 21.1982C111.899 19.92 110.889 19.5575 108.872 18.9539C106.424 18.2306 104.811 17.5299 104.811 15.3584C104.811 12.6319 107.358 11.8115 109.301 11.8115C111.444 11.8115 113.766 12.8522 113.766 15.6273V16.1823H111.747V15.6758C111.747 14.0108 110.462 13.5512 109.251 13.5512C107.938 13.5512 106.879 14.0836 106.879 15.1937C106.879 16.3765 108.116 16.7546 109.78 17.2438C112.428 17.993 113.968 18.862 113.968 21.1063C113.968 23.7843 111.596 24.629 109.376 24.629C106.529 24.6255 104.639 23.2258 104.639 20.4022Z" fill="#FF2424"/>
<path d="M118.617 18.8342V20.1611C118.617 21.8018 119.678 22.8876 121.266 22.8876C122.906 22.8876 123.914 22.0429 123.914 20.4021H125.932C125.932 23.2501 124.166 24.6255 121.266 24.6255C118.467 24.6255 116.6 22.9361 116.6 20.3779V16.0591C116.6 13.5009 118.467 11.8115 121.266 11.8115C124.065 11.8115 125.932 13.5009 125.932 16.0591V18.8342H118.617ZM118.617 16.2759V17.3374H123.914V16.2759C123.914 14.6352 122.856 13.5477 121.266 13.5477C119.676 13.5477 118.617 14.6352 118.617 16.2759Z" fill="#FF2424"/>
<path d="M22.6836 12.1141H20.3903V3.67783C20.3928 2.84639 20.1017 2.03852 19.5644 1.3851C19.027 0.731689 18.2747 0.27101 17.4295 0.0777042C16.5843 -0.115601 15.6956 -0.0302067 14.9075 0.320052C14.1193 0.670311 13.4779 1.26492 13.0871 2.00753C12.6962 2.75014 12.5789 3.59724 12.7541 4.41161C12.9294 5.22597 13.3869 5.95987 14.0525 6.49441C14.7181 7.02895 15.5529 7.33282 16.4215 7.35676C17.2902 7.38071 18.1419 7.12334 18.8385 6.62636V12.1141H9.98466C9.47957 12.1141 8.97944 12.2093 8.51282 12.3943C8.0462 12.5793 7.62224 12.8504 7.26518 13.1922C6.90811 13.534 6.62492 13.9397 6.4318 14.3862C6.23867 14.8328 6.1394 15.3113 6.13964 15.7945C6.13964 15.8206 6.13964 15.8483 6.13964 15.8743V24.3106H3.84459C3.08516 24.3103 2.34261 24.525 1.71053 24.9278C1.07845 25.3306 0.585121 25.9033 0.292701 26.5739C0.000281207 27.2445 -0.0781418 27.9828 0.0673141 28.696C0.21277 29.4091 0.575594 30.0651 1.11007 30.5813C1.64455 31.0975 2.32676 31.4507 3.07074 31.5966C3.81472 31.7424 4.58717 31.6743 5.29077 31.4009C5.99436 31.1274 6.59761 30.6608 7.0245 30.0599C7.45139 29.4589 7.68281 28.7506 7.68961 28.024V25.7953H13.4726C12.9572 26.4595 12.6911 27.2707 12.7174 28.0975C12.7437 28.9244 13.0608 29.7186 13.6174 30.3517C14.174 30.9848 14.9375 31.4196 15.7845 31.586C16.6315 31.7524 17.5124 31.6405 18.2846 31.2684C19.0569 30.8964 19.6754 30.286 20.0401 29.5359C20.4047 28.7858 20.4943 27.94 20.2941 27.1352C20.094 26.3304 19.6159 25.6137 18.9372 25.1011C18.2586 24.5886 17.419 24.31 16.5544 24.3106H7.68961V18.7431C8.42939 19.2724 9.34375 19.5289 10.2651 19.4656C11.1865 19.4023 12.0532 19.0235 12.7064 18.3986C13.3596 17.7736 13.7555 16.9444 13.8217 16.0629C13.8878 15.1814 13.6197 14.3065 13.0665 13.5988H18.8385V15.8344C18.8461 16.5605 19.078 17.2682 19.5051 17.8684C19.9322 18.4686 20.5354 18.9344 21.2388 19.2072C21.9421 19.48 22.714 19.5476 23.4574 19.4014C24.2008 19.2553 24.8824 18.9019 25.4162 18.3858C25.9501 17.8697 26.3124 17.214 26.4575 16.5013C26.6026 15.7886 26.524 15.0508 26.2316 14.3807C25.9392 13.7107 25.4461 13.1384 24.8144 12.736C24.1827 12.3336 23.4407 12.119 22.6818 12.1193L22.6836 12.1141ZM16.5435 5.87014C16.0896 5.87014 15.6459 5.74137 15.2684 5.50009C14.891 5.25881 14.5969 4.91588 14.4232 4.51465C14.2494 4.11342 14.204 3.67193 14.2925 3.24598C14.3811 2.82004 14.5997 2.42879 14.9207 2.1217C15.2416 1.81462 15.6506 1.60549 16.0958 1.52077C16.541 1.43604 17.0024 1.47953 17.4218 1.64572C17.8411 1.81191 18.1996 2.09335 18.4518 2.45445C18.7039 2.81554 18.8385 3.24008 18.8385 3.67436C18.8388 3.96294 18.7796 4.24874 18.6644 4.51544C18.5492 4.78215 18.3802 5.02453 18.1671 5.22875C17.954 5.43297 17.7009 5.59503 17.4223 5.70567C17.1438 5.81632 16.8451 5.87339 16.5435 5.87362V5.87014ZM18.8385 27.9911C18.8385 28.4253 18.7039 28.8499 18.4518 29.211C18.1996 29.5721 17.8411 29.8535 17.4218 30.0197C17.0024 30.1859 16.541 30.2294 16.0958 30.1446C15.6506 30.0599 15.2416 29.8508 14.9207 29.5437C14.5997 29.2366 14.3811 28.8454 14.2925 28.4194C14.204 27.9935 14.2494 27.552 14.4232 27.1508C14.5969 26.7495 14.891 26.4066 15.2684 26.1653C15.6459 25.924 16.0896 25.7953 16.5435 25.7953C17.152 25.7957 17.7355 26.0272 18.1658 26.4389C18.5961 26.8506 18.8381 27.4088 18.8385 27.9911ZM3.84459 30.1851C3.3906 30.1851 2.9468 30.0563 2.56934 29.8149C2.19189 29.5736 1.89772 29.2305 1.72407 28.8292C1.55042 28.4279 1.50507 27.9863 1.59377 27.5603C1.68248 27.1343 1.90124 26.7431 2.22239 26.436C2.54354 26.129 2.95264 25.92 3.39796 25.8355C3.84327 25.751 4.30479 25.7947 4.72412 25.9612C5.14346 26.1276 5.50177 26.4093 5.75373 26.7707C6.0057 27.132 6.13999 27.5567 6.13964 27.9911C6.13915 28.5731 5.89715 29.1312 5.46679 29.5426C5.03644 29.954 4.45296 30.1851 3.84459 30.1851ZM9.98466 17.9886C9.53067 17.9886 9.08687 17.8598 8.70942 17.6184C8.33196 17.3771 8.0378 17.034 7.86414 16.6327C7.69049 16.2314 7.64514 15.7898 7.73384 15.3638C7.82255 14.9378 8.04131 14.5466 8.36246 14.2395C8.68361 13.9325 9.09271 13.7235 9.53803 13.639C9.98334 13.5545 10.4449 13.5982 10.8642 13.7647C11.2835 13.9311 11.6418 14.2128 11.8938 14.5742C12.1458 14.9355 12.2801 15.3602 12.2797 15.7945C12.2792 16.3766 12.0372 16.9347 11.6069 17.3461C11.1765 17.7575 10.593 17.9886 9.98466 17.9886ZM22.6745 17.9886C22.2205 17.9886 21.7767 17.8598 21.3993 17.6184C21.0218 17.3771 20.7276 17.034 20.554 16.6327C20.3803 16.2314 20.335 15.7898 20.4237 15.3638C20.5124 14.9378 20.7312 14.5466 21.0523 14.2395C21.3735 13.9325 21.7826 13.7235 22.2279 13.639C22.6732 13.5545 23.1347 13.5982 23.554 13.7647C23.9734 13.9311 24.3317 14.2128 24.5836 14.5742C24.8356 14.9355 24.9699 15.3602 24.9695 15.7945C24.9691 16.3751 24.7283 16.9319 24.2999 17.343C23.8715 17.7542 23.2904 17.9863 22.6836 17.9886H22.6745Z" fill="#FF2424"/>
</g>
<defs>
<clipPath id="clip0_2435_8648">
<rect width="125.929" height="31.6707" fill="white"/>
</clipPath>
</defs>
</svg>
