<svg width="114" height="29" viewBox="0 0 114 29" fill="none" xmlns="http://www.w3.org/2000/svg">
<g clip-path="url(#clip0_2421_8590)">
<path d="M45.8807 6.67111V21.9642H43.9852V9.2053L40.2402 21.9642H35.5565L31.8115 9.2053V21.9642H29.9209V6.67111H32.8897L36.9777 20.3014H38.8321L42.9185 6.66797L45.8807 6.67111Z" fill="white"/>
<path d="M49.1221 6.67188H50.9486V8.68322H49.1221V6.67188ZM49.1221 11.0196H50.9486V21.965H49.1221V11.0196Z" fill="white"/>
<path d="M62.4149 14.0357V21.9649H60.5867V14.5853C60.5867 13.2538 59.9483 12.2693 58.4402 12.2693C56.9632 12.2693 55.7914 13.2538 55.7914 14.9134V21.9696H53.9648V11.0195H55.7914V12.3745C56.1349 11.8508 56.6139 11.4209 57.182 11.1263C57.7501 10.8317 58.3881 10.6824 59.0342 10.6929C60.8378 10.6929 62.4149 11.8234 62.4149 14.0357Z" fill="white"/>
<path d="M65.9763 18.82V12.5928H64.4697V11.0227H65.9993V8.28906H67.8045V11.0195H70.34V12.5897H67.8045V18.7729C67.8045 20.2362 68.4445 20.5644 69.4948 20.5644H70.4565V22.1345H69.4719C67.5747 22.1408 65.9763 21.7467 65.9763 18.82Z" fill="white"/>
<path d="M81.0478 14.5163V18.4699C81.0478 20.7419 79.5166 22.2931 77.393 22.2931C76.0916 22.2931 74.9494 21.7467 74.4242 20.9177V21.965H72.5977V6.67188H74.4242V12.0684C74.9494 11.2378 76.0916 10.693 77.393 10.693C79.5166 10.693 81.0478 12.2427 81.0478 14.5163ZM79.2196 14.6466C79.2196 13.0513 78.2152 12.2647 76.8219 12.2647C75.4286 12.2647 74.4242 13.0498 74.4242 14.6466V18.3395C74.4242 19.9332 75.4302 20.7199 76.8219 20.7199C78.2136 20.7199 79.2196 19.9348 79.2196 18.3395V14.6466Z" fill="white"/>
<path d="M92.053 11.019V21.9644H90.2264V20.9171C89.7012 21.7461 88.559 22.2925 87.2576 22.2925C85.134 22.2925 83.6045 20.7412 83.6045 18.4693V14.5157C83.6045 12.2421 85.134 10.6924 87.2576 10.6924C88.559 10.6924 89.7012 11.2372 90.2264 12.0678V11.019H92.053ZM90.2264 18.3389V14.6491C90.2264 13.0539 89.222 12.2672 87.8287 12.2672C86.4354 12.2672 85.4311 13.0523 85.4311 14.6491V18.3389C85.4311 19.9326 86.4371 20.7193 87.8287 20.7193C89.2204 20.7193 90.2264 19.9326 90.2264 18.3389Z" fill="white"/>
<path d="M94.7266 18.4693V18.1207H96.5498V18.5352C96.5498 19.9766 97.4393 20.7193 99.0837 20.7193C100.134 20.7193 101.299 20.4147 101.299 19.19C101.299 18.0328 100.385 17.7046 98.5586 17.1582C96.3431 16.5034 94.8825 15.8691 94.8825 13.9033C94.8825 11.4351 97.1882 10.6924 98.9475 10.6924C100.887 10.6924 102.99 11.6345 102.99 14.1467V14.6491H101.161V14.1906C101.161 12.6833 99.9978 12.2672 98.9016 12.2672C97.7134 12.2672 96.755 12.7493 96.755 13.7541C96.755 14.825 97.8742 15.1673 99.3808 15.61C101.778 16.2883 103.172 17.075 103.172 19.1067C103.172 21.531 101.025 22.2957 99.0148 22.2957C96.4382 22.2925 94.7266 21.0254 94.7266 18.4693Z" fill="white"/>
<path d="M107.381 17.0499V18.251C107.381 19.7364 108.341 20.7193 109.779 20.7193C111.264 20.7193 112.177 19.9546 112.177 18.4693H114.003C114.003 21.0474 112.405 22.2925 109.779 22.2925C107.245 22.2925 105.555 20.7632 105.555 18.4473V14.5376C105.555 12.2217 107.245 10.6924 109.779 10.6924C112.313 10.6924 114.003 12.2217 114.003 14.5376V17.0499H107.381ZM107.381 14.7339V15.6948H112.177V14.7339C112.177 13.2486 111.218 12.2641 109.779 12.2641C108.34 12.2641 107.381 13.2486 107.381 14.7339Z" fill="white"/>
<path d="M20.5345 10.9663H18.4585V3.32918C18.4607 2.5765 18.1972 1.84516 17.7108 1.25363C17.2243 0.662113 16.5433 0.245071 15.7782 0.0700767C15.013 -0.104918 14.2085 -0.0276124 13.495 0.289468C12.7815 0.606549 12.2008 1.14483 11.847 1.8171C11.4932 2.48936 11.387 3.25623 11.5456 3.99345C11.7043 4.73067 12.1184 5.39506 12.721 5.87896C13.3236 6.36287 14.0792 6.63795 14.8656 6.65963C15.652 6.68131 16.423 6.44832 17.0537 5.99841V10.9663H9.0385C8.58125 10.9663 8.12849 11.0525 7.70607 11.22C7.28365 11.3874 6.89986 11.6329 6.57661 11.9423C6.25337 12.2517 5.99701 12.619 5.82218 13.0232C5.64735 13.4275 5.55747 13.8607 5.55769 14.2981C5.55769 14.3217 5.55769 14.3468 5.55769 14.3704V22.0075H3.48004C2.79254 22.0072 2.12033 22.2016 1.54813 22.5663C0.975923 22.9309 0.529326 23.4494 0.264605 24.0564C-0.00011545 24.6635 -0.0711099 25.3319 0.0605678 25.9775C0.192245 26.6231 0.520701 27.2169 1.00455 27.6842C1.4884 28.1515 2.10599 28.4713 2.77949 28.6033C3.453 28.7354 4.15228 28.6737 4.78923 28.4262C5.42617 28.1786 5.97228 27.7562 6.35873 27.2122C6.74518 26.6682 6.95468 26.0269 6.96084 25.3692V23.3515H12.196C11.7295 23.9529 11.4886 24.6872 11.5124 25.4357C11.5362 26.1843 11.8232 26.9033 12.3271 27.4764C12.831 28.0495 13.5222 28.4432 14.2889 28.5938C15.0557 28.7444 15.8531 28.6431 16.5523 28.3063C17.2514 27.9695 17.8113 27.4169 18.1414 26.7378C18.4715 26.0588 18.5526 25.2931 18.3714 24.5645C18.1902 23.836 17.7574 23.1872 17.143 22.7232C16.5287 22.2591 15.7686 22.007 14.9859 22.0075H6.96084V16.9674C7.63054 17.4465 8.45829 17.6787 9.2924 17.6214C10.1265 17.5642 10.9111 17.2212 11.5024 16.6555C12.0937 16.0898 12.4522 15.3391 12.512 14.5411C12.5719 13.743 12.3292 12.9511 11.8284 12.3103H17.0537V14.3343C17.0605 14.9915 17.2704 15.6322 17.6571 16.1755C18.0438 16.7189 18.5898 17.1406 19.2265 17.3875C19.8632 17.6345 20.5621 17.6957 21.2351 17.5634C21.908 17.431 22.525 17.1111 23.0083 16.6439C23.4916 16.1768 23.8196 15.5832 23.9509 14.938C24.0823 14.2928 24.0111 13.6248 23.7464 13.0183C23.4818 12.4117 23.0354 11.8936 22.4635 11.5293C21.8916 11.165 21.2199 10.9708 20.5329 10.971L20.5345 10.9663ZM14.976 5.31383C14.5651 5.31383 14.1634 5.19725 13.8218 4.97883C13.4801 4.76041 13.2138 4.44995 13.0566 4.08673C12.8993 3.72351 12.8581 3.32384 12.9383 2.93824C13.0185 2.55265 13.2164 2.19845 13.5069 1.92046C13.7975 1.64246 14.1677 1.45314 14.5707 1.37644C14.9737 1.29975 15.3915 1.33911 15.7711 1.48956C16.1508 1.64001 16.4753 1.89479 16.7036 2.22168C16.9318 2.54857 17.0537 2.93289 17.0537 3.32604C17.0539 3.58729 17.0003 3.84601 16.896 4.08745C16.7918 4.32889 16.6388 4.54831 16.4458 4.73319C16.2529 4.91806 16.0238 5.06477 15.7716 5.16494C15.5194 5.2651 15.2491 5.31677 14.976 5.31697V5.31383ZM17.0537 25.3393C17.0537 25.7325 16.9318 26.1168 16.7036 26.4437C16.4753 26.7706 16.1508 27.0254 15.7711 27.1758C15.3915 27.3263 14.9737 27.3656 14.5707 27.2889C14.1677 27.2122 13.7975 27.0229 13.5069 26.7449C13.2164 26.4669 13.0185 26.1127 12.9383 25.7271C12.8581 25.3415 12.8993 24.9419 13.0566 24.5786C13.2138 24.2154 13.4801 23.905 13.8218 23.6865C14.1634 23.4681 14.5651 23.3515 14.976 23.3515C15.5269 23.352 16.0551 23.5615 16.4447 23.9342C16.8342 24.3069 17.0533 24.8123 17.0537 25.3393ZM3.48004 27.3256C3.06905 27.3256 2.6673 27.2089 2.32559 26.9904C1.98389 26.7719 1.71759 26.4614 1.56039 26.0981C1.40318 25.7348 1.36213 25.335 1.44243 24.9494C1.52273 24.5638 1.72078 24.2096 2.0115 23.9316C2.30223 23.6537 2.67258 23.4645 3.07571 23.388C3.47885 23.3115 3.89665 23.351 4.27626 23.5017C4.65587 23.6524 4.98024 23.9075 5.20834 24.2345C5.43644 24.5616 5.55801 24.9461 5.55769 25.3393C5.55725 25.8663 5.33817 26.3715 4.94858 26.7439C4.55899 27.1163 4.03079 27.3256 3.48004 27.3256ZM9.0385 16.2844C8.62751 16.2844 8.22575 16.1677 7.88405 15.9493C7.54234 15.7308 7.27604 15.4202 7.11884 15.0569C6.96164 14.6936 6.92059 14.2938 7.00089 13.9082C7.08119 13.5226 7.27923 13.1684 7.56996 12.8904C7.86069 12.6125 8.23103 12.4233 8.63417 12.3468C9.0373 12.2703 9.4551 12.3098 9.83471 12.4605C10.2143 12.6112 10.5387 12.8663 10.7668 13.1934C10.9949 13.5205 11.1165 13.9049 11.1161 14.2981C11.1157 14.8251 10.8966 15.3303 10.507 15.7027C10.1174 16.0752 9.58924 16.2844 9.0385 16.2844ZM20.5263 16.2844C20.1153 16.2844 19.7135 16.1677 19.3718 15.9493C19.0301 15.7308 18.7638 15.4202 18.6066 15.0569C18.4494 14.6936 18.4084 14.2938 18.4887 13.9082C18.569 13.5226 18.767 13.1684 19.0578 12.8904C19.3485 12.6125 19.7188 12.4233 20.122 12.3468C20.5251 12.2703 20.9429 12.3098 21.3225 12.4605C21.7021 12.6112 22.0265 12.8663 22.2546 13.1934C22.4827 13.5205 22.6043 13.9049 22.6039 14.2981C22.6035 14.8237 22.3856 15.3277 21.9977 15.6999C21.6099 16.0722 21.0838 16.2823 20.5345 16.2844H20.5263Z" fill="white"/>
</g>
<defs>
<clipPath id="clip0_2421_8590">
<rect width="114" height="28.6707" fill="white"/>
</clipPath>
</defs>
</svg>
