<svg width="417" height="312" viewBox="0 0 417 312" fill="none" xmlns="http://www.w3.org/2000/svg">
<mask id="mask0_2951_16791" style="mask-type:alpha" maskUnits="userSpaceOnUse" x="0" y="0" width="417" height="312">
<rect width="417" height="312" rx="6" fill="#0D0D0F"/>
</mask>
<g mask="url(#mask0_2951_16791)">
<path fill-rule="evenodd" clip-rule="evenodd" d="M608.182 156.001C608.141 155.999 608.1 155.999 608.06 156.001H541.471C541.431 155.999 541.39 155.999 541.35 156.001H474.763C474.724 155.999 474.684 155.999 474.645 156.001H408.046C408.01 155.999 407.973 155.999 407.937 156.001L341.328 156.001C341.294 156 341.26 156 341.227 156.001L274.628 156.001C274.589 155.999 274.549 155.999 274.51 156.001H207.911C207.894 156 207.878 156 207.861 156C207.844 156 207.826 156 207.809 156.001H141.21C141.17 155.999 141.131 155.999 141.092 156.001L74.4873 156.001C74.4536 156 74.4199 156 74.3862 156.001L7.78464 156.001C7.74805 155.999 7.7114 155.999 7.67471 156.001H-58.925C-58.9643 155.999 -59.0038 155.999 -59.0434 156.001H-125.635C-125.675 155.999 -125.716 155.999 -125.756 156.001H-192.338C-192.378 155.999 -192.419 155.999 -192.46 156.001H-259.05C-259.09 155.999 -259.13 155.999 -259.171 156.001H-325.762C-325.802 155.999 -325.842 155.999 -325.882 156.001H-392.475C-392.514 155.999 -392.553 155.999 -392.593 156.001H-441.5C-442.329 156.001 -443 156.672 -443 157.501C-443 158.329 -442.329 159.001 -441.5 159.001H-406.188L-423.842 162.928H-441.5C-442.329 162.928 -443 163.6 -443 164.429C-443 165.257 -442.329 165.928 -441.5 165.928H-437.325L-441.826 166.93C-442.635 167.11 -443.144 167.911 -442.964 168.72C-442.784 169.528 -441.983 170.038 -441.174 169.858L-423.512 165.928H-365.682L-384.408 170.615H-441.5C-442.329 170.615 -443 171.287 -443 172.115C-443 172.943 -442.329 173.615 -441.5 173.615H-396.396L-418.67 179.189H-441.5C-442.329 179.189 -443 179.861 -443 180.689C-443 181.518 -442.329 182.189 -441.5 182.189H-430.658L-441.864 184.994C-442.668 185.195 -443.156 186.009 -442.955 186.813C-442.754 187.617 -441.94 188.105 -441.136 187.904L-418.3 182.189H-350.889L-374.059 188.816H-441.5C-442.329 188.816 -443 189.488 -443 190.316C-443 191.145 -442.329 191.816 -441.5 191.816H-384.549L-412.127 199.704H-441.5C-442.329 199.704 -443 200.375 -443 201.204C-443 202.032 -442.329 202.704 -441.5 202.704H-422.616L-441.913 208.223C-442.709 208.451 -443.17 209.281 -442.942 210.078C-442.714 210.874 -441.884 211.335 -441.088 211.107L-411.706 202.704H-332.613L-360.836 212.121H-441.5C-442.329 212.121 -443 212.792 -443 213.621C-443 214.449 -442.329 215.121 -441.5 215.121H-369.827L-403.642 226.404H-441.5C-442.329 226.404 -443 227.076 -443 227.904C-443 228.733 -442.329 229.404 -441.5 229.404H-412.633L-441.975 239.195C-442.761 239.457 -443.185 240.306 -442.923 241.092C-442.661 241.878 -441.811 242.302 -441.025 242.04L-403.155 229.404H-309.317L-343.298 243.01H-441.5C-442.329 243.01 -443 243.681 -443 244.51C-443 245.338 -442.329 246.01 -441.5 246.01H-350.791L-392.123 262.558H-441.5C-442.329 262.558 -443 263.23 -443 264.058C-443 264.887 -442.329 265.558 -441.5 265.558H-399.615L-442.058 282.552C-442.827 282.86 -443.201 283.733 -442.893 284.502C-442.585 285.271 -441.712 285.645 -440.943 285.337L-391.544 265.558H-278.264L-318.944 285.916H-441.5C-442.329 285.916 -443 286.587 -443 287.416C-443 288.244 -442.329 288.916 -441.5 288.916H-324.939L-375.664 314.301H-441.5C-442.329 314.301 -443 314.972 -443 315.801C-443 316.629 -442.329 317.301 -441.5 317.301H-381.659L-442.171 347.583C-442.912 347.954 -443.212 348.855 -442.841 349.596C-442.767 349.744 -442.672 349.874 -442.561 349.985C-442.832 350.257 -443 350.632 -443 351.046C-443 351.874 -442.329 352.546 -441.5 352.546H-287.33L-350.161 394.464H-441.5C-442.329 394.464 -443 395.135 -443 395.964C-443 396.792 -442.329 397.464 -441.5 397.464H-354.658L-438.923 453.68H-441.5C-442.329 453.68 -443 454.352 -443 455.18C-443 455.57 -442.852 455.925 -442.608 456.192C-443.063 456.689 -443.139 457.45 -442.748 458.036C-442.288 458.725 -441.357 458.911 -440.668 458.451L-438.014 456.68H-226.734L-305.335 535.316H-441.5C-442.329 535.316 -443 535.988 -443 536.816C-443 537.645 -442.329 538.316 -441.5 538.316H-308.334L-442.284 672.324C-442.869 672.91 -442.869 673.86 -442.283 674.446C-442.147 674.582 -441.99 674.687 -441.823 674.76C-441.639 674.841 -441.435 674.886 -441.221 674.886H856.057C856.886 674.886 857.557 674.214 857.557 673.386C857.557 672.944 857.367 672.547 857.063 672.272L723.395 538.316H857.448C858.276 538.316 858.948 537.645 858.948 536.816C858.948 535.988 858.276 535.316 857.448 535.316H720.401L641.934 456.68H853.218L856.615 458.949C857.304 459.41 858.236 459.224 858.696 458.535C859.156 457.846 858.971 456.915 858.282 456.455L858.261 456.441C858.674 456.174 858.948 455.709 858.948 455.18C858.948 454.352 858.276 453.68 857.448 453.68H854.128L769.961 397.464H857.448C858.276 397.464 858.948 396.792 858.948 395.964C858.948 395.135 858.276 394.464 857.448 394.464H765.47L702.711 352.546H857.448C858.276 352.546 858.948 351.874 858.948 351.046C858.948 350.7 858.831 350.381 858.634 350.127C858.693 350.051 858.746 349.967 858.791 349.878C859.162 349.137 858.862 348.236 858.121 347.865L797.099 317.301H857.448C858.276 317.301 858.948 316.629 858.948 315.801C858.948 314.972 858.276 314.301 857.448 314.301H791.109L740.428 288.916H857.448C858.276 288.916 858.948 288.244 858.948 287.416C858.948 286.587 858.276 285.916 857.448 285.916H734.438L693.794 265.558H807.089L856.893 285.512C857.662 285.82 858.535 285.446 858.843 284.677C859.151 283.908 858.777 283.035 858.008 282.727L815.156 265.558H857.448C858.276 265.558 858.948 264.887 858.948 264.058C858.948 263.23 858.276 262.558 857.448 262.558H807.668L766.362 246.01H857.448C858.276 246.01 858.948 245.338 858.948 244.51C858.948 243.681 858.276 243.01 857.448 243.01H758.875L724.915 229.404H818.748L856.974 242.167C857.76 242.429 858.61 242.005 858.872 241.219C859.135 240.433 858.71 239.584 857.924 239.321L828.221 229.404H857.448C858.276 229.404 858.948 228.733 858.948 227.904C858.948 227.076 858.276 226.404 857.448 226.404H819.235L785.441 215.121H857.448C858.276 215.121 858.948 214.449 858.948 213.621C858.948 212.792 858.276 212.121 857.448 212.121H776.455L748.25 202.704H827.343L857.037 211.202C857.834 211.43 858.664 210.969 858.892 210.172C859.12 209.376 858.659 208.545 857.863 208.318L838.247 202.704H857.448C858.276 202.704 858.948 202.032 858.948 201.204C858.948 200.375 858.276 199.704 857.448 199.704H827.763L800.201 191.816H857.448C858.276 191.816 858.948 191.145 858.948 190.316C858.948 189.488 858.276 188.816 857.448 188.816H789.718L766.56 182.189H833.987L857.087 187.972C857.89 188.174 858.705 187.685 858.906 186.882C859.107 186.078 858.619 185.263 857.815 185.062L846.34 182.189H857.448C858.276 182.189 858.948 181.518 858.948 180.689C858.948 179.861 858.276 179.189 857.448 179.189H834.357L812.092 173.615H857.448C858.276 173.615 858.948 172.943 858.948 172.115C858.948 171.287 858.276 170.615 857.448 170.615H800.109L781.39 165.928H839.22L857.122 169.912C857.931 170.092 858.732 169.583 858.912 168.774C859.092 167.965 858.583 167.164 857.774 166.984L853.03 165.928H857.448C858.276 165.928 858.948 165.257 858.948 164.429C858.948 163.6 858.276 162.928 857.448 162.928H839.549L821.9 159.001H857.448C858.276 159.001 858.948 158.329 858.948 157.501C858.948 156.672 858.276 156.001 857.448 156.001H808.307C808.268 155.999 808.229 155.999 808.189 156.001H741.605C741.565 155.999 741.526 155.999 741.486 156.001H674.894C674.853 155.999 674.813 155.999 674.773 156.001H608.182ZM760.068 394.464L697.309 352.546H538.023L579.851 394.464H760.068ZM575.613 394.464L533.785 352.546H373.475L394.371 394.464H575.613ZM395.867 397.464H578.607L634.703 453.68H423.89L395.867 397.464ZM391.019 394.464L370.123 352.546H209.191L209.155 394.464H391.019ZM209.152 397.464H392.514L420.538 453.68H209.103L209.152 397.464ZM206.155 394.464L206.191 352.546H45.2618L24.2937 394.464H206.155ZM22.7931 397.464H206.152L206.103 453.68H-5.32751L22.7931 397.464ZM20.9393 394.464L41.9074 352.546H-118.403L-160.303 394.464H20.9393ZM-163.301 397.464H19.4387L-8.68192 453.68H-219.494L-163.301 397.464ZM-164.544 394.464L-122.645 352.546H-281.924L-344.756 394.464H-164.544ZM-349.252 397.464H-167.543L-223.735 453.68H-433.517L-349.252 397.464ZM582.845 397.464H764.56L848.727 453.68H638.941L582.845 397.464ZM-282.833 349.546H-439.39L-374.955 317.301H-234.5L-282.833 349.546ZM-277.427 349.546H-119.646L-87.415 317.301H-229.094L-277.427 349.546ZM-115.404 349.546H43.408L59.5376 317.301H-83.1733L-115.404 349.546ZM46.7624 349.546H206.194L206.221 317.301H62.892L46.7624 349.546ZM209.194 349.546H368.628L352.554 317.301H209.221L209.194 349.546ZM371.98 349.546H530.791L498.616 317.301H355.906L371.98 349.546ZM535.03 349.546H692.818L644.541 317.301H502.854L535.03 349.546ZM854.778 349.546H698.219L649.942 317.301H790.4L854.778 349.546ZM784.41 314.301L733.729 288.916H607.445L645.451 314.301H784.41ZM640.049 314.301L602.044 288.916H474.53L499.86 314.301H640.049ZM495.622 314.301L470.292 288.916H341.756L354.41 314.301H495.622ZM351.058 314.301L338.404 288.916H209.246L209.224 314.301H351.058ZM206.224 314.301L206.246 288.916H77.0905L64.3926 314.301H206.224ZM61.0382 314.301L73.7361 288.916H-54.8009L-80.1746 314.301H61.0382ZM-84.4163 314.301L-59.0426 288.916H-186.548L-224.598 314.301H-84.4163ZM-230.003 314.301L-191.954 288.916H-318.235L-368.961 314.301H-230.003ZM-301.094 535.316L-222.492 456.68H-10.1826L-49.5175 535.316H-301.094ZM-46.1631 535.316L-6.82816 456.68H206.101L206.033 535.316H-46.1631ZM209.033 535.316L209.101 456.68H422.034L461.233 535.316H209.033ZM464.585 535.316L425.386 456.68H637.696L716.163 535.316H464.585ZM727.739 285.916L687.095 265.558H572.474L602.953 285.916H727.739ZM597.552 285.916L567.073 265.558H451.223L471.536 285.916H597.552ZM467.298 285.916L446.985 265.558H330.113L340.261 285.916H467.298ZM336.909 285.916L326.761 265.558H209.266L209.249 285.916H336.909ZM206.249 285.916L206.266 265.558H88.7743L78.5912 285.916H206.249ZM75.2368 285.916L85.4199 265.558H-31.4537L-51.8022 285.916H75.2368ZM-56.0439 285.916L-35.6954 265.558H-151.537L-182.051 285.916H-56.0439ZM-187.457 285.916L-156.943 265.558H-271.561L-312.24 285.916H-187.457ZM-272.27 262.558H-384.052L-342.72 246.01H-239.201L-272.27 262.558ZM-152.446 262.558H-265.566L-232.497 246.01H-127.641L-152.446 262.558ZM-32.6967 262.558H-147.04L-122.235 246.01H-16.1551L-32.6967 262.558ZM-28.455 262.558H86.9205L95.1985 246.01H-11.9134L-28.455 262.558ZM90.2749 262.558H206.269L206.283 246.01H98.5529L90.2749 262.558ZM209.269 262.558H325.265L317.016 246.01H209.283L209.269 262.558ZM328.617 262.558H443.991L427.478 246.01H320.368L328.617 262.558ZM562.582 262.558H448.229L431.716 246.01H537.805L562.582 262.558ZM681.106 262.558H567.983L543.206 246.01H648.065L681.106 262.558ZM799.601 262.558H687.805L654.764 246.01H758.296L799.601 262.558ZM674.626 159.001H617.353L629.117 162.928H688.351L674.626 159.001ZM685.53 159.001L699.255 162.928H757.054L741.365 159.001H685.53ZM753.718 159.001L769.407 162.928H825.739L808.089 159.001H753.718ZM-392.374 159.001L-410.028 162.928H-353.694L-337.999 159.001H-392.374ZM-325.642 159.001L-341.336 162.928H-283.546L-269.813 159.001H-325.642ZM-258.904 159.001L-272.637 162.928H-213.407L-201.636 159.001H-258.904ZM-192.158 159.001L-203.929 162.928H-143.289L-133.479 159.001H-192.158ZM-125.408 159.001L-135.218 162.928H-73.1826L-65.3339 159.001H-125.408ZM-58.6304 159.001L-66.479 162.928H-3.1088L2.77856 159.001H-58.6304ZM8.1842 159.001L2.29684 162.928H66.8897L70.8157 159.001H8.1842ZM75.0574 159.001L71.1313 162.928H136.757L138.722 159.001H75.0574ZM142.076 159.001L140.111 162.928H206.355L206.359 159.001H142.076ZM209.359 159.001L209.355 162.928H275.6L273.642 159.001H209.359ZM276.994 159.001L278.952 162.928H344.575L340.656 159.001H276.994ZM344.894 159.001L348.813 162.928H413.417L407.537 159.001H344.894ZM412.938 159.001L418.818 162.928H482.192L474.35 159.001H412.938ZM481.049 159.001L488.891 162.928H550.926L541.123 159.001H481.049ZM549.189 159.001L558.993 162.928H619.644L607.88 159.001H549.189ZM738.777 202.704L766.982 212.121H681.777L658.272 202.704H738.777ZM650.205 202.704L673.71 212.121H587.105L568.303 202.704H650.205ZM681.198 215.121H593.094L615.621 226.404H709.361L681.198 215.121ZM561.605 202.704L580.406 212.121H492.469L478.37 202.704H561.605ZM586.395 215.121H496.96L513.853 226.404H608.923L586.395 215.121ZM472.968 202.704L487.067 212.121H397.9L388.503 202.704H472.968ZM491.559 215.121H400.894L412.152 226.404H508.452L491.559 215.121ZM384.265 202.704L393.662 212.121H303.474L298.78 202.704H384.265ZM396.655 215.121H304.97L310.595 226.404H407.914L396.655 215.121ZM295.428 202.704L300.122 212.121H209.313L209.321 202.704H295.428ZM301.618 215.121H209.31L209.3 226.404H307.242L301.618 215.121ZM206.321 202.704L206.313 212.121H115.505L120.215 202.704H206.321ZM206.31 215.121H114.004L108.36 226.404H206.3L206.31 215.121ZM116.861 202.704L112.15 212.121H21.9605L31.3734 202.704H116.861ZM110.649 215.121H18.9618L7.6835 226.404H105.005L110.649 215.121ZM27.1317 202.704L17.7188 212.121H-71.4386L-57.3232 202.704H27.1317ZM14.7201 215.121H-75.9353L-92.8479 226.404H3.4418L14.7201 215.121ZM-62.7289 202.704L-76.8442 212.121H-164.779L-145.961 202.704H-62.7289ZM-81.341 215.121H-170.773L-193.32 226.404H-98.2536L-81.341 215.121ZM-152.664 202.704L-171.482 212.121H-258.08L-234.56 202.704H-152.664ZM-177.477 215.121H-265.573L-293.753 226.404H-200.024L-177.477 215.121ZM-242.631 202.704L-266.151 212.121H-351.358L-323.135 202.704H-242.631ZM-273.644 215.121H-360.349L-394.164 226.404H-301.824L-273.644 215.121ZM775.968 215.121H689.265L717.427 226.404H809.762L775.968 215.121ZM-335.227 243.01H-233.206L-206.018 229.404H-301.246L-335.227 243.01ZM-226.502 243.01H-123.144L-102.75 229.404H-199.315L-226.502 243.01ZM-117.738 243.01H-13.1564L0.443115 229.404H-97.3447L-117.738 243.01ZM96.6992 243.01H-8.9147L4.68481 229.404H103.505L96.6992 243.01ZM206.286 243.01H100.054L106.859 229.404H206.298L206.286 243.01ZM315.52 243.01H209.286L209.298 229.404H308.738L315.52 243.01ZM424.484 243.01H318.872L312.09 229.404H410.908L424.484 243.01ZM428.722 243.01H533.313L512.943 229.404H415.146L428.722 243.01ZM538.715 243.01H642.076L614.912 229.404H518.345L538.715 243.01ZM648.775 243.01H750.808L716.849 229.404H621.611L648.775 243.01ZM462.729 538.316H209.03L208.915 671.886H529.312L462.729 538.316ZM206.03 538.316H-47.6637L-114.477 671.886H205.915L206.03 538.316ZM-51.0181 538.316H-304.092L-437.603 671.886H-117.832L-51.0181 538.316ZM719.156 538.316H466.081L532.664 671.886H852.439L719.156 538.316ZM-384.039 173.615L-406.313 179.189H-340.4L-320.91 173.615H-384.039ZM-310.421 170.615H-372.051L-353.324 165.928H-294.035L-310.421 170.615ZM-310.001 173.615L-329.49 179.189H-262.14L-245.435 173.615H-310.001ZM-236.444 170.615H-299.512L-283.126 165.928H-222.398L-236.444 170.615ZM-235.956 173.615L-252.662 179.189H-183.901L-169.979 173.615H-235.956ZM-162.487 170.615H-226.966L-212.92 165.928H-150.782L-162.487 170.615ZM-161.908 173.615L-175.83 179.189H-105.676L-94.5371 173.615H-161.908ZM-88.5423 170.615H-154.416L-142.711 165.928H-79.1774L-88.5423 170.615ZM-87.8336 173.615L-98.9723 179.189H-27.4823L-19.127 173.615H-87.8336ZM-14.6303 170.615H-81.8387L-72.4738 165.928H-7.60556L-14.6303 170.615ZM-13.7214 173.615L-22.0767 179.189H50.636L56.2078 173.615H-13.7214ZM59.2065 170.615H-9.22464L-2.19992 165.928H63.891L59.2065 170.615ZM60.4495 173.615L54.8777 179.189H128.623L131.411 173.615H60.4495ZM132.912 170.615H63.4482L68.1327 165.928H135.256L132.912 170.615ZM134.766 173.615L131.978 179.189H206.341L206.346 173.615H134.766ZM206.348 170.615H136.266L138.611 165.928H206.352L206.348 170.615ZM209.346 173.615L209.341 179.189H283.706L280.927 173.615H209.346ZM279.432 170.615H209.348L209.352 165.928H277.096L279.432 170.615ZM284.28 173.615L287.058 179.189H360.801L355.239 173.615H284.28ZM352.245 170.615H282.784L280.448 165.928H347.569L352.245 170.615ZM359.477 173.615L365.039 179.189H437.762L429.417 173.615H359.477ZM424.925 170.615H356.483L351.807 165.928H417.909L424.925 170.615ZM434.818 173.615L443.164 179.189H514.657L503.528 173.615H434.818ZM497.538 170.615H430.327L423.31 165.928H488.182L497.538 170.615ZM510.227 173.615L521.356 179.189H591.513L577.6 173.615H510.227ZM570.112 170.615H504.237L494.88 165.928H558.414L570.112 170.615ZM585.667 173.615L599.58 179.189H668.347L651.652 173.615H585.667ZM642.666 170.615H578.179L566.481 165.928H628.629L642.666 170.615ZM661.125 173.615L677.82 179.189H745.173L725.694 173.615H661.125ZM715.211 170.615H652.139L638.102 165.928H698.835L715.211 170.615ZM736.599 173.615L756.077 179.189H822.004L799.739 173.615H736.599ZM787.756 170.615H726.115L709.739 165.928H769.037L787.756 170.615ZM-401.217 199.704H-323.622L-299.983 191.816H-373.639L-401.217 199.704ZM-235.138 199.704H-314.144L-290.505 191.816H-215.438L-235.138 199.704ZM-146.67 199.704H-227.067L-207.367 191.816H-130.908L-146.67 199.704ZM-58.2321 199.704H-139.966L-124.204 191.816H-46.4091L-58.2321 199.704ZM30.1303 199.704H-52.8265L-41.0035 191.816H38.0146L30.1303 199.704ZM118.361 199.704H34.372L42.2563 191.816H122.307L118.361 199.704ZM206.323 199.704H121.716L125.661 191.816H206.33L206.323 199.704ZM293.933 199.704H209.323L209.33 191.816H290.001L293.933 199.704ZM381.271 199.704H297.285L293.353 191.816H373.401L381.271 199.704ZM468.477 199.704H385.51L377.639 191.816H456.667L468.477 199.704ZM555.615 199.704H473.878L462.069 191.816H539.867L555.615 199.704ZM642.718 199.704H562.314L546.566 191.816H623.03L642.718 199.704ZM729.791 199.704H650.784L631.096 191.816H706.167L729.791 199.704ZM739.264 199.704H816.859L789.297 191.816H715.64L739.264 199.704ZM755.656 182.189L778.813 188.816H706.654L686.806 182.189H755.656ZM677.333 182.189L697.181 188.816H623.608L607.068 182.189H677.333ZM599.001 182.189L615.542 188.816H540.576L527.345 182.189H599.001ZM520.646 182.189L533.877 188.816H457.577L447.655 182.189H520.646ZM442.254 182.189L452.176 188.816H374.645L368.033 182.189H442.254ZM363.794 182.189L370.407 188.816H291.857L288.554 182.189H363.794ZM285.202 182.189L288.505 188.816H209.333L209.338 182.189H285.202ZM206.338 182.189L206.333 188.816H127.162L130.477 182.189H206.338ZM127.122 182.189L123.807 188.816H45.255L51.879 182.189H127.122ZM47.6373 182.189L41.0133 188.816H-36.5067L-26.5735 182.189H47.6373ZM-31.9791 182.189L-41.9124 188.816H-118.21L-104.967 182.189H-31.9791ZM-111.671 182.189L-124.913 188.816H-199.874L-183.323 182.189H-111.671ZM-191.394 182.189L-207.946 188.816H-281.514L-261.653 182.189H-191.394ZM-271.131 182.189L-290.992 188.816H-363.15L-339.979 182.189H-271.131Z" fill="url(#paint0_linear_2951_16791)" fill-opacity="0.7"/>
<path fill-rule="evenodd" clip-rule="evenodd" d="M608.182 156.001C608.141 155.999 608.1 155.999 608.06 156.001H541.471C541.431 155.999 541.39 155.999 541.35 156.001H474.763C474.724 155.999 474.684 155.999 474.645 156.001H408.046C408.01 155.999 407.973 155.999 407.937 156.001L341.328 156.001C341.294 156 341.26 156 341.227 156.001L274.628 156.001C274.589 155.999 274.549 155.999 274.51 156.001H207.911C207.894 156 207.878 156 207.861 156C207.844 156 207.826 156 207.809 156.001H141.21C141.17 155.999 141.131 155.999 141.092 156.001L74.4873 156.001C74.4536 156 74.4199 156 74.3862 156.001L7.78464 156.001C7.74805 155.999 7.7114 155.999 7.67471 156.001H-58.925C-58.9643 155.999 -59.0038 155.999 -59.0434 156.001H-125.635C-125.675 155.999 -125.716 155.999 -125.756 156.001H-192.338C-192.378 155.999 -192.419 155.999 -192.46 156.001H-259.05C-259.09 155.999 -259.13 155.999 -259.171 156.001H-325.762C-325.802 155.999 -325.842 155.999 -325.882 156.001H-392.475C-392.514 155.999 -392.553 155.999 -392.593 156.001H-441.5C-442.329 156.001 -443 156.672 -443 157.501C-443 158.329 -442.329 159.001 -441.5 159.001H-406.188L-423.842 162.928H-441.5C-442.329 162.928 -443 163.6 -443 164.429C-443 165.257 -442.329 165.928 -441.5 165.928H-437.325L-441.826 166.93C-442.635 167.11 -443.144 167.911 -442.964 168.72C-442.784 169.528 -441.983 170.038 -441.174 169.858L-423.512 165.928H-365.682L-384.408 170.615H-441.5C-442.329 170.615 -443 171.287 -443 172.115C-443 172.943 -442.329 173.615 -441.5 173.615H-396.396L-418.67 179.189H-441.5C-442.329 179.189 -443 179.861 -443 180.689C-443 181.518 -442.329 182.189 -441.5 182.189H-430.658L-441.864 184.994C-442.668 185.195 -443.156 186.009 -442.955 186.813C-442.754 187.617 -441.94 188.105 -441.136 187.904L-418.3 182.189H-350.889L-374.059 188.816H-441.5C-442.329 188.816 -443 189.488 -443 190.316C-443 191.145 -442.329 191.816 -441.5 191.816H-384.549L-412.127 199.704H-441.5C-442.329 199.704 -443 200.375 -443 201.204C-443 202.032 -442.329 202.704 -441.5 202.704H-422.616L-441.913 208.223C-442.709 208.451 -443.17 209.281 -442.942 210.078C-442.714 210.874 -441.884 211.335 -441.088 211.107L-411.706 202.704H-332.613L-360.836 212.121H-441.5C-442.329 212.121 -443 212.792 -443 213.621C-443 214.449 -442.329 215.121 -441.5 215.121H-369.827L-403.642 226.404H-441.5C-442.329 226.404 -443 227.076 -443 227.904C-443 228.733 -442.329 229.404 -441.5 229.404H-412.633L-441.975 239.195C-442.761 239.457 -443.185 240.306 -442.923 241.092C-442.661 241.878 -441.811 242.302 -441.025 242.04L-403.155 229.404H-309.317L-343.298 243.01H-441.5C-442.329 243.01 -443 243.681 -443 244.51C-443 245.338 -442.329 246.01 -441.5 246.01H-350.791L-392.123 262.558H-441.5C-442.329 262.558 -443 263.23 -443 264.058C-443 264.887 -442.329 265.558 -441.5 265.558H-399.615L-442.058 282.552C-442.827 282.86 -443.201 283.733 -442.893 284.502C-442.585 285.271 -441.712 285.645 -440.943 285.337L-391.544 265.558H-278.264L-318.944 285.916H-441.5C-442.329 285.916 -443 286.587 -443 287.416C-443 288.244 -442.329 288.916 -441.5 288.916H-324.939L-375.664 314.301H-441.5C-442.329 314.301 -443 314.972 -443 315.801C-443 316.629 -442.329 317.301 -441.5 317.301H-381.659L-442.171 347.583C-442.912 347.954 -443.212 348.855 -442.841 349.596C-442.767 349.744 -442.672 349.874 -442.561 349.985C-442.832 350.257 -443 350.632 -443 351.046C-443 351.874 -442.329 352.546 -441.5 352.546H-287.33L-350.161 394.464H-441.5C-442.329 394.464 -443 395.135 -443 395.964C-443 396.792 -442.329 397.464 -441.5 397.464H-354.658L-438.923 453.68H-441.5C-442.329 453.68 -443 454.352 -443 455.18C-443 455.57 -442.852 455.925 -442.608 456.192C-443.063 456.689 -443.139 457.45 -442.748 458.036C-442.288 458.725 -441.357 458.911 -440.668 458.451L-438.014 456.68H-226.734L-305.335 535.316H-441.5C-442.329 535.316 -443 535.988 -443 536.816C-443 537.645 -442.329 538.316 -441.5 538.316H-308.334L-442.284 672.324C-442.869 672.91 -442.869 673.86 -442.283 674.446C-442.147 674.582 -441.99 674.687 -441.823 674.76C-441.639 674.841 -441.435 674.886 -441.221 674.886H856.057C856.886 674.886 857.557 674.214 857.557 673.386C857.557 672.944 857.367 672.547 857.063 672.272L723.395 538.316H857.448C858.276 538.316 858.948 537.645 858.948 536.816C858.948 535.988 858.276 535.316 857.448 535.316H720.401L641.934 456.68H853.218L856.615 458.949C857.304 459.41 858.236 459.224 858.696 458.535C859.156 457.846 858.971 456.915 858.282 456.455L858.261 456.441C858.674 456.174 858.948 455.709 858.948 455.18C858.948 454.352 858.276 453.68 857.448 453.68H854.128L769.961 397.464H857.448C858.276 397.464 858.948 396.792 858.948 395.964C858.948 395.135 858.276 394.464 857.448 394.464H765.47L702.711 352.546H857.448C858.276 352.546 858.948 351.874 858.948 351.046C858.948 350.7 858.831 350.381 858.634 350.127C858.693 350.051 858.746 349.967 858.791 349.878C859.162 349.137 858.862 348.236 858.121 347.865L797.099 317.301H857.448C858.276 317.301 858.948 316.629 858.948 315.801C858.948 314.972 858.276 314.301 857.448 314.301H791.109L740.428 288.916H857.448C858.276 288.916 858.948 288.244 858.948 287.416C858.948 286.587 858.276 285.916 857.448 285.916H734.438L693.794 265.558H807.089L856.893 285.512C857.662 285.82 858.535 285.446 858.843 284.677C859.151 283.908 858.777 283.035 858.008 282.727L815.156 265.558H857.448C858.276 265.558 858.948 264.887 858.948 264.058C858.948 263.23 858.276 262.558 857.448 262.558H807.668L766.362 246.01H857.448C858.276 246.01 858.948 245.338 858.948 244.51C858.948 243.681 858.276 243.01 857.448 243.01H758.875L724.915 229.404H818.748L856.974 242.167C857.76 242.429 858.61 242.005 858.872 241.219C859.135 240.433 858.71 239.584 857.924 239.321L828.221 229.404H857.448C858.276 229.404 858.948 228.733 858.948 227.904C858.948 227.076 858.276 226.404 857.448 226.404H819.235L785.441 215.121H857.448C858.276 215.121 858.948 214.449 858.948 213.621C858.948 212.792 858.276 212.121 857.448 212.121H776.455L748.25 202.704H827.343L857.037 211.202C857.834 211.43 858.664 210.969 858.892 210.172C859.12 209.376 858.659 208.545 857.863 208.318L838.247 202.704H857.448C858.276 202.704 858.948 202.032 858.948 201.204C858.948 200.375 858.276 199.704 857.448 199.704H827.763L800.201 191.816H857.448C858.276 191.816 858.948 191.145 858.948 190.316C858.948 189.488 858.276 188.816 857.448 188.816H789.718L766.56 182.189H833.987L857.087 187.972C857.89 188.174 858.705 187.685 858.906 186.882C859.107 186.078 858.619 185.263 857.815 185.062L846.34 182.189H857.448C858.276 182.189 858.948 181.518 858.948 180.689C858.948 179.861 858.276 179.189 857.448 179.189H834.357L812.092 173.615H857.448C858.276 173.615 858.948 172.943 858.948 172.115C858.948 171.287 858.276 170.615 857.448 170.615H800.109L781.39 165.928H839.22L857.122 169.912C857.931 170.092 858.732 169.583 858.912 168.774C859.092 167.965 858.583 167.164 857.774 166.984L853.03 165.928H857.448C858.276 165.928 858.948 165.257 858.948 164.429C858.948 163.6 858.276 162.928 857.448 162.928H839.549L821.9 159.001H857.448C858.276 159.001 858.948 158.329 858.948 157.501C858.948 156.672 858.276 156.001 857.448 156.001H808.307C808.268 155.999 808.229 155.999 808.189 156.001H741.605C741.565 155.999 741.526 155.999 741.486 156.001H674.894C674.853 155.999 674.813 155.999 674.773 156.001H608.182ZM760.068 394.464L697.309 352.546H538.023L579.851 394.464H760.068ZM575.613 394.464L533.785 352.546H373.475L394.371 394.464H575.613ZM395.867 397.464H578.607L634.703 453.68H423.89L395.867 397.464ZM391.019 394.464L370.123 352.546H209.191L209.155 394.464H391.019ZM209.152 397.464H392.514L420.538 453.68H209.103L209.152 397.464ZM206.155 394.464L206.191 352.546H45.2618L24.2937 394.464H206.155ZM22.7931 397.464H206.152L206.103 453.68H-5.32751L22.7931 397.464ZM20.9393 394.464L41.9074 352.546H-118.403L-160.303 394.464H20.9393ZM-163.301 397.464H19.4387L-8.68192 453.68H-219.494L-163.301 397.464ZM-164.544 394.464L-122.645 352.546H-281.924L-344.756 394.464H-164.544ZM-349.252 397.464H-167.543L-223.735 453.68H-433.517L-349.252 397.464ZM582.845 397.464H764.56L848.727 453.68H638.941L582.845 397.464ZM-282.833 349.546H-439.39L-374.955 317.301H-234.5L-282.833 349.546ZM-277.427 349.546H-119.646L-87.415 317.301H-229.094L-277.427 349.546ZM-115.404 349.546H43.408L59.5376 317.301H-83.1733L-115.404 349.546ZM46.7624 349.546H206.194L206.221 317.301H62.892L46.7624 349.546ZM209.194 349.546H368.628L352.554 317.301H209.221L209.194 349.546ZM371.98 349.546H530.791L498.616 317.301H355.906L371.98 349.546ZM535.03 349.546H692.818L644.541 317.301H502.854L535.03 349.546ZM854.778 349.546H698.219L649.942 317.301H790.4L854.778 349.546ZM784.41 314.301L733.729 288.916H607.445L645.451 314.301H784.41ZM640.049 314.301L602.044 288.916H474.53L499.86 314.301H640.049ZM495.622 314.301L470.292 288.916H341.756L354.41 314.301H495.622ZM351.058 314.301L338.404 288.916H209.246L209.224 314.301H351.058ZM206.224 314.301L206.246 288.916H77.0905L64.3926 314.301H206.224ZM61.0382 314.301L73.7361 288.916H-54.8009L-80.1746 314.301H61.0382ZM-84.4163 314.301L-59.0426 288.916H-186.548L-224.598 314.301H-84.4163ZM-230.003 314.301L-191.954 288.916H-318.235L-368.961 314.301H-230.003ZM-301.094 535.316L-222.492 456.68H-10.1826L-49.5175 535.316H-301.094ZM-46.1631 535.316L-6.82816 456.68H206.101L206.033 535.316H-46.1631ZM209.033 535.316L209.101 456.68H422.034L461.233 535.316H209.033ZM464.585 535.316L425.386 456.68H637.696L716.163 535.316H464.585ZM727.739 285.916L687.095 265.558H572.474L602.953 285.916H727.739ZM597.552 285.916L567.073 265.558H451.223L471.536 285.916H597.552ZM467.298 285.916L446.985 265.558H330.113L340.261 285.916H467.298ZM336.909 285.916L326.761 265.558H209.266L209.249 285.916H336.909ZM206.249 285.916L206.266 265.558H88.7743L78.5912 285.916H206.249ZM75.2368 285.916L85.4199 265.558H-31.4537L-51.8022 285.916H75.2368ZM-56.0439 285.916L-35.6954 265.558H-151.537L-182.051 285.916H-56.0439ZM-187.457 285.916L-156.943 265.558H-271.561L-312.24 285.916H-187.457ZM-272.27 262.558H-384.052L-342.72 246.01H-239.201L-272.27 262.558ZM-152.446 262.558H-265.566L-232.497 246.01H-127.641L-152.446 262.558ZM-32.6967 262.558H-147.04L-122.235 246.01H-16.1551L-32.6967 262.558ZM-28.455 262.558H86.9205L95.1985 246.01H-11.9134L-28.455 262.558ZM90.2749 262.558H206.269L206.283 246.01H98.5529L90.2749 262.558ZM209.269 262.558H325.265L317.016 246.01H209.283L209.269 262.558ZM328.617 262.558H443.991L427.478 246.01H320.368L328.617 262.558ZM562.582 262.558H448.229L431.716 246.01H537.805L562.582 262.558ZM681.106 262.558H567.983L543.206 246.01H648.065L681.106 262.558ZM799.601 262.558H687.805L654.764 246.01H758.296L799.601 262.558ZM674.626 159.001H617.353L629.117 162.928H688.351L674.626 159.001ZM685.53 159.001L699.255 162.928H757.054L741.365 159.001H685.53ZM753.718 159.001L769.407 162.928H825.739L808.089 159.001H753.718ZM-392.374 159.001L-410.028 162.928H-353.694L-337.999 159.001H-392.374ZM-325.642 159.001L-341.336 162.928H-283.546L-269.813 159.001H-325.642ZM-258.904 159.001L-272.637 162.928H-213.407L-201.636 159.001H-258.904ZM-192.158 159.001L-203.929 162.928H-143.289L-133.479 159.001H-192.158ZM-125.408 159.001L-135.218 162.928H-73.1826L-65.3339 159.001H-125.408ZM-58.6304 159.001L-66.479 162.928H-3.1088L2.77856 159.001H-58.6304ZM8.1842 159.001L2.29684 162.928H66.8897L70.8157 159.001H8.1842ZM75.0574 159.001L71.1313 162.928H136.757L138.722 159.001H75.0574ZM142.076 159.001L140.111 162.928H206.355L206.359 159.001H142.076ZM209.359 159.001L209.355 162.928H275.6L273.642 159.001H209.359ZM276.994 159.001L278.952 162.928H344.575L340.656 159.001H276.994ZM344.894 159.001L348.813 162.928H413.417L407.537 159.001H344.894ZM412.938 159.001L418.818 162.928H482.192L474.35 159.001H412.938ZM481.049 159.001L488.891 162.928H550.926L541.123 159.001H481.049ZM549.189 159.001L558.993 162.928H619.644L607.88 159.001H549.189ZM738.777 202.704L766.982 212.121H681.777L658.272 202.704H738.777ZM650.205 202.704L673.71 212.121H587.105L568.303 202.704H650.205ZM681.198 215.121H593.094L615.621 226.404H709.361L681.198 215.121ZM561.605 202.704L580.406 212.121H492.469L478.37 202.704H561.605ZM586.395 215.121H496.96L513.853 226.404H608.923L586.395 215.121ZM472.968 202.704L487.067 212.121H397.9L388.503 202.704H472.968ZM491.559 215.121H400.894L412.152 226.404H508.452L491.559 215.121ZM384.265 202.704L393.662 212.121H303.474L298.78 202.704H384.265ZM396.655 215.121H304.97L310.595 226.404H407.914L396.655 215.121ZM295.428 202.704L300.122 212.121H209.313L209.321 202.704H295.428ZM301.618 215.121H209.31L209.3 226.404H307.242L301.618 215.121ZM206.321 202.704L206.313 212.121H115.505L120.215 202.704H206.321ZM206.31 215.121H114.004L108.36 226.404H206.3L206.31 215.121ZM116.861 202.704L112.15 212.121H21.9605L31.3734 202.704H116.861ZM110.649 215.121H18.9618L7.6835 226.404H105.005L110.649 215.121ZM27.1317 202.704L17.7188 212.121H-71.4386L-57.3232 202.704H27.1317ZM14.7201 215.121H-75.9353L-92.8479 226.404H3.4418L14.7201 215.121ZM-62.7289 202.704L-76.8442 212.121H-164.779L-145.961 202.704H-62.7289ZM-81.341 215.121H-170.773L-193.32 226.404H-98.2536L-81.341 215.121ZM-152.664 202.704L-171.482 212.121H-258.08L-234.56 202.704H-152.664ZM-177.477 215.121H-265.573L-293.753 226.404H-200.024L-177.477 215.121ZM-242.631 202.704L-266.151 212.121H-351.358L-323.135 202.704H-242.631ZM-273.644 215.121H-360.349L-394.164 226.404H-301.824L-273.644 215.121ZM775.968 215.121H689.265L717.427 226.404H809.762L775.968 215.121ZM-335.227 243.01H-233.206L-206.018 229.404H-301.246L-335.227 243.01ZM-226.502 243.01H-123.144L-102.75 229.404H-199.315L-226.502 243.01ZM-117.738 243.01H-13.1564L0.443115 229.404H-97.3447L-117.738 243.01ZM96.6992 243.01H-8.9147L4.68481 229.404H103.505L96.6992 243.01ZM206.286 243.01H100.054L106.859 229.404H206.298L206.286 243.01ZM315.52 243.01H209.286L209.298 229.404H308.738L315.52 243.01ZM424.484 243.01H318.872L312.09 229.404H410.908L424.484 243.01ZM428.722 243.01H533.313L512.943 229.404H415.146L428.722 243.01ZM538.715 243.01H642.076L614.912 229.404H518.345L538.715 243.01ZM648.775 243.01H750.808L716.849 229.404H621.611L648.775 243.01ZM462.729 538.316H209.03L208.915 671.886H529.312L462.729 538.316ZM206.03 538.316H-47.6637L-114.477 671.886H205.915L206.03 538.316ZM-51.0181 538.316H-304.092L-437.603 671.886H-117.832L-51.0181 538.316ZM719.156 538.316H466.081L532.664 671.886H852.439L719.156 538.316ZM-384.039 173.615L-406.313 179.189H-340.4L-320.91 173.615H-384.039ZM-310.421 170.615H-372.051L-353.324 165.928H-294.035L-310.421 170.615ZM-310.001 173.615L-329.49 179.189H-262.14L-245.435 173.615H-310.001ZM-236.444 170.615H-299.512L-283.126 165.928H-222.398L-236.444 170.615ZM-235.956 173.615L-252.662 179.189H-183.901L-169.979 173.615H-235.956ZM-162.487 170.615H-226.966L-212.92 165.928H-150.782L-162.487 170.615ZM-161.908 173.615L-175.83 179.189H-105.676L-94.5371 173.615H-161.908ZM-88.5423 170.615H-154.416L-142.711 165.928H-79.1774L-88.5423 170.615ZM-87.8336 173.615L-98.9723 179.189H-27.4823L-19.127 173.615H-87.8336ZM-14.6303 170.615H-81.8387L-72.4738 165.928H-7.60556L-14.6303 170.615ZM-13.7214 173.615L-22.0767 179.189H50.636L56.2078 173.615H-13.7214ZM59.2065 170.615H-9.22464L-2.19992 165.928H63.891L59.2065 170.615ZM60.4495 173.615L54.8777 179.189H128.623L131.411 173.615H60.4495ZM132.912 170.615H63.4482L68.1327 165.928H135.256L132.912 170.615ZM134.766 173.615L131.978 179.189H206.341L206.346 173.615H134.766ZM206.348 170.615H136.266L138.611 165.928H206.352L206.348 170.615ZM209.346 173.615L209.341 179.189H283.706L280.927 173.615H209.346ZM279.432 170.615H209.348L209.352 165.928H277.096L279.432 170.615ZM284.28 173.615L287.058 179.189H360.801L355.239 173.615H284.28ZM352.245 170.615H282.784L280.448 165.928H347.569L352.245 170.615ZM359.477 173.615L365.039 179.189H437.762L429.417 173.615H359.477ZM424.925 170.615H356.483L351.807 165.928H417.909L424.925 170.615ZM434.818 173.615L443.164 179.189H514.657L503.528 173.615H434.818ZM497.538 170.615H430.327L423.31 165.928H488.182L497.538 170.615ZM510.227 173.615L521.356 179.189H591.513L577.6 173.615H510.227ZM570.112 170.615H504.237L494.88 165.928H558.414L570.112 170.615ZM585.667 173.615L599.58 179.189H668.347L651.652 173.615H585.667ZM642.666 170.615H578.179L566.481 165.928H628.629L642.666 170.615ZM661.125 173.615L677.82 179.189H745.173L725.694 173.615H661.125ZM715.211 170.615H652.139L638.102 165.928H698.835L715.211 170.615ZM736.599 173.615L756.077 179.189H822.004L799.739 173.615H736.599ZM787.756 170.615H726.115L709.739 165.928H769.037L787.756 170.615ZM-401.217 199.704H-323.622L-299.983 191.816H-373.639L-401.217 199.704ZM-235.138 199.704H-314.144L-290.505 191.816H-215.438L-235.138 199.704ZM-146.67 199.704H-227.067L-207.367 191.816H-130.908L-146.67 199.704ZM-58.2321 199.704H-139.966L-124.204 191.816H-46.4091L-58.2321 199.704ZM30.1303 199.704H-52.8265L-41.0035 191.816H38.0146L30.1303 199.704ZM118.361 199.704H34.372L42.2563 191.816H122.307L118.361 199.704ZM206.323 199.704H121.716L125.661 191.816H206.33L206.323 199.704ZM293.933 199.704H209.323L209.33 191.816H290.001L293.933 199.704ZM381.271 199.704H297.285L293.353 191.816H373.401L381.271 199.704ZM468.477 199.704H385.51L377.639 191.816H456.667L468.477 199.704ZM555.615 199.704H473.878L462.069 191.816H539.867L555.615 199.704ZM642.718 199.704H562.314L546.566 191.816H623.03L642.718 199.704ZM729.791 199.704H650.784L631.096 191.816H706.167L729.791 199.704ZM739.264 199.704H816.859L789.297 191.816H715.64L739.264 199.704ZM755.656 182.189L778.813 188.816H706.654L686.806 182.189H755.656ZM677.333 182.189L697.181 188.816H623.608L607.068 182.189H677.333ZM599.001 182.189L615.542 188.816H540.576L527.345 182.189H599.001ZM520.646 182.189L533.877 188.816H457.577L447.655 182.189H520.646ZM442.254 182.189L452.176 188.816H374.645L368.033 182.189H442.254ZM363.794 182.189L370.407 188.816H291.857L288.554 182.189H363.794ZM285.202 182.189L288.505 188.816H209.333L209.338 182.189H285.202ZM206.338 182.189L206.333 188.816H127.162L130.477 182.189H206.338ZM127.122 182.189L123.807 188.816H45.255L51.879 182.189H127.122ZM47.6373 182.189L41.0133 188.816H-36.5067L-26.5735 182.189H47.6373ZM-31.9791 182.189L-41.9124 188.816H-118.21L-104.967 182.189H-31.9791ZM-111.671 182.189L-124.913 188.816H-199.874L-183.323 182.189H-111.671ZM-191.394 182.189L-207.946 188.816H-281.514L-261.653 182.189H-191.394ZM-271.131 182.189L-290.992 188.816H-363.15L-339.979 182.189H-271.131Z" fill="url(#paint1_linear_2951_16791)"/>
</g>
<defs>
<linearGradient id="paint0_linear_2951_16791" x1="207.975" y1="183.86" x2="207.975" y2="589.377" gradientUnits="userSpaceOnUse">
<stop offset="0.0640087" stop-color="#414141" stop-opacity="0"/>
<stop offset="0.258526" stop-color="#414141" stop-opacity="0.8"/>
<stop offset="0.486011" stop-color="#414141" stop-opacity="0"/>
<stop offset="1" stop-color="#414141" stop-opacity="0"/>
</linearGradient>
<linearGradient id="paint1_linear_2951_16791" x1="208.134" y1="113.11" x2="208.134" y2="398.583" gradientUnits="userSpaceOnUse">
<stop stop-color="#414141" stop-opacity="0"/>
<stop offset="1" stop-color="#414141"/>
</linearGradient>
</defs>
</svg>
