<?xml version="1.0" encoding="UTF-8"?>
<svg id="svg44" xmlns="http://www.w3.org/2000/svg" version="1.1" viewBox="0 0 1200 421">
  <!-- Generator: Adobe Illustrator 29.0.0, SVG Export Plug-In . SVG Version: 2.1.0 Build 186)  -->
  <defs>
    <style>
      .st0 {
        fill: #fff;
      }
    </style>
  </defs>
  <g id="g42">
    <path id="path40" class="st0" d="M97.5,210.4l-46.3,46.3L5,210.4l46.3-46.3,46.3,46.3ZM209.9,98.1l79.3,79.3,46.2-46.2L209.9,5.5l-125.6,125.7,46.3,46.3,79.3-79.4ZM368.5,164.2l-46.3,46.3,46.2,46.3,46.3-46.3-46.2-46.3ZM209.9,322.8l-79.3-79.3-46.3,46.2,125.6,125.6,125.6-125.6-46.3-46.3-79.3,79.4ZM209.9,256.7l46.3-46.3-46.3-46.3-46.3,46.3,46.3,46.3ZM507.4,98h104.4c25.7,0,45.9,7.1,58.8,19.9,10.2,10,15.8,23.9,15.4,38.2v.6c0,25.4-13.5,39.5-29.5,48.5,26,9.9,42.1,25,42.1,55.2v.6c0,41.1-33.4,61.6-84.1,61.6h-107V98ZM601.1,189c21.8,0,35.6-7,35.6-23.7v-.6c0-14.8-11.6-23.1-32.4-23.1h-48.8v47.4h45.6ZM614.3,279.5c21.8,0,35-7.8,35-24.4v-.6c0-15.1-11.2-24.4-36.6-24.4h-57.2v49.4h58.8ZM747.2,98.1h45.6l105.3,138.4V98h48.8v224.7h-42.1l-108.9-142.9v142.9h-48.8V98.1ZM1008.9,98.1h104.4c25.7,0,45.9,7.1,58.8,19.9,10.2,10,15.8,23.9,15.4,38.2v.6c0,25.4-13.5,39.5-29.5,48.5,26,9.9,42.1,25,42.1,55.2v.5c0,41.1-33.4,61.6-84.1,61.6h-107V98.1ZM1102.6,189c21.8,0,35.6-7,35.6-23.7v-.6c0-14.8-11.6-23.1-32.4-23.1h-48.8v47.4l45.6.2ZM1115.9,279.4c21.8,0,35-7.8,35-24.4v-.6c0-15.1-11.2-24.4-36.6-24.4h-57.2v49.4h58.8Z"/>
  </g>
</svg>