<?xml version="1.0" encoding="utf-8"?>
<!-- Generator: Adobe Illustrator 27.9.3, SVG Export Plug-In . SVG Version: 9.03 Build 53313)  -->
<svg version="1.1"
	 id="Layer_1" shape-rendering="geometricPrecision" image-rendering="optimizeQuality" text-rendering="geometricPrecision" xmlns:xodm="http://www.corel.com/coreldraw/odm/2003"
	 xmlns="http://www.w3.org/2000/svg" xmlns:xlink="http://www.w3.org/1999/xlink" x="0px" y="0px" viewBox="0 0 1091 1080"
	 style="enable-background:new 0 0 1091 1080;" xml:space="preserve">
<style type="text/css">
	.st0{fill:#FFFFFF;}
</style>
<g>
	<path class="st0" d="M543.3,368.3l-29.5,118.3c33.5,8.3,136.6,42.3,153.3-24.6h0C684.5,392.2,576.7,376.6,543.3,368.3z"/>
	<path class="st0" d="M498.9,546.3l-32.5,130.4c40.2,10,164.1,49.8,182.4-23.8h0C667.9,576.2,539.1,556.3,498.9,546.3z"/>
	<path class="st0" d="M1069.8,670.6c72.1-289.3-103.9-582.4-393.2-654.5C387.3-56,94.3,120.1,22.2,409.4
		c-72.2,289.3,103.9,582.3,393.1,654.4C704.7,1136,997.7,959.9,1069.8,670.6L1069.8,670.6L1069.8,670.6z M784.1,463.1L784.1,463.1
		c-7.8,52.6-36.9,78.1-75.6,87c53.2,27.7,80.2,70.1,54.4,143.7c-32,91.4-108,99.1-209,80L529.4,872l-59.3-14.8l24.2-97
		c-15.4-3.8-31.1-7.9-47.2-12.3l-24.3,97.4l-59.2-14.8l24.5-98.5c-13.8-3.5-27.9-7.3-42.2-10.9l-77.1-19.2l29.4-67.8
		c0,0,43.7,11.6,43.1,10.7c16.8,4.2,24.2-6.8,27.2-14.1l38.8-155.4c2.2,0.5,4.3,1.1,6.3,1.5c-2.4-1-4.5-1.6-6.2-2L435,364.3
		c0.7-12.6-3.6-28.5-27.6-34.5c0.9-0.6-43-10.7-43-10.7l15.8-63.3l81.7,20.4l-0.1,0.3c12.3,3.1,24.9,6,37.8,8.9l24.3-97.3l59.2,14.8
		l-23.8,95.4c15.9,3.6,31.9,7.3,47.5,11.2l23.6-94.8l59.3,14.8l-24.3,97.3C740.2,352.6,794.9,391.2,784.1,463.1L784.1,463.1z"/>
</g>
</svg>
