<?xml version="1.0" encoding="utf-8"?>
<!-- Generator: Adobe Illustrator 27.9.3, SVG Export Plug-In . SVG Version: 9.03 Build 53313)  -->
<svg version="1.1" id="Layer_1" xmlns="http://www.w3.org/2000/svg" xmlns:xlink="http://www.w3.org/1999/xlink" x="0px" y="0px"
	 viewBox="0 0 500 500" style="enable-background:new 0 0 500 500;" xml:space="preserve">
<style type="text/css">
	.st0{fill:#FFFFFF;}
</style>
<g>
	<path class="st0" d="M333.8,209.3h-22.5l-7.1,33.6h21.5c5.3,0,9.8-1.4,13.7-4.3c4-2.9,6.6-7,7.9-12.4c0.4-2.1,0.6-4,0.6-5.6
		c0-3.6-1.1-6.4-3.2-8.3C342.6,210.3,338.9,209.3,333.8,209.3z"/>
	<path class="st0" d="M197.9,208.2c-7,0-13,2.1-18,6.2c-4.9,4.1-8.4,10.4-10.5,19c-2.3,8.4-4.5,18.6-6.8,30.8
		c-0.5,2.5-0.8,5.1-0.8,7.9c-0.1,11.6,6,17.3,18,17.3c7,0,12.9-2.1,17.8-6.2c5-4.1,8.6-10.4,10.7-19c2.9-11.8,5.1-22,6.6-30.8
		c0.5-2.6,0.8-5.3,0.8-8.1C215.7,213.9,209.8,208.2,197.9,208.2z"/>
	<path class="st0" d="M250,0C111.9,0,0,111.9,0,250s111.9,250,250,250s250-111.9,250-250S388.1,0,250,0z M249.7,232.9
		c-1.9,11.1-4.1,22-6.8,32.5c-4.4,17.1-11.9,30-22.7,38.5c-10.7,8.4-25.1,12.5-43.1,12.5c-14.9,0-27.1-3.5-36.6-10.5
		c-9.4-7.1-14.1-17.3-14.1-30.4c0-2.8,0.3-6.1,0.9-10.1c1.6-9,3.9-19.8,6.9-32.5c8.5-34.4,30.5-51.6,65.9-51.6
		c9.6,0,18.3,1.6,25.9,4.9c7.6,3.1,13.6,7.9,18,14.3c4.4,6.3,6.6,13.8,6.6,22.5C250.6,225.6,250.3,228.9,249.7,232.9z M382.1,226.6
		c-3.1,14.4-9.4,25-19,31.9c-9.4,6.9-22.3,10.3-38.7,10.3h-25.3l-8.6,41.1c-0.3,1.4-0.9,2.5-2.1,3.4c-1.1,0.9-2.3,1.3-3.6,1.3h-25.5
		c-1.4,0-2.4-0.4-3.2-1.3c-0.6-1-0.8-2.1-0.6-3.4l25.9-122c0.2-1.4,0.9-2.5,2.1-3.4c1.1-0.9,2.3-1.3,3.6-1.3H337
		c13.9,0,25,2.9,33.4,8.6c8.5,5.8,12.8,14.1,12.8,25C383.2,219.9,382.8,223.2,382.1,226.6z"/>
</g>
</svg>
