<?xml version="1.0" encoding="UTF-8"?>
<svg id="katman_1" xmlns="http://www.w3.org/2000/svg" version="1.1" viewBox="0 0 643.3 140.3">
  <!-- Generator: Adobe Illustrator 29.0.0, SVG Export Plug-In . SVG Version: 2.1.0 Build 186)  -->
  <defs>
    <style>
      .st0 {
        fill: #fff;
      }
    </style>
  </defs>
  <path class="st0" d="M113.9,46.3c-2.8-1.7-6.4-1.7-9.5,0l-21.7,13.2-14.8,8.6-21.7,13.2c-2.8,1.7-6.4,1.7-9.5,0l-17.3-10.3c-2.8-1.7-4.7-4.9-4.7-8.3v-20.3c0-3.4,1.7-6.6,4.7-8.3l17-10c2.8-1.7,6.4-1.7,9.5,0l17,10c2.8,1.7,4.7,4.9,4.7,8.3v13.2l14.8-8.9v-13.2c0-3.4-1.7-6.6-4.7-8.3L46.2,6.3c-2.8-1.7-6.4-1.7-9.5,0L4.7,25.2c-3.1,1.7-4.7,4.9-4.7,8.3v38c0,3.4,1.7,6.6,4.7,8.3l32,18.9c2.8,1.7,6.4,1.7,9.5,0l21.7-12.9,14.8-8.9,21.7-12.9c2.8-1.7,6.4-1.7,9.5,0l17,10c2.8,1.7,4.7,4.9,4.7,8.3v20.3c0,3.4-1.7,6.6-4.7,8.3l-17,10.3c-2.8,1.7-6.4,1.7-9.5,0l-17-10c-2.8-1.7-4.7-4.9-4.7-8.3v-13.2l-14.8,8.9v13.2c0,3.4,1.7,6.6,4.7,8.3l32,18.9c2.8,1.7,6.4,1.7,9.5,0l32-18.9c2.8-1.7,4.7-4.9,4.7-8.3v-38c0-3.4-1.7-6.6-4.7-8.3l-32.2-19.2Z"/>
  <path class="st0" d="M209.8,128.1v-31.6c3.4,4.3,9.6,6.7,16.7,6.7,18.2,0,30.6-13.1,30.6-33s-11.3-33-29.1-33-14.5,3-18.2,8v-7h-17.5v89.8h17.5ZM224.4,88c-9.4,0-15.6-7.1-15.6-17.8s6.2-17.9,15.6-17.9,15.5,7.1,15.5,17.9c-.1,10.7-6.4,17.8-15.5,17.8Z"/>
  <path class="st0" d="M296.8,103.2c19.5,0,33.5-14,33.5-33s-14-33-33.5-33-33.5,14-33.5,33,14,33,33.5,33ZM296.8,88c-9.4,0-15.9-7.2-15.9-17.8s6.4-17.9,15.9-17.9,15.9,7.2,15.9,17.9-6.5,17.8-15.9,17.8Z"/>
  <path class="st0" d="M358.3,102.2V10.5h-17.5v91.7h17.5Z"/>
  <path class="st0" d="M410.9,38.3l-13.2,41.2-13.3-41.2h-17.9l23,63.4-9.3,26.4h16.7l8.9-26.1,23-63.7h-17.9Z"/>
  <path class="st0" d="M478.1,44.6c-3.5-4.4-9.8-7.4-17.5-7.4-18.5,0-29.7,13.1-29.7,33s11.2,33,30,33,14.1-2.8,17.4-7.5v8.4c0,6-3.9,10.1-9.2,10.1h-29.3v13.8h32c14.3,0,23.9-8.8,23.9-22.1V38.2h-17.6v6.4h0ZM463.6,88c-9.3,0-15.5-7-15.5-17.8s6.2-17.9,15.5-17.9,15.6,7.1,15.6,17.9-6.2,17.8-15.6,17.8Z"/>
  <path class="st0" d="M539.8,103.2c19.5,0,33.5-14,33.5-33s-14-33-33.5-33-33.5,14-33.5,33,14,33,33.5,33ZM539.8,88c-9.4,0-15.9-7.2-15.9-17.8s6.4-17.9,15.9-17.9,15.9,7.2,15.9,17.9c-.1,10.6-6.5,17.8-15.9,17.8Z"/>
  <path class="st0" d="M600.4,102.2v-35c0-8.2,5.4-14.2,13.1-14.2s12.2,5.6,12.2,13.3v35.9h17.6v-39.8c0-14.7-9.3-25.1-23.7-25.1s-15.7,3.7-19.3,9.9v-8.9h-17.5v63.9h17.6Z"/>
</svg>