<?xml version="1.0" encoding="utf-8"?>
<!-- Generator: Adobe Illustrator 25.4.1, SVG Export Plug-In . SVG Version: 6.00 Build 0)  -->
<svg version="1.1" id="Layer_1" xmlns="http://www.w3.org/2000/svg" xmlns:xlink="http://www.w3.org/1999/xlink" x="0px" y="0px"
	 viewBox="0 0 862.8 133.1" style="enable-background:new 0 0 862.8 133.1;" xml:space="preserve">
<style type="text/css">
	.st0{fill:#FFFFFF;}
	.st1{fill:none;stroke:#FFFFFF;stroke-width:9.65;stroke-miterlimit:10;}
</style>
<g>
	<path class="st0" d="M214.1,90.1c-0.3-0.7-0.6-1.4-0.8-2.1c-0.2-0.8-0.4-1.6-0.6-2.5c-0.7,0.8-1.6,1.5-2.4,2.2
		c-0.9,0.7-1.9,1.3-3,1.8c-1.2,0.5-2.4,0.9-3.7,1.2c-1.4,0.3-2.9,0.4-4.4,0.4c-2.4,0-4.7-0.3-7-1.1c-2-0.7-3.9-1.7-5.5-3.1
		c-1.5-1.3-2.7-2.9-3.6-4.7c-0.9-1.9-1.3-3.9-1.3-5.9c0-5.2,1.9-9.3,5.8-12.1c3.9-2.9,9.7-4.3,17.4-4.3h7.1V57
		c0.1-2.1-0.8-4.2-2.3-5.7c-1.6-1.4-3.8-2.1-6.7-2.1c-2.6,0-4.5,0.5-5.7,1.7c-1.2,1.2-1.9,2.8-1.8,4.5h-12.7c0-2.1,0.5-4.1,1.4-6
		c1-1.9,2.4-3.7,4.1-5c2-1.5,4.2-2.7,6.6-3.4c2.9-0.9,5.9-1.3,8.9-1.3c2.8,0,5.6,0.3,8.4,1.1c2.4,0.7,4.7,1.8,6.7,3.3
		c1.9,1.4,3.4,3.3,4.4,5.4c1.1,2.4,1.7,5,1.6,7.6v21.3c0,2.2,0.1,4.4,0.5,6.6c0.3,1.6,0.8,3.1,1.5,4.5v0.6H214.1z M202,81.2
		c1.2,0,2.4-0.1,3.6-0.4c1-0.3,2.1-0.7,3-1.2c0.8-0.4,1.6-1,2.3-1.7c0.6-0.6,1.1-1.2,1.5-1.9v-8.5h-6.5c-1.7,0-3.4,0.2-5.1,0.6
		c-1.2,0.3-2.4,0.8-3.4,1.6c-0.9,0.6-1.6,1.5-2,2.5s-0.7,2.1-0.6,3.1c0,1.6,0.6,3.2,1.8,4.3C197.7,80.6,199.5,81.2,202,81.2z"/>
	<path class="st0" d="M282.1,39.6c1.8,0,3.6,0.1,5.3,0.4c1.4,0.2,2.7,0.5,4,0.8l-1.9,12.8c-1.7-0.4-3.4-0.7-5.1-0.9
		c-1.7-0.2-3.3-0.3-5-0.3c-3-0.2-6,0.5-8.6,2c-2.2,1.4-3.9,3.5-4.8,5.9v29.8h-12.7V40.6h11.9l0.6,8.1c1.9-2.7,4.4-5,7.2-6.6
		C275.7,40.4,278.8,39.6,282.1,39.6z"/>
	<path class="st0" d="M341.5,74.6l4.3-34h11.7l-8.9,49.6h-11.1L331,58.6l-6.3,31.5h-11.2l-8.9-49.5h11.6l4.3,34.2l6.2-34.2h8.5
		L341.5,74.6z"/>
	<path class="st0" d="M397.2,91c-3.6,0-7.1-0.6-10.4-1.9c-3-1.2-5.7-2.9-8-5.1c-2.2-2.2-4-4.7-5.1-7.6c-1.2-3-1.8-6.2-1.8-9.4v-1.8
		c0-3.5,0.6-7.1,1.8-10.4c1.1-3,2.8-5.8,5-8.1c2.1-2.3,4.7-4.1,7.6-5.3c6.1-2.5,13-2.5,19.1-0.1c2.7,1.1,5.1,2.8,7.1,5
		c2,2.2,3.5,4.9,4.4,7.7c1,3.2,1.6,6.6,1.5,10v5.4h-33.7c0.2,1.6,0.7,3.2,1.5,4.6c1.5,2.8,3.9,4.9,6.9,5.9c1.6,0.6,3.2,0.8,4.9,0.8
		c1.3,0,2.5-0.1,3.7-0.4c1.2-0.2,2.4-0.6,3.5-1.1s2.2-1.1,3.2-1.8c1-0.7,1.8-1.5,2.6-2.5l6.4,6.9c-0.9,1.2-1.9,2.3-3.1,3.3
		c-1.4,1.2-2.9,2.1-4.5,2.9c-1.8,0.9-3.8,1.5-5.8,2C401.8,90.7,399.5,91,397.2,91z M395.7,49.9c-1.4,0-2.7,0.2-3.9,0.8
		c-1.2,0.5-2.3,1.2-3.1,2.2c-0.9,1-1.7,2.1-2.3,3.4c-0.6,1.4-1.1,2.9-1.4,4.4h20.9v-1c-0.1-1.3-0.3-2.6-0.8-3.8
		c-0.4-1.2-1.1-2.2-2-3.1s-2-1.6-3.1-2.1C398.6,50.2,397.2,49.9,395.7,49.9z"/>
	<path class="st0" d="M467.5,90.1c-0.3-0.7-0.6-1.4-0.8-2.1c-0.2-0.8-0.4-1.7-0.5-2.5c-0.8,0.8-1.6,1.5-2.5,2.2s-1.9,1.3-3,1.8
		c-1.2,0.5-2.4,0.9-3.7,1.2c-1.4,0.3-2.9,0.4-4.4,0.4c-2.4,0-4.7-0.3-7-1.1c-2-0.7-3.9-1.7-5.5-3.1c-3.1-2.6-4.9-6.5-4.9-10.6
		c0-5.2,1.9-9.3,5.8-12.1c3.9-2.9,9.7-4.3,17.4-4.3h7.1V57c0.1-2.1-0.8-4.2-2.3-5.7c-1.6-1.4-3.8-2.1-6.7-2.1
		c-2.6,0-4.5,0.5-5.7,1.7c-1.2,1.2-1.9,2.8-1.8,4.5h-12.7c0-2.1,0.5-4.1,1.4-6c1-1.9,2.4-3.7,4.1-5c2-1.5,4.2-2.7,6.6-3.4
		c2.9-0.9,5.9-1.3,8.9-1.3c2.8,0,5.6,0.3,8.4,1.1c2.4,0.7,4.7,1.8,6.7,3.3c1.9,1.4,3.4,3.3,4.4,5.4c1.1,2.4,1.7,5,1.6,7.6v21.3
		c0,2.2,0.1,4.4,0.5,6.6c0.3,1.6,0.8,3.1,1.5,4.5v0.6H467.5z M455.4,81.2c1.2,0,2.4-0.1,3.6-0.4c1-0.3,2-0.7,3-1.2
		c0.8-0.4,1.6-1,2.3-1.7c0.6-0.6,1.1-1.2,1.5-1.9v-8.5h-6.5c-1.7,0-3.4,0.2-5.1,0.6c-1.2,0.3-2.4,0.8-3.4,1.6
		c-0.9,0.6-1.6,1.5-2,2.5s-0.7,2.1-0.6,3.1c0,1.6,0.6,3.2,1.8,4.3C451.1,80.6,452.9,81.2,455.4,81.2z"/>
	<path class="st0" d="M521,75.4l0.6,3.6l0.6-3.4l10.9-35h13.3l-18.8,49.5h-12l-18.9-49.5H510L521,75.4z"/>
	<path class="st0" d="M587.3,91c-3.6,0-7.1-0.6-10.4-1.9c-3-1.2-5.7-2.9-8-5.1c-2.2-2.2-4-4.7-5.2-7.6c-1.2-3-1.8-6.2-1.8-9.4v-1.8
		c0-3.5,0.6-7.1,1.8-10.4c1.1-3,2.8-5.8,5-8.1c2.1-2.3,4.7-4.1,7.6-5.3c6.1-2.5,13-2.5,19.1-0.1c2.7,1.1,5.1,2.8,7.1,5
		c2,2.2,3.5,4.9,4.4,7.7c1,3.2,1.5,6.6,1.5,10v5.4h-33.6c0.2,1.6,0.7,3.2,1.5,4.6c1.5,2.8,3.9,4.9,6.8,5.9c1.6,0.6,3.2,0.8,4.9,0.8
		c1.3,0,2.5-0.1,3.7-0.4c1.2-0.2,2.4-0.6,3.5-1.1s2.2-1.1,3.2-1.8c1-0.7,1.8-1.5,2.6-2.5l6.4,6.9c-0.9,1.2-1.9,2.3-3.1,3.3
		c-1.4,1.2-2.9,2.1-4.5,2.9c-1.8,0.9-3.8,1.5-5.8,2C591.9,90.7,589.6,91,587.3,91z M585.8,49.9c-1.4,0-2.7,0.2-3.9,0.8
		c-1.2,0.5-2.3,1.2-3.1,2.2c-0.9,1-1.7,2.1-2.3,3.4c-0.6,1.4-1.1,2.9-1.4,4.4H596v-1c-0.1-1.3-0.3-2.6-0.8-3.8
		c-0.4-1.2-1.1-2.2-2-3.1s-2-1.6-3.1-2.1C588.7,50.2,587.2,49.9,585.8,49.9z"/>
	<path class="st0" d="M639.5,82.7c0-1.1,0.2-2.3,0.6-3.3c0.4-1,1-1.9,1.7-2.7c0.8-0.8,1.7-1.4,2.8-1.8c2.4-0.9,5-0.9,7.4,0
		c1,0.4,2,1,2.8,1.8s1.3,1.7,1.7,2.7c0.4,1.1,0.6,2.2,0.6,3.3c0,1.1-0.2,2.2-0.6,3.2c-0.4,1-1,1.9-1.7,2.6c-0.8,0.8-1.7,1.4-2.8,1.8
		c-2.4,0.9-5,0.9-7.4,0c-1-0.4-2-1-2.8-1.8c-0.8-0.7-1.4-1.6-1.7-2.6C639.7,84.9,639.5,83.8,639.5,82.7z"/>
	<path class="st0" d="M688.2,64.9c0-3.4,0.5-6.8,1.6-10c1-2.9,2.5-5.7,4.6-8c2-2.3,4.5-4.1,7.3-5.3c6.4-2.6,13.5-2.6,19.9,0
		c2.8,1.2,5.3,3,7.4,5.3c2,2.3,3.6,5.1,4.6,8c1.1,3.2,1.6,6.6,1.6,10v1c0,3.4-0.5,6.8-1.6,10.1c-1,2.9-2.5,5.7-4.5,8
		s-4.5,4.1-7.3,5.3c-3.1,1.3-6.5,2-9.9,1.9c-3.4,0.1-6.8-0.6-10-1.9c-2.8-1.2-5.3-3-7.4-5.3c-2-2.3-3.6-5.1-4.6-8
		c-1.1-3.2-1.6-6.6-1.6-10.1L688.2,64.9z M700.9,65.9c0,2,0.2,3.9,0.6,5.8c0.3,1.7,1,3.3,1.9,4.8c1.7,2.9,4.9,4.6,8.2,4.4
		c1.7,0.1,3.3-0.4,4.8-1.2c1.3-0.8,2.5-1.9,3.3-3.3c0.9-1.5,1.5-3.1,1.9-4.8c0.4-1.9,0.6-3.9,0.6-5.8v-1c0-1.9-0.2-3.8-0.6-5.7
		c-0.4-1.7-1-3.3-1.9-4.7c-0.8-1.3-1.9-2.5-3.3-3.2c-4.5-2.6-10.3-1.2-13,3.2c-0.9,1.5-1.5,3.1-1.9,4.8c-0.4,1.9-0.6,3.8-0.6,5.7
		V65.9z"/>
	<path class="st0" d="M788.9,39.6c1.8,0,3.6,0.1,5.3,0.4c1.4,0.2,2.7,0.5,4,0.8l-1.9,12.8c-1.7-0.4-3.4-0.7-5.2-0.9
		c-1.7-0.2-3.3-0.3-5-0.3c-3-0.1-6,0.6-8.6,2.1c-2.2,1.4-3.9,3.5-4.9,5.9v29.7h-12.7V40.6h11.9l0.6,8.1c1.9-2.7,4.4-5,7.3-6.7
		C782.5,40.4,785.7,39.6,788.9,39.6z"/>
	<path class="st0" d="M815.4,65c0-3.5,0.4-7,1.4-10.3c0.8-2.9,2.2-5.6,4-8c1.7-2.2,3.8-4,6.3-5.2c2.6-1.3,5.5-1.9,8.4-1.9
		c2.6-0.1,5.1,0.4,7.5,1.5c2.1,1,3.9,2.4,5.3,4.2l0.5-4.7h11.6v48c0.1,3.1-0.5,6.2-1.7,9c-1.1,2.5-2.7,4.8-4.8,6.6
		c-2.2,1.9-4.7,3.3-7.4,4.1c-3.1,1-6.3,1.4-9.6,1.4c-1.6,0-3.2-0.2-4.8-0.5c-1.7-0.3-3.4-0.8-5.1-1.4c-1.7-0.6-3.3-1.5-4.8-2.4
		c-1.5-1-2.8-2.2-3.8-3.6l5.7-7.8c1.5,1.8,3.4,3.2,5.5,4.2s4.3,1.5,6.6,1.4c3.6,0,6.4-1,8.4-2.9s3-4.6,3-8.1v-2.8
		c-1.5,1.6-3.3,2.9-5.2,3.8c-2.2,1-4.6,1.4-6.9,1.4c-2.9,0-5.7-0.6-8.3-1.9c-2.5-1.3-4.6-3.1-6.3-5.2c-1.8-2.4-3.2-5.1-4-8
		c-1-3.2-1.4-6.6-1.4-10V65H815.4z M828.1,66c0,1.9,0.2,3.9,0.6,5.8c0.4,1.7,1,3.2,1.9,4.7c0.8,1.3,1.9,2.4,3.2,3.1
		c1.4,0.8,3,1.2,4.7,1.2c1.9,0.1,3.8-0.4,5.5-1.3c1.5-0.9,2.6-2.1,3.5-3.6v-21c-0.8-1.5-2-2.7-3.5-3.6c-1.7-0.9-3.5-1.3-5.4-1.3
		c-1.6,0-3.3,0.4-4.7,1.2c-1.3,0.8-2.5,1.9-3.3,3.2c-0.9,1.5-1.6,3.1-2,4.8c-0.4,1.9-0.7,3.9-0.6,5.8L828.1,66z"/>
	<path class="st0" d="M74.3,90.1c-0.3-0.7-0.6-1.4-0.8-2.1c-0.2-0.8-0.4-1.7-0.6-2.5c-0.7,0.8-1.6,1.5-2.4,2.2
		c-0.9,0.7-1.9,1.3-3,1.8c-1.2,0.5-2.5,0.9-3.7,1.2c-1.4,0.3-2.9,0.4-4.3,0.4c-2.4,0-4.7-0.3-7-1.1c-2-0.7-3.9-1.7-5.5-3.1
		c-3.1-2.6-4.9-6.5-4.9-10.6c0-5.2,1.9-9.3,5.8-12.1c3.9-2.9,9.7-4.3,17.4-4.3h7.2V57c0.1-2.1-0.8-4.2-2.3-5.7
		c-1.6-1.4-3.8-2.1-6.7-2.1c-2.6,0-4.5,0.5-5.7,1.7c-1.2,1.2-1.9,2.8-1.8,4.5H43.3c0-2.1,0.5-4.1,1.4-6c1-1.9,2.4-3.7,4.1-5
		c2-1.5,4.2-2.7,6.5-3.4c2.9-0.9,5.9-1.3,8.9-1.3c2.8,0,5.6,0.3,8.4,1.1c2.4,0.7,4.7,1.8,6.7,3.3c1.9,1.4,3.5,3.3,4.5,5.5
		c1.1,2.4,1.7,5,1.6,7.6v21.3c0,2.2,0.1,4.4,0.5,6.6c0.3,1.6,0.8,3.1,1.5,4.5v0.5H74.3z M62.2,81.2c1.2,0,2.4-0.1,3.5-0.4
		c1-0.3,2-0.7,3-1.2c0.8-0.4,1.6-1,2.3-1.7c0.6-0.6,1.1-1.2,1.5-1.9v-8.5H66c-1.7,0-3.4,0.2-5.1,0.6c-1.2,0.3-2.4,0.8-3.4,1.6
		c-0.9,0.6-1.6,1.5-2,2.5s-0.7,2.1-0.6,3.1c0,1.6,0.6,3.2,1.8,4.3C57.9,80.6,59.7,81.2,62.2,81.2z"/>
	<circle class="st1" cx="64" cy="66.6" r="61.7"/>
</g>
</svg>
