<?xml version="1.0" encoding="utf-8"?>
<!-- Generator: Adobe Illustrator 25.4.1, SVG Export Plug-In . SVG Version: 6.00 Build 0)  -->
<svg version="1.1" id="Layer_1" xmlns="http://www.w3.org/2000/svg" xmlns:xlink="http://www.w3.org/1999/xlink" x="0px" y="0px"
	 viewBox="0 0 180 40" style="enable-background:new 0 0 180 40;" xml:space="preserve">
<style type="text/css">
	.st0{fill:#FFFFFF;}
</style>
<path class="st0" d="M69.6,16.9c6.3,0,12.4,0,18.5,0c0.8,0,1.7,0,2.5,0c1.8-0.2,3-1.1,3-3s-1.2-2.9-3-3c-3.7-0.1-7.4,0-11.1,0
	c-3.2,0-6.5,0-9.9,0c0-2,0-3.8,0-5.8c0.6-0.1,1.2-0.2,1.9-0.2c6.2,0,12.4,0,18.6,0c5.6,0,9.5,3.7,9.6,8.8s-4,9.2-9.5,9.3
	c-2.1,0.1-4.2,0-6.3,0c-2,0-4,0-6.1,0c1.6,4.1,4.3,6,8.5,6c4.3,0,8.7,0,13.2,0c0,2,0,3.8,0,6.1c-2.7,0-5.4,0-8.1,0
	c-12.1,0.1-11.8,0.4-19.9-9.4C69.3,23,69.4,20.3,69.6,16.9z"/>
<path class="st0" d="M30,5c0,1.9,0,3.7,0,5.9c-2.8,0-5.5,0-8.2,0c-3.4,0-6.9,0-10.3,0c-3.7,0-5.4,1.6-5.5,5.3
	c-0.1,2.6-0.1,5.2,0,7.8c0.1,3.4,1.9,5,5.3,5.1c6.2,0,12.4,0,18.8,0c0,2,0,3.9,0,5.9c-7.2,0-14.3,0.3-21.4-0.1
	c-4.7-0.3-8.3-4.6-8.6-9.4c-0.2-3.6-0.2-7.2,0-10.8c0.3-4.9,4-9.2,8.8-9.5C15.8,4.7,22.8,5,30,5z"/>
<path class="st0" d="M143.6,34.8c-0.4,0.1-0.5,0.2-0.7,0.2c-6.7,0.4-6.7,0.4-9.7-5.7c-2.5-4.9-4.9-9.8-7.6-15.2
	c-1.5,2.9-2.7,5.5-4,8c-1.9,3.7-3.8,7.5-5.6,11.2c-0.6,1.2-1.2,1.8-2.7,1.7c-1.8-0.1-3.6,0-5.8,0c0.4-0.9,0.6-1.6,1-2.3
	c4-8,8-16,12-24c1.1-2.1,2.4-3.9,5-3.9c2.8-0.1,4.2,1.7,5.3,3.9c4,8,8,16,12,24C143,33.5,143.3,34.2,143.6,34.8z"/>
<path class="st0" d="M180.2,4.8c0,2.1,0,3.9,0,6c-2.1,0-4.1,0-6.2,0c-3.9,0-5.7,1.7-5.8,5.6c-0.1,2.8,0.1,5.5-0.1,8.3
	c-0.3,5.9-4.6,10.1-10.6,10.2c-2.4,0.1-4.8,0-7.4,0c0-2,0-3.9,0-6c1.9,0,3.8,0,5.7,0c4.8,0,6.2-1.5,6.3-6.3c0-2.7-0.1-5.4,0.2-8
	c0.6-5.9,4.8-9.7,10.7-9.8C175.4,4.8,177.7,4.8,180.2,4.8z"/>
<path class="st0" d="M63.7,10.8c-10,0-19.9,0-29.9,0c0-1.9,0-3.7,0-5.7c9.9,0,19.8,0,29.9,0C63.7,6.8,63.7,8.7,63.7,10.8z"/>
<path class="st0" d="M33.8,17c10,0,19.8,0,29.9,0c0,1.9,0,3.7,0,5.8c-9.9,0-19.8,0-29.9,0C33.8,21,33.8,19.2,33.8,17z"/>
<path class="st0" d="M33.8,34.9c0-2,0-3.8,0-5.7c10,0,19.8,0,29.9,0c0,1.8,0,3.7,0,5.7C53.9,34.9,43.9,34.9,33.8,34.9z"/>
</svg>
