<?xml version="1.0" encoding="utf-8"?>
<!-- Generator: Adobe Illustrator 25.4.1, SVG Export Plug-In . SVG Version: 6.00 Build 0)  -->
<svg version="1.1" id="Layer_1" xmlns="http://www.w3.org/2000/svg" xmlns:xlink="http://www.w3.org/1999/xlink" x="0px" y="0px"
	 viewBox="0 0 381.8 77.6" style="enable-background:new 0 0 381.8 77.6;" xml:space="preserve">
<style type="text/css">
	.st0{fill:#FFFFFF;}
</style>
<path class="st0" d="M208.9,25.1h12.3v32.4h5.6V25.1h12.3v-4.9h-30.2V25.1z M116.2,50.9h-0.1l-10.8-30.7h-6l13.8,37.3h6.1l13.6-37.3
	h-5.7L116.2,50.9z M138.5,57.4H164v-4.9h-19.9V40.6h18.4v-4.8h-18.4V25.1H164v-4.9h-25.5V57.4z M197.2,49.4L197.2,49.4l-18.1-29.2
	h-6.7v37.2h5.4V27.5l0,0l18.4,29.9h6.4V20.2h-5.4L197.2,49.4z M268.4,44.3c0,5.6-3.2,9.1-8.9,9.1s-9-3.5-9-9.1v-24h-5.6v24.1
	c0,8,5.3,13.8,14.6,13.8S274,52.4,274,44.4V20.2h-5.6L268.4,44.3z M370.6,36.4l-5.1-0.8c-4.1-0.7-6.8-2.1-6.8-5.7c0-3.3,2.8-6,8.4-6
	s8.2,2.6,8.5,6.2h5.7c-0.2-5.7-4.9-10.7-14.1-10.7c-9,0-14.1,4.9-14.1,10.9c0,6.6,4.5,9.5,10.9,10.5l5.2,0.8
	c4.5,0.7,6.9,2.1,6.9,5.7c0,3.8-3.3,6.5-8.9,6.5s-9.1-2.5-9.4-7h-5.7c0.2,6.7,5.8,11.5,15,11.5c8.8,0,14.6-4.5,14.6-11.4
	C381.8,40.2,377.1,37.4,370.6,36.4L370.6,36.4z M320.9,57.4h25.5v-4.9h-19.9V40.6h18.4v-4.8h-18.4V25.1h19.9v-4.9h-25.5L320.9,57.4z
	 M300.4,41.9c7.9,0,12.2-4.2,12.2-10.7s-4.4-11-12.5-11H284v37.2h5.6V41.9l16.8,15.5h8l-17.2-15.5H300.4z M289.6,25H300
	c4.6,0,7,2.3,7,6v0.6c0,3.7-2.4,6-7,6h-10.4V25z M38.8,58.2c-10.7,0-19.4-8.7-19.4-19.4S28,19.4,38.8,19.4c9.5,0,17.6,6.8,19.2,16.2
	h19.6C75.7,14.2,56.9-1.7,35.6,0.1S-1.7,20.7,0.1,42S20.7,79.3,42,77.5C60.9,75.9,75.9,60.9,77.5,42H57.9
	C56.3,51.4,48.3,58.2,38.8,58.2z"/>
</svg>
