<?xml version="1.0" encoding="utf-8"?>
<!-- Generator: Adobe Illustrator 25.4.1, SVG Export Plug-In . SVG Version: 6.00 Build 0)  -->
<svg version="1.1" id="Layer_1" xmlns="http://www.w3.org/2000/svg" xmlns:xlink="http://www.w3.org/1999/xlink" x="0px" y="0px"
	 viewBox="0 0 200 75" style="enable-background:new 0 0 200 75;" xml:space="preserve">
<style type="text/css">
	.st0{fill:#FFFFFF;}
</style>
<g>
	<path id="path84" class="st0" d="M25,69.3h150V5.7H25V69.3z M176.3,70.6H23.7V4.4h152.5V70.6z"/>
	<g id="g86" transform="translate(822.3271,841.5928)">
		<path id="path88" class="st0" d="M-781.7-826.4h9.3l-0.8,2.4h-5.1v5.6h4v2.4h-4v9.4h-3.4V-826.4z"/>
	</g>
	<g id="g90" transform="translate(1049.377,825.7793)">
		<path id="path92" class="st0" d="M-911.5-803.8h-1.4v-2h1.4v-2h3.3v2h2.9v2h-2.9v9.5c0,0.3,0,0.6,0.1,0.8c0.1,0.2,0.2,0.4,0.3,0.5
			c0.1,0.1,0.3,0.2,0.5,0.2c0.2,0,0.4,0.1,0.5,0.1c0.3,0,0.6,0,0.8-0.1c0.2-0.1,0.5-0.2,0.7-0.3v1.5c-0.2,0.2-0.4,0.4-0.6,0.5
			c-0.2,0.1-0.4,0.2-0.7,0.3s-0.5,0.1-0.7,0.2c-0.2,0-0.5,0-0.7,0c-0.5,0-0.9-0.1-1.3-0.2c-0.4-0.1-0.8-0.3-1.1-0.6
			c-0.3-0.3-0.6-0.7-0.8-1.2c-0.2-0.5-0.3-1.2-0.3-2V-803.8z"/>
	</g>
	<g id="g94" transform="translate(1091.6816,841.5928)">
		<path id="path96" class="st0" d="M-935.6-826.4h3.4v17.6v2.2h-3.4V-826.4z"/>
	</g>
	<g id="g98" transform="translate(1002.0166,818.1016)">
		<path id="path100" class="st0" d="M-884.4-792.9c0-0.6,0-1.2,0.1-1.6c0.1-0.4,0.2-0.8,0.3-1.1c0.1-0.3,0.3-0.5,0.5-0.6
			c0.2-0.1,0.5-0.2,0.8-0.2c0.5,0,1,0.2,1.2,0.7c0.3,0.4,0.4,1.1,0.4,2.1v0.4c0,0.1,0,0.3,0,0.4c0,0.1,0,0.3,0,0.4
			c0,0.1,0,0.2,0,0.3h-3.3V-792.9z M-878.5-790.1h0.4v-3.5c0-0.9-0.1-1.7-0.4-2.3c-0.2-0.6-0.6-1.1-1-1.4c-0.4-0.4-0.9-0.6-1.4-0.8
			c-0.5-0.1-1.1-0.2-1.7-0.2c-0.3,0-0.7,0-1,0.1c-0.4,0-0.8,0.1-1.1,0.3c-0.4,0.1-0.8,0.3-1.1,0.6c-0.4,0.3-0.7,0.6-0.9,1.1
			c-0.3,0.5-0.5,1-0.7,1.7c-0.2,0.7-0.3,1.5-0.3,2.4v2.8c0,1.1,0.1,2.1,0.3,2.9c0.2,0.8,0.5,1.4,0.9,2c0.4,0.5,0.9,0.9,1.5,1.1
			c0.6,0.2,1.3,0.4,2,0.4c1.5,0,2.7-0.3,3.5-1c0.8-0.7,1.2-1.7,1.2-3.1v-0.6h-2.7v0.5c0,0.4,0,0.7-0.1,1c-0.1,0.3-0.2,0.5-0.3,0.6
			c-0.1,0.2-0.3,0.3-0.5,0.3c-0.2,0.1-0.4,0.1-0.6,0.1c-0.4,0-0.7-0.1-0.9-0.2c-0.2-0.1-0.4-0.3-0.6-0.6c-0.1-0.3-0.2-0.6-0.3-1.1
			c-0.1-0.4-0.1-1-0.1-1.7v-1.5H-878.5z"/>
	</g>
	<g id="g102" transform="translate(893.0181,828.6143)">
		<path id="path104" class="st0" d="M-822.1-807.9c-0.6-0.6-1.4-0.9-2.4-0.9c-0.3,0-0.7,0-1,0.1c-0.3,0.1-0.7,0.2-1,0.3
			s-0.6,0.3-0.9,0.5c0,0-0.1,0.1-0.1,0.1l-1-0.9h-2.5v15h3.3v-12.1c0.3-0.3,0.5-0.6,0.9-0.8s0.7-0.3,1-0.3c0.5,0,0.8,0.1,1.1,0.4
			c0.2,0.3,0.4,0.7,0.4,1.4v11.4h3.3v-11.5C-821.3-806.3-821.6-807.3-822.1-807.9"/>
	</g>
	<g id="g106" transform="translate(859.2544,830.356)">
		<path id="path108" class="st0" d="M-802.8-810.4v12.2c-0.3,0.3-0.5,0.5-0.8,0.7c-0.3,0.2-0.6,0.2-1,0.2c-0.5,0-0.8-0.1-1.1-0.4
			c-0.2-0.3-0.4-0.7-0.4-1.4v-11.3h-3.3v11.5c0,1.2,0.3,2.2,0.8,2.8c0.6,0.6,1.4,0.9,2.4,0.9c0.3,0,0.7,0,1-0.1
			c0.3-0.1,0.7-0.2,1-0.3c0.3-0.1,0.6-0.3,0.9-0.5c0,0,0.1-0.1,0.1-0.1l1,0.9h2.5v-15H-802.8z"/>
	</g>
	<g id="g110" transform="translate(910.6729,799.9238)">
		<path id="path112" class="st0" d="M-832.2-766.9c-0.2,0-0.5,0-0.7-0.1c-0.2-0.1-0.4-0.2-0.5-0.4c-0.1-0.2-0.3-0.5-0.3-0.8
			c-0.1-0.4-0.1-0.8-0.1-1.4v-5.8c0-0.6,0-1,0.1-1.4c0.1-0.4,0.2-0.6,0.3-0.8c0.1-0.2,0.3-0.3,0.5-0.4c0.2-0.1,0.4-0.1,0.7-0.1
			c0.4,0,0.7,0.1,1,0.3c0.3,0.2,0.5,0.5,0.7,0.8v9c-0.1,0.1-0.2,0.3-0.3,0.4c-0.1,0.1-0.2,0.2-0.4,0.3c-0.1,0.1-0.3,0.2-0.5,0.2
			C-831.8-766.9-832-766.9-832.2-766.9 M-830.6-784.7v4l0.1,1.9l0,0c-0.1-0.2-0.3-0.3-0.5-0.5c-0.2-0.1-0.4-0.3-0.6-0.4
			c-0.2-0.1-0.5-0.2-0.8-0.3c-0.3-0.1-0.6-0.1-0.9-0.1c-0.2,0-0.4,0-0.7,0s-0.5,0.1-0.8,0.2c-0.3,0.1-0.6,0.3-0.9,0.5
			c-0.3,0.2-0.6,0.5-0.8,0.9c-0.2,0.4-0.4,0.9-0.6,1.4c-0.1,0.6-0.2,1.3-0.2,2.1v4.8c0,0.8,0.1,1.6,0.2,2.2c0.1,0.6,0.3,1.1,0.5,1.5
			c0.2,0.4,0.5,0.7,0.7,1c0.3,0.2,0.6,0.4,0.8,0.5c0.3,0.1,0.6,0.2,0.8,0.2c0.3,0,0.5,0,0.7,0c0.4,0,0.8,0,1.1-0.1
			c0.3-0.1,0.6-0.2,0.9-0.4c0.2-0.1,0.4-0.3,0.6-0.4l0.9,0.7h2.6v-19.8H-830.6z"/>
	</g>
	<g id="g114" transform="translate(936.2764,799.9238)">
		<path id="path116" class="st0" d="M-846.8-766.9c-0.6,0-1-0.2-1.3-0.5c-0.3-0.3-0.4-0.8-0.4-1.4c0-0.4,0.1-0.7,0.2-1
			c0.1-0.3,0.3-0.6,0.4-0.8c0.2-0.2,0.4-0.4,0.6-0.6c0.2-0.2,0.5-0.3,0.7-0.4c0.3-0.1,0.5-0.2,0.7-0.3c0.2-0.1,0.4-0.1,0.6-0.2v4.7
			c-0.2,0.2-0.4,0.3-0.7,0.4C-846.3-766.9-846.6-766.9-846.8-766.9 M-842.4-777.9c-0.1-0.5-0.4-0.9-0.7-1.2
			c-0.4-0.3-0.8-0.6-1.4-0.7c-0.6-0.2-1.3-0.2-2.2-0.2c-0.7,0-1.3,0.1-1.9,0.2c-0.6,0.1-1.1,0.4-1.5,0.7c-0.4,0.3-0.7,0.7-1,1.1
			c-0.2,0.4-0.3,0.9-0.3,1.5v1.5h0.2h2.5v-0.7c0-0.4,0.1-0.8,0.1-1.1c0.1-0.3,0.2-0.5,0.4-0.7c0.2-0.2,0.4-0.3,0.6-0.4
			c0.2-0.1,0.4-0.1,0.7-0.1c0.3,0,0.6,0.1,0.8,0.2c0.2,0.1,0.3,0.3,0.4,0.4c0.1,0.2,0.2,0.4,0.2,0.7c0,0.3,0,0.5,0,0.8v2
			c-0.3,0.1-0.7,0.2-1.1,0.4c-0.4,0.1-0.8,0.3-1.1,0.4c-0.7,0.3-1.3,0.6-1.8,0.9c-0.5,0.3-1,0.7-1.3,1.1c-0.4,0.4-0.6,0.8-0.8,1.3
			c-0.2,0.5-0.3,1-0.3,1.6c0,0.5,0.1,1,0.2,1.4c0.2,0.4,0.4,0.8,0.7,1.1c0.3,0.3,0.7,0.6,1.1,0.8c0.4,0.2,0.9,0.3,1.5,0.3
			c0.8,0,1.4-0.1,2-0.4c0.3-0.1,0.6-0.3,0.8-0.5l0.8,0.7h2.4v-11.2C-842.2-776.8-842.2-777.4-842.4-777.9"/>
	</g>
	<g id="g118" transform="translate(988.3584,828.6143)">
		<path id="path120" class="st0" d="M-876.6-807.9c-0.6-0.6-1.4-0.9-2.4-0.9c-0.3,0-0.7,0-1,0.1c-0.3,0.1-0.6,0.1-0.9,0.3
			c-0.3,0.1-0.6,0.3-0.9,0.5c-0.3,0.2-0.6,0.5-0.8,0.8c-0.3-0.6-0.6-1-1.1-1.3c-0.5-0.3-1.1-0.4-1.8-0.4c-0.3,0-0.7,0-1,0.1
			c-0.3,0.1-0.7,0.2-1,0.3c-0.3,0.1-0.6,0.3-0.9,0.5c0,0-0.1,0.1-0.1,0.1l-1-0.8h-2.5v15h3.3v-12.1c0.2-0.3,0.5-0.6,0.8-0.8
			c0.3-0.2,0.6-0.3,0.9-0.3c0.3,0,0.5,0,0.7,0.1c0.2,0.1,0.3,0.2,0.5,0.3c0.1,0.1,0.2,0.3,0.3,0.5c0.1,0.2,0.1,0.5,0.1,0.8v11.4h3.3
			v-11.7v-0.2c0-0.1,0-0.1,0-0.2c0.3-0.3,0.5-0.6,0.8-0.8c0.3-0.2,0.6-0.3,0.9-0.3c0.3,0,0.5,0,0.7,0.1c0.2,0.1,0.3,0.2,0.5,0.3
			c0.1,0.1,0.2,0.3,0.3,0.5c0.1,0.2,0.1,0.5,0.1,0.8v11.4h3.3v-11.5C-875.8-806.3-876-807.3-876.6-807.9"/>
	</g>
	<g id="g122" transform="translate(1041.4424,828.6143)">
		<path id="path124" class="st0" d="M-906.9-807.9c-0.6-0.6-1.4-0.9-2.4-0.9c-0.3,0-0.7,0-1,0.1c-0.3,0.1-0.7,0.2-1,0.3
			c-0.3,0.1-0.6,0.3-0.9,0.5c0,0-0.1,0.1-0.1,0.1l-1-0.9h-2.5v15h3.3v-12.1c0.3-0.3,0.5-0.6,0.9-0.8c0.3-0.2,0.7-0.3,1-0.3
			c0.5,0,0.8,0.1,1.1,0.4c0.2,0.3,0.4,0.7,0.4,1.4v11.4h3.3v-11.5C-906.1-806.3-906.4-807.3-906.9-807.9"/>
	</g>
	<g id="g126" transform="translate(1076.7383,799.9238)">
		<path id="path128" class="st0" d="M-927.1-766.9c-0.6,0-1-0.2-1.3-0.5c-0.3-0.3-0.4-0.8-0.4-1.4c0-0.4,0.1-0.7,0.2-1
			c0.1-0.3,0.3-0.6,0.4-0.8c0.2-0.2,0.4-0.4,0.6-0.6c0.2-0.2,0.5-0.3,0.7-0.4c0.3-0.1,0.5-0.2,0.7-0.3c0.2-0.1,0.4-0.1,0.6-0.2v4.7
			c-0.2,0.2-0.4,0.3-0.7,0.4C-926.6-766.9-926.8-766.9-927.1-766.9 M-922.6-777.9c-0.1-0.5-0.4-0.9-0.7-1.2
			c-0.4-0.3-0.8-0.6-1.4-0.7c-0.6-0.2-1.3-0.2-2.2-0.2c-0.7,0-1.3,0.1-1.9,0.2c-0.6,0.1-1.1,0.4-1.5,0.7c-0.4,0.3-0.7,0.7-1,1.1
			c-0.2,0.4-0.3,0.9-0.3,1.5v1.5h0.2h2.5v-0.7c0-0.4,0.1-0.8,0.1-1.1c0.1-0.3,0.2-0.5,0.4-0.7c0.2-0.2,0.4-0.3,0.6-0.4
			c0.2-0.1,0.4-0.1,0.7-0.1c0.3,0,0.6,0.1,0.8,0.2c0.2,0.1,0.3,0.3,0.4,0.4c0.1,0.2,0.2,0.4,0.2,0.7c0,0.3,0,0.5,0,0.8v2
			c-0.3,0.1-0.7,0.2-1.1,0.4c-0.4,0.1-0.8,0.3-1.1,0.4c-0.7,0.3-1.3,0.6-1.8,0.9c-0.5,0.3-1,0.7-1.3,1.1c-0.4,0.4-0.6,0.8-0.8,1.3
			c-0.2,0.5-0.3,1-0.3,1.6c0,0.5,0.1,1,0.2,1.4c0.2,0.4,0.4,0.8,0.7,1.1c0.3,0.3,0.7,0.6,1.1,0.8c0.4,0.2,0.9,0.3,1.5,0.3
			c0.8,0,1.4-0.1,2-0.4c0.3-0.1,0.6-0.3,0.8-0.5l0.8,0.7h2.4v-11.2C-922.4-776.8-922.5-777.4-922.6-777.9"/>
	</g>
	<g id="g130" transform="translate(952.2676,742.4258)">
		<path id="path132" class="st0" d="M-856-684.7c-0.6,0-1-0.2-1.3-0.5c-0.3-0.3-0.4-0.8-0.4-1.4c0-0.4,0.1-0.7,0.2-1
			c0.1-0.3,0.3-0.6,0.4-0.8c0.2-0.2,0.4-0.4,0.6-0.6c0.2-0.2,0.5-0.3,0.7-0.4c0.3-0.1,0.5-0.2,0.7-0.3c0.2-0.1,0.4-0.1,0.6-0.2v4.7
			c-0.2,0.2-0.4,0.3-0.7,0.4C-855.4-684.8-855.7-684.7-856-684.7 M-851.5-695.7c-0.1-0.5-0.4-0.9-0.7-1.2c-0.4-0.3-0.8-0.6-1.4-0.7
			s-1.3-0.2-2.2-0.2c-0.7,0-1.3,0.1-1.9,0.2c-0.6,0.1-1.1,0.4-1.5,0.7c-0.4,0.3-0.7,0.7-1,1.1c-0.2,0.4-0.3,0.9-0.3,1.5v1.5h0.2h2.5
			v-0.7c0-0.4,0-0.8,0.1-1.1c0.1-0.3,0.2-0.5,0.4-0.7c0.2-0.2,0.4-0.3,0.6-0.4c0.2-0.1,0.4-0.1,0.7-0.1c0.3,0,0.6,0.1,0.8,0.2
			c0.2,0.1,0.3,0.3,0.4,0.4c0.1,0.2,0.2,0.4,0.2,0.7c0,0.3,0,0.5,0,0.8v2c-0.3,0.1-0.7,0.2-1.1,0.4c-0.4,0.1-0.8,0.3-1.1,0.4
			c-0.7,0.3-1.3,0.6-1.8,0.9c-0.5,0.3-1,0.7-1.3,1.1c-0.4,0.4-0.6,0.8-0.8,1.3s-0.3,1-0.3,1.6c0,0.5,0.1,1,0.2,1.4
			c0.2,0.4,0.4,0.8,0.7,1.1c0.3,0.3,0.7,0.6,1.1,0.8s0.9,0.3,1.5,0.3c0.8,0,1.4-0.1,2-0.4c0.3-0.1,0.6-0.3,0.8-0.5l0.8,0.7h2.4V-694
			C-851.3-694.7-851.4-695.3-851.5-695.7"/>
	</g>
	<g id="g134" transform="translate(983.5635,748.8071)">
		<path id="path136" class="st0" d="M-873.9-693.9c0,0.6,0,1-0.1,1.4c-0.1,0.4-0.2,0.6-0.3,0.8c-0.1,0.2-0.3,0.3-0.5,0.4
			c-0.2,0.1-0.4,0.1-0.7,0.1c-0.2,0-0.4,0-0.6-0.1c-0.2-0.1-0.3-0.1-0.5-0.2c-0.1-0.1-0.2-0.2-0.3-0.3c-0.1-0.1-0.2-0.3-0.3-0.4
			v-9.1c0.2-0.3,0.4-0.5,0.6-0.7c0.3-0.2,0.6-0.3,1-0.3c0.2,0,0.5,0,0.7,0.1s0.4,0.2,0.5,0.4c0.1,0.2,0.3,0.5,0.3,0.8
			c0.1,0.4,0.1,0.8,0.1,1.4V-693.9z M-870.8-701.1c-0.1-0.6-0.3-1.1-0.5-1.5c-0.2-0.4-0.5-0.7-0.7-0.9c-0.3-0.2-0.5-0.4-0.8-0.5
			c-0.3-0.1-0.5-0.2-0.8-0.2c-0.3,0-0.5,0-0.7,0c-0.4,0-0.7,0-1,0.1c-0.3,0.1-0.6,0.2-0.8,0.3c-0.2,0.1-0.5,0.3-0.7,0.4
			c-0.2,0.2-0.4,0.3-0.5,0.5l0,0l0.1-2v-4h-3.3v19.8h2.6l0.9-0.7c0.2,0.2,0.4,0.3,0.6,0.4c0.3,0.1,0.5,0.3,0.9,0.4
			c0.3,0.1,0.7,0.1,1.1,0.1c0.2,0,0.4,0,0.7,0c0.3,0,0.5-0.1,0.8-0.2c0.3-0.1,0.6-0.3,0.8-0.5c0.3-0.2,0.5-0.5,0.7-1
			c0.2-0.4,0.4-0.9,0.5-1.5c0.1-0.6,0.2-1.3,0.2-2.2v-4.5C-870.6-699.8-870.6-700.5-870.8-701.1"/>
	</g>
	<g id="g138" transform="translate(1013.8604,748.5786)">
		<path id="path140" class="st0" d="M-891.2-693.5c-0.2-0.4-0.3-0.8-0.6-1.1c-0.2-0.3-0.5-0.6-0.7-0.9c-0.3-0.3-0.5-0.5-0.7-0.7
			l-2.6-2.6c-0.3-0.3-0.6-0.7-0.8-1s-0.3-0.6-0.3-1c0-0.2,0-0.3,0.1-0.5c0-0.2,0.1-0.3,0.2-0.4c0.1-0.1,0.3-0.2,0.5-0.3
			c0.2-0.1,0.4-0.1,0.7-0.1c0.3,0,0.6,0.1,0.8,0.2c0.2,0.1,0.4,0.3,0.5,0.6c0.1,0.2,0.2,0.6,0.2,0.9c0,0.4,0.1,0.8,0.1,1.3h2.3h0.3
			v-1.9c0-0.5-0.1-1-0.3-1.4c-0.2-0.4-0.5-0.7-0.9-1c-0.4-0.3-0.8-0.5-1.3-0.6c-0.5-0.1-1.1-0.2-1.8-0.2c-0.6,0-1.1,0.1-1.7,0.2
			c-0.5,0.1-1,0.3-1.4,0.6c-0.4,0.3-0.7,0.6-1,1.1c-0.2,0.4-0.4,0.9-0.4,1.5c0,0.4,0.1,0.8,0.2,1.2c0.1,0.4,0.3,0.8,0.5,1.1
			c0.2,0.4,0.5,0.7,0.8,1c0.3,0.3,0.6,0.7,0.9,1l2.4,2.4c0.2,0.2,0.3,0.3,0.5,0.5s0.3,0.3,0.4,0.5c0.1,0.1,0.2,0.3,0.2,0.4
			c0.1,0.1,0.1,0.3,0.1,0.5c0,0.3-0.1,0.6-0.3,0.8c-0.2,0.2-0.6,0.3-1.1,0.3c-0.4,0-0.7,0-0.9-0.1c-0.2-0.1-0.4-0.3-0.6-0.5
			c-0.1-0.2-0.3-0.5-0.3-0.9c-0.1-0.4-0.1-0.8-0.1-1.4h-2.3h-0.3v1.7c0,0.6,0.1,1.1,0.3,1.6c0.2,0.4,0.5,0.8,0.9,1
			c0.4,0.3,0.8,0.4,1.4,0.6c0.5,0.1,1.1,0.2,1.7,0.2c0.7,0,1.4-0.1,1.9-0.3c0.6-0.2,1-0.4,1.4-0.7c0.4-0.3,0.7-0.7,0.9-1.1
			c0.2-0.4,0.3-0.9,0.3-1.4C-890.9-692.7-891-693.1-891.2-693.5"/>
	</g>
	<g id="g142" transform="translate(919.0952,784.0952)">
		<path id="path144" class="st0" d="M-837-744.3h3.4v17.6h5l-0.8,2.2h-7.6V-744.3z"/>
	</g>
</g>
</svg>
