<svg width="125" height="53" viewBox="0 0 125 53" fill="none" xmlns="http://www.w3.org/2000/svg">
<path d="M42.3812 40.4608C41.31 40.4608 40.4462 41.3248 40.4462 42.4076C40.4462 43.5018 41.31 44.3541 42.3698 44.3541C43.441 44.3541 44.282 43.5018 44.282 42.4076C44.2934 41.3248 43.441 40.4608 42.3812 40.4608ZM42.3812 44.0547C41.5174 44.0547 40.8148 43.329 40.8148 42.4076C40.8148 41.4976 41.5174 40.7718 42.3698 40.7718H42.3812C43.2452 40.7718 43.9364 41.5089 43.9364 42.4189C43.9364 43.3289 43.2452 44.0547 42.3812 44.0547ZM42.7268 42.4651V42.4422C42.9572 42.373 43.153 42.2002 43.153 41.9122C43.153 41.705 43.084 41.5552 42.9572 41.463C42.8306 41.3708 42.6116 41.3018 42.2892 41.3018C42.0358 41.3018 41.863 41.3247 41.6786 41.3593V43.5247H42.0242V42.5918H42.266C42.5426 42.5918 42.6808 42.6956 42.7268 42.972C42.773 43.26 42.819 43.4557 42.8766 43.5247H43.2336C43.1992 43.4557 43.153 43.3289 43.0954 42.9949C43.0494 42.6723 42.9112 42.4997 42.7268 42.4651ZM42.2546 42.327H42.0126V41.5897C42.0702 41.5781 42.151 41.5782 42.266 41.5782C42.6578 41.5782 42.796 41.7626 42.796 41.9584C42.7844 42.2232 42.5426 42.327 42.2546 42.327ZM85.3354 15.7412C87.6276 15.7412 89.8622 16.0868 91.9242 16.7434L93.7672 10.8457C91.6822 10.2467 89.2056 9.94721 86.8098 9.94721C75.5328 9.94721 68.4832 17.4345 66.4098 28.1241C64.7856 36.5097 67.0548 44.3541 78.8272 44.3541C81.9718 44.3541 85.128 43.7552 87.8004 42.8568L88.1804 37.0627C86.2798 37.8575 83.4232 38.4566 81.3728 38.4566C74.5882 38.4566 72.342 34.3673 73.7588 27.0181C75.0374 20.487 79.046 15.7412 85.3354 15.7412ZM112.762 15.7412C115.054 15.7412 117.289 16.0868 119.351 16.7434L121.194 10.8457C119.12 10.2467 116.632 9.94721 114.236 9.94721C102.959 9.94721 95.9212 17.4345 93.8362 28.1241C92.212 36.5097 94.4814 44.3541 106.254 44.3541C109.398 44.3541 112.554 43.7552 115.227 42.8568L115.607 37.0627C113.706 37.8575 110.85 38.4566 108.799 38.4566C102.015 38.4566 99.7684 34.3673 101.185 27.0181C102.452 20.487 106.473 15.7412 112.762 15.7412ZM51.4122 43.9049H57.8972L64.44 10.2006H57.9548L51.4122 43.9049ZM21.152 16.4208C23.4097 12.3201 27.545 8.36911 28.2476 7.79317C28.8236 7.3209 28.9272 6.72191 28.8696 6.4685C28.7428 5.93863 27.3836 5.32812 25.0798 5.32812C14.0909 5.32812 4.80664 13.7484 4.80664 24.8066C4.80664 28.1241 5.33651 30.6237 6.546 33.1577C6.71878 33.5149 6.99524 33.6647 7.24864 33.6647C7.60574 33.6647 7.91674 33.3881 7.93978 33.0425C8.22776 27.9167 9.92104 21.708 11.6604 18.6094C12.5589 17.1004 13.4804 15.5799 14.5632 15.5799C14.8857 15.5799 15.7381 15.8218 15.7381 16.513C15.7381 17.2156 14.9894 18.2869 14.2061 19.9687C12.4782 23.8851 11.7525 27.3753 11.2457 29.8979C10.7043 32.9965 10.5315 36.2449 10.7734 38.9403C11.0269 43.0641 12.8353 45.3909 13.849 44.6191C14.5747 44.0661 13.4113 43.3865 13.7568 42.6839C13.849 42.4997 14.1139 42.2462 14.4595 42.2578C14.6668 42.2578 15.1852 42.3269 15.4271 42.0965C15.6575 41.8661 15.6114 41.3478 15.5999 41.0484C15.3464 36.913 15.692 34.2291 16.0491 31.7295C16.9015 25.8547 18.8943 20.5216 21.152 16.4208ZM25.0454 31.7063C27.015 21.731 32.0834 14.8888 37.0134 11.3755C37.7046 10.8802 37.4972 10.0739 36.8752 9.55557C36.069 8.88747 36.6448 7.94291 37.2092 7.73557C37.647 7.57431 38.2 7.49368 38.3728 7.34394C38.4878 7.24026 38.5454 7.06748 38.5454 6.88318C38.5454 6.49154 38.2806 6.08837 37.071 6.08837C36.161 6.08837 34.9976 6.4685 34.606 6.66432C25.6328 11.03 18.7445 26.0508 18.7445 39.5508C18.7445 42.6494 18.9749 45.7366 20.1383 47.6026C20.6567 48.432 21.3132 48.9963 21.9122 48.4549C22.0044 48.3743 22.3615 48.0058 21.9007 47.257C21.5551 46.7042 21.6703 45.9783 21.9468 45.6443C22.684 44.7457 23.2945 45.4369 24.0432 44.7803C24.3888 44.4809 24.5961 43.9971 24.504 43.1447C24.4003 42.2807 24.1699 40.6912 24.2506 38.756C24.3197 36.268 24.6076 33.9181 25.0454 31.7063ZM42.3468 13.9327C42.5196 13.8291 42.7384 13.7484 43.0034 13.7024C43.4064 13.6448 44.04 13.5641 44.04 12.7578C44.04 11.7902 42.1278 11.8248 41.0336 12.3547C31.8184 16.8931 27.3836 31.4761 27.4068 38.9749C27.4182 41.7739 27.4642 45.7709 29.5492 47.3951C29.8488 47.6255 30.1828 47.6486 30.4476 47.568C30.9546 47.3952 31.0006 46.7848 30.7818 46.4738C30.6436 46.278 30.4362 45.9783 30.344 45.4715C30.2518 44.9647 30.3786 44.1007 31.1964 43.8359C32.452 43.4327 33.6614 42.8683 34.8248 42.1541C39.9048 39.0669 43.8788 33.2615 44.328 26.4307C44.5468 22.2379 43.729 18.4942 41.8284 15.5224C41.6326 15.1768 41.6672 14.3589 42.3468 13.9327Z" fill="white"/>
</svg>
