<?xml version="1.0" encoding="utf-8"?>
<!-- Generator: Adobe Illustrator 26.0.3, SVG Export Plug-In . SVG Version: 6.00 Build 0)  -->
<svg version="1.0" id="katman_1" xmlns="http://www.w3.org/2000/svg" xmlns:xlink="http://www.w3.org/1999/xlink" x="0px" y="0px"
	 viewBox="0 0 600 450" style="enable-background:new 0 0 600 450;" xml:space="preserve">
<style type="text/css">
	.st0{fill:#FFFFFF;}
	.st1{fill-rule:evenodd;clip-rule:evenodd;fill:#FFFFFF;}
	.st2{fill:#FFFFFF;}
</style>
<path class="st0" d="M291.4,114.1h-11.6v11.5h11.6V114.1z M326.2,123.7h11.6v11.5h-11.6V123.7z M82.6,152.5h23.2v103.6H82.6V152.5
	L82.6,152.5z"/>
<path class="st1" d="M148.3,256.1V152.5h81.2v103.6H148.3z M206.3,175.5V233h-34.8v-57.5C171.5,175.5,206.3,175.5,206.3,175.5z"/>
<path class="st0" d="M343.6,152.5h-81.2v61.4h58V233h-58v23h81.2v-65.2h-58v-15.3h58C343.6,175.5,343.6,152.5,343.6,152.5z
	 M384.2,152.5h81.2v23h-58V233h34.8v-19.2h-19.3v-23h42.5v65.2h-81.2V152.5L384.2,152.5z M492.5,185.1h-11.6v11.5h11.6V185.1z
	 M250.8,127.6h11.6v11.5h-11.6V127.6z M127.1,116.1h-11.6v11.5h11.6V116.1z M506,219.6h11.6v11.5H506V219.6z M488.6,240.7H477v11.5
	h11.6V240.7z"/>
<g>
	<path class="st0" d="M82.6,288.7h5.8l12.6,35.8l12.6-35.8h5.8l-15.5,44.1h-5.8L82.6,288.7z M138.7,288.7h29v5.8h-23.2v13.4h21.3v5.8h-21.3V327
		h23.2v5.8h-29C138.7,332.8,138.7,288.7,138.7,288.7z M192.8,288.7H187v44.1h5.8v-26.8h5.8v5.7h5.8v5.8h5.8v5.8h5.8v9.6h5.8v-44.1
		H216v28.8h-5.8v-5.8h-5.8v-5.8h-5.8v-5.7h-5.8C192.8,300.2,192.8,288.7,192.8,288.7z M353.3,319.3h5.8v5.7h-5.8V319.3L353.3,319.3z
		 M364.9,330.9h-5.8v-5.7h5.8L364.9,330.9L364.9,330.9z M364.9,330.9h5.8v5.8h-5.8V330.9z"/>
	<path class="st0" d="M353.3,313.6v5.8h-5.8v-5.8h-5.8v19.2h-5.8v-44.1H361v5.8h-19.3v13.4H361v5.8H353.3L353.3,313.6z"/>
	<path class="st0" d="M361,307.8v-13.4h5.8v13.4H361z M293.4,288.7h-5.8V327h5.8v5.8h19.3V327h5.8v-38.4h-5.8V327h-19.3L293.4,288.7L293.4,288.7
		z M469.3,313.6h-5.8v-5.8h-19.3v-13.4h23.2v-5.8h-23.2v5.8h-5.8v13.4h5.8v5.8h19.3V327h-23.2v5.8h23.2V327h5.8L469.3,313.6
		L469.3,313.6z M270.2,294.4h-13.5v38.4h-5.8v-38.4h-15.5v-5.8h34.8L270.2,294.4L270.2,294.4z M390,288.7v44.1h29V327h-23.2v-13.4
		h21.3v-5.8h-21.3v-13.4H419v-5.8H390z"/>
</g>
<g>
	<path class="st2" d="M105.8,152.5H94.2V164h11.6V152.5z M94.2,175.5h11.6V187H94.2V175.5z M94.2,198.5H82.6V187h11.6V198.5z
		 M94.2,198.5h11.6V210H94.2V198.5z M148.3,152.5h11.6V164h-11.6C148.3,164,148.3,152.5,148.3,152.5z M159.9,164h11.6v11.5h-11.6
		C159.9,175.5,159.9,164,159.9,164z M194.7,152.5h11.6V164h-11.6V152.5z M229.5,152.5h-11.6V164h11.6V152.5z M262.4,152.5H274V164
		h-11.6V152.5z M320.4,164H332v11.5h-11.6C320.4,175.5,320.4,164,320.4,164z"/>
	<path class="st2" d="M332,164h11.6v-11.5H332V164z M453.8,164h-11.6v-11.5h-11.6V164h11.6v11.5h11.6
		C453.8,175.5,453.8,164,453.8,164z M453.8,164v-11.5h11.6V164H453.8z M442.2,202.4h11.6v11.5h-11.6V202.4z M453.8,202.4v-11.5h11.6
		v11.5H453.8z M407.4,164h-11.6v11.5h11.6C407.4,175.5,407.4,164,407.4,164z M407.4,164H419v-11.5h-11.6V164z M320.4,190.9H332v11.5
		h-11.6C320.4,202.4,320.4,190.9,320.4,190.9z M308.8,202.4h11.6v11.5h-11.6V202.4z M308.8,202.4h-11.6v-11.5h11.6V202.4z
		 M332,202.4h11.6v11.5H332V202.4z M308.8,164h-11.6v-11.5h-11.6V164h11.6v11.5h11.6C308.8,175.5,308.8,164,308.8,164z M229.5,198.5
		h-11.6V210h11.6V198.5z M217.9,221.5h11.6V233h-11.6V221.5z"/>
</g>
</svg>
