<?xml version="1.0" encoding="utf-8"?>
<!-- Generator: Adobe Illustrator 25.4.1, SVG Export Plug-In . SVG Version: 6.00 Build 0)  -->
<svg version="1.1" id="Layer_1" xmlns="http://www.w3.org/2000/svg" xmlns:xlink="http://www.w3.org/1999/xlink" x="0px" y="0px"
	 viewBox="0 0 814 112.6" style="enable-background:new 0 0 814 112.6;" xml:space="preserve">
<style type="text/css">
	.st0{fill:#FFFFFF;}
</style>
<g>
	<path class="st0" d="M2.8,86.4v-6.7l8.7-1.5V16.8l-8.7-1.5V8.6h28v6.8l-8.7,1.5v61.4h27.5L50.9,66H59v20.4H2.8z"/>
	<path class="st0" d="M66.7,86.4v-6.7l8.7-1.5V36.8l-8.7-1.5v-6.8H86v49.6l8.7,1.5v6.7h-28V86.4z M74.9,14.3V3H86v11.3H74.9z"/>
	<path class="st0" d="M132.7,87.5c-3.4,0.1-6.8-0.7-9.8-2.2c-2.8-1.5-5.2-3.7-6.9-6.4l-1,7.4h-9.1v-75l-8.7-1.5V3h19.2v32.4
		c1.7-2.5,4.1-4.5,6.8-5.9c2.9-1.4,6.2-2.1,9.4-2c4.4-0.1,8.7,1.2,12.2,3.9c3.5,2.8,6.2,6.6,7.7,10.9c1.9,5.2,2.8,10.7,2.7,16.3v1.1
		c0.1,5-0.8,10-2.7,14.6c-1.6,3.9-4.3,7.3-7.7,9.7C141.2,86.4,137,87.6,132.7,87.5z M130,78.9c4.9,0,8.6-1.8,11-5.3s3.6-8.2,3.6-14
		v-1.1c0.1-4-0.5-7.9-1.6-11.7c-0.8-3-2.5-5.8-4.9-7.9c-2.3-1.9-5.3-3-8.3-2.9c-2.9-0.1-5.8,0.7-8.2,2.3c-2.3,1.6-4.1,3.8-5.3,6.3
		v25.5c1.2,2.5,3,4.7,5.3,6.3C124.2,78.2,127.1,79,130,78.9L130,78.9z"/>
	<path class="st0" d="M191.6,87.5c-4.9,0.1-9.7-1.2-14-3.7c-4-2.5-7.1-6-9.2-10.2c-2.2-4.7-3.3-9.9-3.2-15.1v-2.4
		c-0.1-5.1,1.1-10.2,3.4-14.7c2.1-4.1,5.2-7.7,9-10.3c3.6-2.5,7.9-3.8,12.3-3.8c5.2,0,9.6,1.1,13.1,3.2s6.3,5.3,7.9,9
		c1.9,4.3,2.8,9,2.7,13.7v6.6h-37.5l-0.2,0.3c0,3.4,0.7,6.7,1.9,9.9c1.1,2.7,2.9,5,5.3,6.8c2.5,1.7,5.4,2.5,8.3,2.5
		c3.2,0.1,6.4-0.5,9.4-1.5c2.6-0.9,4.9-2.4,7-4.2l4.1,6.9c-2.4,2.2-5.2,3.9-8.2,5C200,86.9,195.8,87.6,191.6,87.5z M176.5,51.7h26.7
		v-1.4c0-2.6-0.5-5.1-1.5-7.4c-0.9-2.1-2.4-3.9-4.4-5.2c-2.2-1.3-4.7-2-7.3-1.9c-2.3,0-4.5,0.7-6.4,2.1c-2,1.5-3.6,3.4-4.8,5.6
		c-1.3,2.5-2.1,5.2-2.5,8L176.5,51.7z"/>
	<path class="st0" d="M221.8,86.4v-6.7l8.7-1.5V36.8l-8.7-1.5v-6.8h18.1l0.9,7.4l0.1,1c1.5-2.7,3.5-5.1,6.1-6.9
		c2.4-1.7,5.3-2.6,8.3-2.5c1.2,0,2.3,0.1,3.4,0.3c0.8,0.1,1.7,0.3,2.5,0.6l-1.4,9.8l-7.3-0.4c-2.5-0.3-5,0.4-7,1.9
		c-1.9,1.5-3.5,3.5-4.4,5.8v32.7l8.7,1.5v6.7C249.8,86.4,221.8,86.4,221.8,86.4z"/>
	<path class="st0" d="M289.6,87.3c-4.3,0-7.7-1.3-10.2-3.8s-3.8-6.5-3.8-12.1v-35h-9.1v-7.8h9.1v-14h10.5v14h12.6v7.8h-12.6v35.1
		c0,2.8,0.5,4.8,1.7,6.1c0.5,0.7,1.2,1.2,2,1.5s1.6,0.5,2.4,0.5c1.4,0,2.8-0.1,4.2-0.3c1.5-0.2,2.7-0.4,3.6-0.6l1.4,6.9
		c-1.8,0.5-3.7,0.9-5.6,1.2C293.8,87,291.7,87.2,289.6,87.3z"/>
	<path class="st0" d="M333.6,87.5c-6.3,0-11.2-2-14.7-6s-5.3-10.3-5.3-18.8V36.8l-6.7-1.5v-6.8h17.2v34.2c0,6.2,0.9,10.4,2.7,12.7
		c1.8,2.3,4.7,3.5,8.5,3.5c3.2,0.1,6.5-0.7,9.3-2.3c2.5-1.5,4.4-3.8,5.5-6.4V36.8l-7.7-1.5v-6.8h18.3v49.6l6.6,1.5v6.7h-16.1
		l-0.7-8.6c-1.7,3-4.1,5.4-7,7.2C340.5,86.7,337.1,87.6,333.6,87.5z"/>
	<path class="st0" d="M398.1,87.5c-3.7,0-7.3-0.4-10.9-1.2c-3.7-0.9-7.3-2.1-10.8-3.6l0-13.7h8l2,8.3c1.9,0.8,3.8,1.4,5.8,1.8
		s4,0.6,6.1,0.6c4.3,0,7.3-0.8,9.2-2.5c0.9-0.8,1.6-1.7,2.1-2.7s0.7-2.2,0.7-3.4c0-1.1-0.2-2.2-0.7-3.2s-1.2-1.9-2.1-2.6
		c-1.9-1.6-5.3-2.9-10.2-4c-7-1.6-12.1-3.7-15.4-6.4c-1.6-1.3-2.9-2.9-3.8-4.8c-0.9-1.9-1.3-3.9-1.2-6c0-3,0.9-6,2.7-8.4
		c2-2.6,4.6-4.6,7.6-5.9c3.6-1.5,7.4-2.3,11.3-2.2c3.8-0.1,7.6,0.4,11.3,1.5c2.9,0.9,5.7,2.2,8.1,4l0.5,13.2h-7.9l-1.7-7.7
		c-1.3-1-2.8-1.7-4.4-2.1c-1.9-0.5-3.9-0.8-5.9-0.7c-2.8-0.1-5.6,0.7-8,2.3c-0.9,0.6-1.7,1.5-2.3,2.5c-0.5,1-0.8,2.1-0.8,3.3
		s0.3,2.5,0.9,3.5c0.8,1.2,2,2.2,3.4,2.7c2.4,1,4.8,1.8,7.4,2.4c8,1.9,13.7,4.3,16.9,7.2c1.5,1.3,2.8,3,3.6,4.9
		c0.8,1.9,1.2,3.9,1.2,5.9c0,2.3-0.4,4.6-1.4,6.7c-0.9,2.1-2.3,4-4.1,5.5C411.6,85.8,405.9,87.5,398.1,87.5z"/>
	<path class="st0" d="M492.1,87.5c-7.8,0-14.3-1.7-19.5-5.2c-5.2-3.4-9.3-8.3-11.8-14.1c-2.7-6.4-4-13.3-3.9-20.2v-1.1
		c-0.1-7,1.3-13.9,4.1-20.3c2.5-5.7,6.6-10.6,11.8-14c5.1-3.4,11.3-5.1,18.4-5.1c4.7-0.1,9.4,0.7,13.8,2.3c3.8,1.4,7.3,3.4,10.4,6
		v16.8H507l-1.1-12.3c-1.2-0.9-2.5-1.7-3.9-2.2c-1.6-0.6-3.2-1.1-4.9-1.4c-1.9-0.3-3.9-0.5-5.8-0.5c-4.6-0.1-9.2,1.2-12.9,3.9
		c-3.6,2.8-6.4,6.5-8,10.8c-1.9,5.1-2.8,10.5-2.7,15.9V48c0,6.5,1,12.1,2.9,16.7c1.7,4.3,4.7,8,8.5,10.6c3.7,2.4,8.3,3.6,13.6,3.6
		c2.5,0,4.9-0.3,7.3-0.9c2.1-0.5,4.1-1.3,5.9-2.4l1.1-10.8h8.2v16.9c-3.3,1.9-6.8,3.4-10.5,4.2C500.5,87,496.3,87.5,492.1,87.5z"/>
	<path class="st0" d="M544.2,87.5c-6,0-10.6-1.5-13.7-4.4c-3.1-2.9-4.7-7.1-4.7-12.4c-0.1-3.4,1-6.8,3-9.6c2.3-2.9,5.3-5.1,8.7-6.3
		c4.4-1.6,9.1-2.4,13.7-2.3h10.3v-5.7c0-3.5-1.1-6.2-3.2-8.1c-2.1-1.9-5.2-2.9-9-2.9c-2.1,0-4.3,0.2-6.3,0.9
		c-1.7,0.6-3.4,1.4-4.9,2.4l-1.1,8.1h-8.1V33.9c2.7-2.2,5.8-3.8,9.1-4.8c3.7-1.1,7.6-1.7,11.5-1.6c7,0,12.5,1.7,16.5,5s6,8.1,6,14.4
		v27.8c0,0.8,0,1.5,0,2.2s0,1.4,0.1,2.1l5.6,0.6v6.7h-15.1c-0.3-1.6-0.6-3-0.8-4.2c-0.2-1.3-0.3-2.5-0.4-3.7
		c-2.1,2.6-4.7,4.9-7.6,6.5C550.9,86.6,547.6,87.5,544.2,87.5z M545.7,78.7c3.4,0,6.7-0.8,9.6-2.5c2.6-1.4,4.7-3.5,6.2-6V59.7h-10.7
		c-4.8,0-8.5,1.2-10.9,3.5c-1.1,1-2,2.1-2.6,3.5c-0.6,1.3-1,2.8-1,4.2c-0.1,1.1,0.1,2.2,0.5,3.2s1,1.9,1.8,2.6
		C540.2,78,542.5,78.7,545.7,78.7z"/>
	<path class="st0" d="M584.3,108.6v-6.8l8.2-1.5V36.8l-8.7-1.5v-6.8h17.7l1,7.1c1.8-2.5,4.2-4.6,7-6c3-1.4,6.3-2.2,9.6-2.1
		c4.4-0.1,8.7,1.2,12.2,3.9c3.5,2.8,6.2,6.6,7.7,10.9c1.9,5.2,2.8,10.7,2.7,16.3v1.1c0.1,5-0.8,10-2.7,14.6
		c-1.6,3.9-4.3,7.3-7.7,9.7c-3.6,2.4-7.8,3.6-12.1,3.5c-3.2,0.1-6.4-0.5-9.4-1.8c-2.7-1.2-5-3-6.9-5.3v19.9l9.2,1.5v6.8
		C612.1,108.6,584.3,108.6,584.3,108.6z M616,79.2c5,0,8.8-1.8,11.3-5.4c2.6-3.6,3.9-8.3,3.8-14.2v-1.1c0.1-4-0.5-7.9-1.7-11.7
		c-1-3.1-2.7-5.8-5.2-7.9c-2.4-2-5.4-3-8.5-2.9c-2.7-0.1-5.4,0.6-7.7,2c-2.2,1.4-3.9,3.3-5.2,5.6v28.1c1.2,2.4,3.1,4.3,5.4,5.7
		S613.3,79.4,616,79.2L616,79.2z"/>
	<path class="st0" d="M649.5,86.4v-6.7l8.7-1.5V36.8l-8.7-1.5v-6.8h19.2v49.6l8.7,1.5v6.7h-27.9V86.4z M657.7,14.3V3h11.1v11.3
		H657.7z"/>
	<path class="st0" d="M705.2,87.3c-4.3,0-7.7-1.3-10.2-3.8s-3.8-6.5-3.7-12.1v-35h-9.1v-7.8h9.1v-14h10.5v14h12.6v7.8h-12.6v35.1
		c0,2.8,0.6,4.8,1.7,6.1c0.5,0.7,1.2,1.2,2,1.5s1.6,0.5,2.5,0.5c1.4,0,2.8-0.1,4.2-0.3c1.5-0.2,2.7-0.4,3.6-0.6l1.4,6.9
		c-1.9,0.5-3.7,0.9-5.6,1.2C709.3,87,707.3,87.2,705.2,87.3z"/>
	<path class="st0" d="M742.4,87.5c-6,0-10.6-1.5-13.7-4.4c-3.1-2.9-4.7-7.1-4.7-12.4c-0.1-3.4,1-6.8,3-9.6c2.3-2.9,5.3-5.1,8.7-6.3
		c4.4-1.6,9-2.4,13.7-2.3h10.3v-5.7c0-3.5-1.1-6.2-3.2-8.1c-2.1-1.9-5.1-2.9-9-2.9c-2.1,0-4.3,0.2-6.3,0.9c-1.7,0.6-3.4,1.4-4.9,2.4
		l-1.1,8.1h-8.1V33.9c2.7-2.2,5.8-3.8,9.1-4.8c3.7-1.1,7.6-1.7,11.5-1.6c7,0,12.5,1.7,16.5,5s6,8.1,6,14.4v27.8c0,0.8,0,1.5,0,2.2
		s0.1,1.4,0.1,2.1l5.6,0.6v6.7H761c-0.3-1.6-0.6-3-0.8-4.2c-0.2-1.3-0.3-2.5-0.4-3.7c-2.1,2.6-4.7,4.9-7.6,6.5
		C749.3,86.6,745.9,87.5,742.4,87.5z M744,78.7c3.4,0,6.7-0.8,9.6-2.5c2.6-1.4,4.7-3.5,6.2-6V59.7h-10.7c-4.8,0-8.5,1.2-10.9,3.5
		c-1.1,1-2,2.1-2.6,3.5c-0.6,1.3-1,2.8-1,4.2c-0.1,1.1,0.1,2.2,0.5,3.2s1,1.9,1.8,2.6C738.5,78,740.9,78.7,744,78.7z"/>
	<path class="st0" d="M783.7,86.4v-6.7l8.7-1.5V11.3l-8.7-1.5V3h19.2v75.1l8.7,1.5v6.7h-27.9V86.4z"/>
</g>
</svg>
