<?xml version="1.0" encoding="utf-8"?>
<!-- Generator: Adobe Illustrator 25.4.1, SVG Export Plug-In . SVG Version: 6.00 Build 0)  -->
<svg version="1.1" id="Layer_1" xmlns="http://www.w3.org/2000/svg" xmlns:xlink="http://www.w3.org/1999/xlink" x="0px" y="0px"
	 viewBox="0 0 418 219" style="enable-background:new 0 0 418 219;" xml:space="preserve">
<style type="text/css">
	.st0{fill:#FFFFFF;}
</style>
<path class="st0" d="M23.2,175.6l2.8,17l9.4-17h3l-11.8,21.3h-2.5l-3.6-21.3H23.2z"/>
<path class="st0" d="M82.5,175.6L82,178H71.8l-1.3,6.7h9.3l-0.5,2.4h-9.2l-1.4,7.4h10.2l-0.5,2.4H65.5l4.1-21.3L82.5,175.6z"/>
<path class="st0" d="M129,175.6l-4.1,21.3h-2.6l-6-16.3l-3.2,16.3h-2.7l4.1-21.3h2.5l6,16.5l3.2-16.5H129z"/>
<path class="st0" d="M175.5,175.6L175,178h-6.5l-3.7,18.8h-2.7l3.7-18.8h-6.5l0.5-2.4H175.5z"/>
<path class="st0" d="M222,175.6l-2.5,12.6c-1.3,6.5-4.7,8.9-9.2,8.9s-7.3-3.2-6.2-8.9l2.5-12.6h2.7l-2.5,12.7
	c-0.9,4.5,0.5,6.5,3.6,6.5c3.9,0,5.7-2.3,6.5-6.5l2.5-12.6L222,175.6z"/>
<path class="st0" d="M263.6,196.8l-2.7-9h-5.1l-1.7,9h-2.7l4.1-21.3h6.9c4.3,0,6.7,2.2,6.7,5.6s-1.7,5.3-5.5,6.3l2.9,9.4H263.6z
	 M260.6,185.5c4,0,5.6-1.5,5.6-4.2c0-2.1-1.2-3.3-4.5-3.3h-4.1l-1.5,7.5H260.6z"/>
<path class="st0" d="M315,175.6l-0.5,2.4h-10.2l-1.3,6.7h9.4L312,187h-9.3l-1.4,7.4h10.2l-0.5,2.4h-12.8l4-21.3H315V175.6z"/>
<path class="st0" d="M357.3,180.2c-0.9-1.8-2.7-2.8-4.7-2.5c-2.8,0-4.8,1.2-4.8,3.7s1.7,3,4.4,3.5c3.2,0.7,5.5,1.9,5.5,5.5
	s-2.4,6.5-8.4,6.5c-2.7,0.2-5.4-1.1-6.9-3.4l2.3-1.4c1,1.8,2.9,2.8,5,2.6c4.2,0,5.3-1.9,5.3-3.9c0-1.9-1.1-3-4-3.5
	c-3.8-0.6-5.8-2.4-5.8-5.5c0-3.4,2.3-6.5,7.7-6.5c2.7-0.3,5.3,1.1,6.6,3.5L357.3,180.2z"/>
<path class="st0" d="M77.8,138.6H31.6c-1.9,0-3.4-1.5-3.4-3.4c0-0.3,0-0.6,0.1-0.8L59.1,11c0.5-1.8,2.3-2.9,4.2-2.5
	c1.8,0.5,2.9,2.3,2.5,4.2l0,0L36,131.7h41.9c1.9,0,3.4,1.5,3.4,3.4S79.7,138.6,77.8,138.6z"/>
<path class="st0" d="M154.9,138.6h-46.2c-1.9,0-3.4-1.5-3.4-3.4s1.5-3.4,3.4-3.4h43.6L182.4,11c0.5-1.8,2.3-2.9,4.2-2.5
	c1.8,0.5,2.9,2.3,2.5,4.2L158.3,136C157.8,137.6,156.4,138.6,154.9,138.6z"/>
<path class="st0" d="M278.2,138.6c-0.3,0-0.6,0-0.8-0.1c-1.8-0.5-2.9-2.3-2.5-4.2l0,0L305.7,11c0.5-1.8,2.3-2.9,4.2-2.5
	c1.8,0.5,2.9,2.3,2.5,4.2L281.5,136C281.1,137.5,279.8,138.6,278.2,138.6z"/>
<path class="st0" d="M309,138.6c-0.3,0-0.6,0-0.8-0.1c-1.8-0.5-2.9-2.3-2.5-4.2l0,0L336.5,11c0.5-1.8,2.3-2.9,4.2-2.5
	c1.8,0.5,2.9,2.3,2.5,4.2L312.3,136C312,137.5,310.6,138.6,309,138.6z"/>
<path class="st0" d="M370.7,138.6c-1.3,0-2.5-0.7-3.1-1.9L336.8,75c-0.6-1.3-0.4-2.9,0.7-3.9l61.7-61.7c1.2-1.4,3.4-1.6,4.8-0.4
	s1.6,3.4,0.4,4.8c-0.1,0.1-0.2,0.3-0.4,0.4l-60,60l29.7,59.4c0.8,1.7,0.1,3.8-1.6,4.6C371.7,138.5,371.2,138.6,370.7,138.6z"/>
<path class="st0" d="M185.7,138.6c-0.3,0-0.6,0-0.8-0.1c-1.8-0.5-2.9-2.3-2.5-4.2l0,0L213.2,11c0.4-1.5,1.8-2.6,3.3-2.6h61.7
	c1.9,0,3.4,1.5,3.4,3.4c0,0.3,0,0.6-0.1,0.8l-15.4,61.7c-0.4,1.5-1.7,2.6-3.3,2.6h-40.7l28.3,56.7c0.8,1.7,0,3.8-1.7,4.5
	c-1.6,0.8-3.6,0.1-4.4-1.5L213.5,75c-0.5-1-0.4-2.3,0.2-3.2c0.6-1,1.7-1.7,2.9-1.7h43.6l13.7-54.8h-54.6L189,136
	C188.6,137.5,187.3,138.6,185.7,138.6z"/>
<path class="st0" d="M170.3,76.9h-61.7c-1.9,0-3.4-1.5-3.4-3.4c0-0.3,0-0.6,0.1-0.8L120.7,11c0.5-1.8,2.3-2.9,4.2-2.5
	c1.8,0.5,2.9,2.3,2.5,4.2l0,0L113,70.1h57.3c1.9,0,3.4,1.5,3.4,3.4S172.2,76.9,170.3,76.9z"/>
</svg>
