<?xml version="1.0" encoding="utf-8"?>
<!-- Generator: Adobe Illustrator 25.4.1, SVG Export Plug-In . SVG Version: 6.00 Build 0)  -->
<svg version="1.1" id="图层_1" xmlns="http://www.w3.org/2000/svg" xmlns:xlink="http://www.w3.org/1999/xlink" x="0px" y="0px"
	 viewBox="0 0 946 349.7" style="enable-background:new 0 0 946 349.7;" xml:space="preserve">
<style type="text/css">
	.st0{fill:#FFFFFF;}
</style>
<path class="st0" d="M51.9,12.7l30.7,0.4c21.1-1,42.9-2.4,61.1-1.6c-0.4-3.4,2.6-3.6,2.3-7c-13.3-6.9-40.8-3.5-64.5-3.5
	C65,0.9,43.3-4,39.3,9.1C39.8,14,46.9,12.3,51.9,12.7z"/>
<path class="st0" d="M10,38.5c4.1-10.3,13.1-15.8,12.9-30.5c-3.4-1.2-6-3.3-11.8-2.3C2.3,11.1-0.5,32.2,10,38.5z"/>
<path class="st0" d="M14.6,319.7c0,0.5,0,1.1,0,1.6v0C16.5,348.9,15.3,291.8,14.6,319.7z"/>
<path class="st0" d="M11.1,249.8c-5.5-3.4-6.8,6.1-10.6,8.2c-0.5,12.6-0.3,24.5,3.5,32.8c-3.9,28.5-3.5-19.4-3.5,12.5
	c0,14.6-2.6,31.4,8.2,36.4c6.8-2.9,5.9-11.4,5.9-18.3C13.2,298.8,18.4,268.7,11.1,249.8z"/>
<path class="st0" d="M164.9,94.8c10.6,0.3,7.8-14.5,8.2-22.3c0.6-10.5,5.1-28.5,4.7-44.6c-0.5-20-6.4-38.1-17.6-21.1
	C164.7,37.1,157.7,70.4,164.9,94.8z"/>
<path class="st0" d="M172.5,339.1C174.1,340.4,175.3,337.5,172.5,339.1z"/>
<path class="st0" d="M29.9,339.6c-3,0.9-4,3.8-3.5,8.2c9.1,2.1,21.9,1.2,34,1.2c11.7,0,25.4,2.9,31.7-3.5
	c-5.2-5.6-16.3-5.4-25.8-5.9C54.5,339.1,41.2,340.1,29.9,339.6z"/>
<path class="st0" d="M16.4,47.1c-2,2.9-2.8,5.3-2.3,7.2s2.8,2.8,7,2.5c3.8-0.3,12.2,1.2,25.3,4.5c2.9,0.7,4.4,0.4,4.7-1.1
	s-1.2-3.3-4.4-5.6c-1-0.7-2.3-1.6-3.9-2.6s-3.2-2-5-3s-3.4-2-5.1-2.9c-1.6-0.9-3.1-1.7-4.2-2.3c-1.9-1.1-4-1.6-6.2-1.3
	C20.4,42.9,18.4,44.4,16.4,47.1z"/>
<path class="st0" d="M141.7,48.5c-1.4-0.5-2.9-0.5-4.3-0.1c-3.5,0.7-7,1.1-10.6,1.1c-5.1,0.2-10.5,0.2-16.3,0.1
	c-5.8-0.1-11.5-0.3-16.9-0.6c-5.4-0.4-9.4-0.8-12-1.2c-2.4-0.6-5-0.5-7.4,0.4c-1.9,0.9-4,3.1-6.3,6.7c-1.3,2-1.9,3.7-1.7,5
	c0.1,1.2,0.6,2.2,1.5,3c0.9,0.7,2.1,1.1,3.3,1.1c1.2,0,2.5-0.4,3.5-1.1c2.1-1.2,4.3-2,6.6-2.6c2.4-0.6,5.9-1.2,10.5-2
	c5.3-0.8,10.6-1.2,15.9-1.2c5.4-0.1,10.8,0.1,16.1,0.8c3.8,0.4,6.3,1.4,7.7,2.8s2.2,3.8,2.5,6.9c0.2,2.4,0.1,4.9-0.5,7.2
	c-1.1,4.7-2.4,9.4-4,14c-1.2,3.3-2.3,6.3-3.4,8.8c-1.1,2.5-2.2,4.9-3.2,7c-1,2.1-2.2,4.1-3.5,6c-1.2,1.8-2.6,3.6-4,5.5
	c-2.9-2.9-5.8-5.9-8.8-9c-3-3.1-5.7-6.1-8.3-8.8c-2.6-2.8-4.9-5.3-6.8-7.6c-2-2.2-3.4-3.9-4.2-5.1c-3.7-4.6-7.7-5.6-11.9-2.8
	c-2.7,1.6-4.2,3.2-4.2,4.9s1,2.8,3.1,3.6c2.4,0.9,4.8,2.1,7,3.3c2,1.2,3.9,2.6,5.7,4c3.3,2.9,7,6.3,11.1,10.3
	c4.1,4,8.2,8.3,12.4,12.9c-4.4,4.8-9.1,9.3-14.2,13.4c-4.5,3.7-9.4,6.8-14.6,9.5c-5,2.6-10.3,4.7-15.8,6.2
	c-5.7,1.6-11.5,2.9-17.3,3.9c-1.6,0.2-3,1-4,2.3c-0.9,1.1-1.3,2.5-1.1,3.8c0.3,1.4,1.3,2.7,2.6,3.4c1.5,0.9,3.7,1.3,6.6,1.2
	c7.6-0.5,15-2.1,22.1-4.9c7-2.7,13.5-6.4,19.3-11.1c4.6-3.7,8.8-7.4,12.6-10.9s7.1-7,10-10.3c2.5,2.7,4.8,5.4,6.9,8s4.2,5.1,6.1,7.4
	c3.3,4.3,6.2,8,8.7,11s4.6,5.6,6.4,7.7c1.5,1.7,3,3.4,4.7,5c1.1,1.1,2.2,2,3.5,2.9c2,1.6,5.1,2.1,9.3,1.6c2.8-0.4,5.5-1.2,8.1-2.4
	c1.5,0.6,2.9,1.1,4.4,1.6c0.1-1.3,0.2-2.7,0.4-4.2l0.1-0.1c2.9-1.9,4.4-3.1,4.4-3.7s-1.1-1.4-3.6-2.6l-0.3-0.1
	c2.1-19.4,4.5-46.4-12.8-48c-3,11.9-3.4,27-2.5,40.7c-1-0.5-2-1.1-2.9-1.6c-1.7-1-3.4-2.2-5.3-3.5c-5.2-3.4-10.2-7.2-14.9-11.1
	c-5.3-4.4-10.5-9.1-15.6-14.2c2.7-3.4,5.2-6.9,7.5-10.6c2.1-3.5,3.9-7.1,5.5-10.8c0.9-2,1.8-4.3,2.8-7s2-5.3,2.8-7.9
	c0.9-2.6,1.6-5,2.3-7.3c0.5-1.7,0.9-3.5,1.2-5.3c0.4-2,0.9-4,1.5-6c0.7-2.4,1.5-4.9,2.4-7.5c0.6-1.6,0.7-3.3,0.2-5
	c-0.4-1.5-1.2-3-2.2-4.2C144.4,49.9,143.2,49,141.7,48.5z"/>
<path class="st0" d="M181.2,232.2c-0.9-0.6-1.9-1-2.9-1.2c-1.3-0.2-2.6-0.6-4-0.9c0.6-1.7,1.4-3.4,2.4-5c-0.5-9.6,1.2-21.6-1.2-29.3
	c-19.3-15.9-16.6,14.7-12.7,30.4c-0.3-0.1-0.6-0.2-0.9-0.4c-6.9-3.3-13.8-7-20.6-11.1c-6.8-4.1-13.8-8.8-21-14
	c-4.2-3-7.6-5.6-10.2-7.6s-4.8-3.8-6.5-5.4c-1.5-1.3-2.9-2.8-4.1-4.3c-1-1.3-1.9-2.8-2.5-4.3c-1.3-2.4-2.9-3.5-4.8-3.2
	c-1.8,0.3-3.9,2.7-6.1,7.4c-1.7,3.5-4.9,7.4-9.6,11.9c-5.3,4.9-10.9,9.3-17,13.2c-7,4.5-14.4,8.5-22.1,11.9
	c-7.3,3.2-14.8,5.8-22.6,7.6c0.1-11.4-0.8-24-0.1-32c0.8-5.1,7.1-4.6,7-10.6c-0.9-4.2-4.7-8.6-6.8-13.2c-0.5-0.4-1.2-0.7-1.8-0.9
	c-0.3,0.1-0.5-2.8-0.6-7.2c0.1,0.1,0.2,0.3,0.3,0.4c1.5,1.5,3.7,1.1,6.6-1.4c2.2-1.9,4.4-3.7,6.6-5.4c2.2-1.7,4.6-3.5,7-5.4
	c2.4-1.9,5.2-4,8.2-6.3s6.4-5,10.2-8c0.8-0.6,1.4-1.4,1.8-2.4c0.3-0.7,0.4-1.5,0.3-2.3c-0.1-0.6-0.5-1.1-1.1-1.4
	c-0.7-0.3-1.5-0.2-2.2,0.2c-4.2,2.2-8.3,4.2-12.2,6c-4,1.8-7.1,3.2-9.4,4.2c-1.7,0.8-3.4,1.4-5.2,2c-2.4,0.6-4.7,1.1-7.1,1.5
	c-1.5,0.3-2.8,1-3.9,2c0.1-16.4,0.6-35.2,0.6-35.2l0.3-8.4c2.9-0.1,6.4,0,10.7,0.2c5.3,0.2,10.5,0.5,15.7,0.8c3,0.3,4.7-0.4,4.9-2
	s-1-3-3.8-4.3c-2.9-1.3-6.1-2.6-9.8-3.9s-7.3-2.6-11-3.9c-2-0.8-4.1-1-6.2-0.6l1.2-30.7c-0.9-4.8-3.3-8.2-8.7-8.3
	C3.8,59.3,6,72,5.2,81.9c-0.5,3.8-4.4,4.2-4.7,8.2v118.6c0,9.6-2.4,22.3,3,29.4v0.1c0.6,1.5,1.9,2.6,3.4,2.9
	c0.2,0.1,0.4,0.3,0.6,0.5c0.1-0.1,0.2-0.2,0.3-0.3c3,0.5,7.2-0.1,13-2c4.4-1.3,8.7-2.9,12.9-4.7c4.8-2.1,9.4-4.5,13.9-7.1
	c5-3,10.5-6.7,16.5-11.2c6.1-4.5,13.1-10.1,21.2-16.9c1.7-1.4,3.2-2.6,4.4-3.6c1-0.8,2.2-1.4,3.5-1.7c1.2-0.2,2.4-0.1,3.6,0.2
	c1.7,0.5,3.4,1.2,5,2.1c0.7,0.4,2.7,1.8,6,4.1c3.3,2.3,7,5.2,11.3,8.5c4.3,3.4,8.9,7,13.6,10.8s9.1,7.4,13,10.7
	c3.5,3,6.4,5.5,8.8,7.2c1.8,1.4,3.7,2.6,5.8,3.6c1.4,34.9-2.9,13.9,1.8,50.6l-5.1-0.4c-6.8-0.6-12.9-1-18.4-1.4
	c-5.5-0.4-10.5-0.7-15.2-0.9c-4.6-0.2-9-0.4-13.1-0.4c-4.1-0.1-8.2,0-12.4,0.1v-11.1c0-4.1,0.1-8.4,0.2-12.9
	c5.3-0.3,10.6-0.3,15.9,0c3.9,0.2,7.7,0.6,11.6,1.3c3.3,0.7,5.7,0.8,7.2,0.1c1.7-0.9,3-2.3,3.9-4c2.5-4.2,1.8-6.1-1.9-5.6
	c-1.2,0.1-2.7,0.3-4.7,0.4c-1.5,0.1-3.1,0.1-4.7,0c-1.7,0-3.8,0-6.1-0.1s-4.7-0.1-7.2-0.1s-5,0-7.5,0.1s-4.6,0.1-6.5,0.1
	c0-4,0-7.9,0.1-11.7s0.2-7.1,0.3-10.2c6.8,0,11.9,0.1,15.3,0.4c2.9,0.2,5.7,0.6,8.6,1.3c5.1,1.3,8.3,0.6,9.7-2c1.3-2.3,1.8-4,1.3-5
	c-0.4-1-2-1.9-4.8-2.6c-1.4-0.3-3.2-0.5-5.3-0.8s-4.9-0.3-8.6-0.3s-8.1,0.1-13.5,0.2s-12.2,0.4-20.5,0.9c-2.3,0.1-4.2,0.2-5.6,0.2
	h-3.7c-1,0-1.9,0-2.7-0.1c-0.8-0.1-1.7-0.3-2.5-0.5c-2-0.4-4-0.4-5.9,0c-2.2,0.4-4.3,1.1-6.3,2.1c-1.8,0.8-3.4,2-4.8,3.4
	c-1.1,1-1.6,2.5-1.2,3.9c0.7,2.3,2,3.6,3.9,4c1.9,0.4,4.8,0,8.7-1.2c2-0.6,3.9-1.1,5.8-1.5c1.9-0.4,3.8-0.8,5.8-1.1
	c2-0.3,4.2-0.5,6.5-0.6c2.3-0.1,5-0.3,8-0.4c0.1,3.3,0.2,6.9,0.3,10.6s0.2,7.6,0.3,11.7c-7.3,0.3-12.8,0.4-16.3,0.3
	c-2.4,0-4.9-0.2-7.2-0.5c-2.3-0.7-4.7-0.6-6.9,0.3c-2.9,1.3-5.4,3.2-7.4,5.7c-1,1-1.8,2.2-2.3,3.6c-0.4,0.8-0.2,1.8,0.4,2.5
	c0.6,0.6,1.9,0.9,3.8,0.9c2.7-0.2,5.4-0.7,8-1.5c2.9-0.7,6.6-1.4,11.2-2s10.2-1.2,17-1.6c0.1,4.9,0.2,9.4,0.2,13.3v10.7
	c-5.5,0.3-11.5,0.8-18.1,1.4l-22.8,2.3c-3,0.3-5.8,0.5-8.2,0.8c-2.5,0.2-4,0.3-4.8,0.3c-2,0.1-3.6,0.3-4.9,0.5
	c-1.1,0.2-2.2,0.5-3.1,1.1c-0.9,0.5-1.7,1.2-2.4,2.1c-0.9,1.1-1.7,2.2-2.4,3.5c-1,1.4-1.2,3.1-0.8,4.7c0.5,1.4,1.6,2.5,3,3
	c1.8,0.7,3.7,0.9,5.6,0.8c2.5-0.2,4.8-1,7-2.2c3.2-1.4,6.6-2.6,10-3.5c4.6-1.3,9.7-2.5,15.2-3.7c5.5-1.2,11.1-2.1,16.8-2.9
	c5.7-0.8,10.7-1.3,14.8-1.4c4.8-0.1,9.7,0.1,14.5,0.7c5.1,0.6,10,1.3,14.7,2.3c4.5,0.9,8.9,1.9,13.2,3.2c3.4,1,6.8,2.3,10,3.8
	c4.2,2.2,7.6,3.1,10.4,2.7c1.7-0.3,3.3-1.1,4.7-2.2c0.6,2.9,2.4,4.5,3.3,7.2c-5,7.1-1,23.2-10.6,25.8c-8.2-0.4-18.3,1.1-24.6-1.1
	c0.8-4.3,2.2-8-1.1-10.5h-8.2c-1.2,8.9-8.4,11.9-9.4,21.1c17.6-0.7,38.3,1.5,54-1.2c4.6-5.4,7.3-7.8,8.9-8.7c-1.4-1.1-3.1-5.5-3-19
	c0.1-6.1,2.9-11.6,3.5-17.6c2.4-21.9-3.4-44-1.4-61.8c2.3-1,4.5-2.1,6.6-3.5c1.3-0.7,2.3-1.8,3.1-3
	C182,233.6,181.8,232.7,181.2,232.2z"/>
<path class="st0" d="M374.4,28.5l1.6,65H370c-2.8-16.3-9.6-29.4-20.5-39.3c-10.9-9.9-22.7-14.9-35.3-14.9c-9.8,0-17.5,2.6-23.2,7.8
	s-8.6,11.2-8.6,18.1c-0.1,4,1,8,3,11.5c2.8,4.5,7.2,9,13.4,13.4c4.5,3.2,14.9,8.8,31.2,16.8c22.8,11.2,38.2,21.8,46.2,31.8
	c7.8,9.7,12,21.8,11.8,34.3c0,16.3-6.4,30.3-19.1,42.1c-12.7,11.7-28.9,17.6-48.4,17.6c-5.9,0-11.7-0.6-17.4-1.9
	c-7-1.8-13.9-4.1-20.6-7c-4.6-1.9-8.4-2.9-11.4-2.9c-2.9,0.1-5.6,1.1-7.9,2.9c-3,2.2-5.4,5.3-6.8,8.8h-5.3v-73.8h5.3
	c4.2,20.8,12.4,36.6,24.4,47.4c12,10.9,25,16.3,39,16.3c10.7,0,19.3-2.9,25.7-8.8c6.4-5.9,9.6-12.7,9.6-20.4c0-4.7-1.3-9.3-3.7-13.4
	c-2.9-4.8-6.7-9-11.1-12.3c-5-3.9-13.8-8.9-26.5-15.2c-17.7-8.7-30.5-16.2-38.3-22.3c-7.3-5.6-13.4-12.6-17.9-20.6
	c-4.2-7.7-6.3-16.3-6.3-25c0-15.5,5.7-28.8,17.1-39.7c11.4-10.9,25.8-16.4,43.2-16.4c6.2,0,12.4,0.8,18.4,2.3
	c5.7,1.6,11.2,3.7,16.5,6.4c6.5,3.1,11,4.7,13.6,4.7c2.2,0.1,4.4-0.7,5.9-2.3c1.4-1.5,2.8-5.2,4-11.1L374.4,28.5z"/>
<path class="st0" d="M507.7,222.8v5.3h-102v-5.3h6.5c5.7,0,10.2-1,13.7-3c2.7-1.6,4.7-4,5.8-6.9c1.1-2.3,1.6-8.3,1.6-18.1V66.4
	c0-10-0.5-16.2-1.6-18.7c-1.1-2.5-3.2-4.7-6.4-6.5c-3.2-1.9-7.5-2.8-13-2.8h-6.5V33h102v5.3h-6.5c-5.7,0-10.2,1-13.7,3
	c-2.7,1.6-4.8,4-5.9,6.9c-1.1,2.3-1.6,8.3-1.6,18.1v128.4c0,10,0.6,16.2,1.7,18.7c1.1,2.5,3.3,4.7,6.5,6.5c3.2,1.9,7.6,2.8,13,2.8
	H507.7z"/>
<path class="st0" d="M587.9,33l96.3,121V70.1c0-11.7-1.7-19.6-5-23.7c-4.6-5.6-12.4-8.3-23.2-8.1V33h64.5v5.3
	c-8.2,1.1-13.8,2.4-16.6,4.1c-3,1.9-5.4,4.8-6.6,8.2c-1.6,3.8-2.4,10.3-2.4,19.5v162.4h-4.9L558,70.1v124c0,11.2,2.6,18.8,7.7,22.7
	c5,3.9,11.3,6,17.6,5.9h4.6v5.3h-69.2v-5.3c10.7-0.1,18.2-2.3,22.4-6.6c4.2-4.3,6.3-11.6,6.3-22V56.4l-4.2-5.2
	c-4.1-5.2-7.8-8.6-10.9-10.2c-3.2-1.7-7.7-2.6-13.7-2.7V33H587.9z"/>
<path class="st0" d="M841.1,30.2c31.1-1.1,56.3,7.9,75.8,27.2s29.1,43.4,29.1,72.4c0,24.8-7.2,46.5-21.7,65.3
	c-19.2,24.9-46.3,37.4-81.3,37.4s-62.2-11.9-81.4-35.7c-15.2-18.8-22.7-41.1-22.7-66.9c0-29,9.9-53.1,29.6-72.4
	C788.1,38.2,812.4,29.1,841.1,30.2z M842.9,39.5c-17.8,0-31.4,9.1-40.7,27.3c-7.6,15-11.4,36.4-11.4,64.5c0,33.3,5.8,57.9,17.5,73.8
	c8.2,11.1,19.6,16.7,34.2,16.7c9.9,0,18.1-2.4,24.8-7.2c8.4-6.1,15-16,19.7-29.4s7.1-31.1,7-52.7c0-25.8-2.4-45.1-7.2-57.9
	S876,52.6,868.5,47.4C861,42.1,852.1,39.3,842.9,39.5z"/>
<path class="st0" d="M299.2,270.6l1.4,17.4h-1.4c-1.4-4.3-3.3-7.6-5.5-9.8c-3.4-3.2-7.9-4.9-12.6-4.7c-7,0-12.3,2.8-16,8.3
	c-3.1,5-4.7,10.8-4.6,16.7c-0.1,4.9,0.9,9.8,3,14.4c1.7,3.9,4.4,7.2,8,9.5c3,1.9,6.5,3,10.1,3c2,0,4-0.2,5.9-0.8
	c1.9-0.5,3.8-1.3,5.5-2.3v-15.9c0-2.7-0.2-4.6-0.6-5.4c-0.4-0.8-1.1-1.5-2-1.9c-1.5-0.6-3.1-0.8-4.6-0.7v-1.5H307v1.5h-1
	c-2.1,0-3.5,0.7-4.3,2.1c-0.5,1-0.8,3-0.8,5.9v16.8c-2.9,1.6-6,2.8-9.2,3.7c-3.3,0.8-6.7,1.2-10.1,1.2c-10.6,0-18.7-3.4-24.2-10.2
	c-4.1-5-6.3-11.2-6.2-17.7c0.1-10.7,5.7-20.5,14.8-26.1c6.1-3.2,13-4.2,19.7-3c2.4,0.5,4.7,1.3,7,2.1c1,0.4,2,0.7,3,0.9
	c0.5,0,1-0.3,1.3-0.7c0.5-0.8,0.7-1.8,0.7-2.8L299.2,270.6z"/>
<path class="st0" d="M355.9,311.7l1.3,0.3l-4.7,14.9h-42.6v-1.5h2.1c2.3,0,4-0.8,5-2.3c0.6-0.9,0.9-2.9,0.9-6v-35.5
	c0-3.4-0.4-5.6-1.1-6.5c-1.2-1.3-3-1.9-4.7-1.8h-2.1v-1.5h24.9v1.5c-2.9,0-5,0.2-6.1,0.8c-1,0.4-1.9,1.2-2.4,2.1
	c-0.4,0.9-0.6,2.9-0.6,6.2v34.5c-0.1,1.6,0.1,3.1,0.6,4.6c0.3,0.6,0.9,1,1.5,1.3c0.7,0.3,2.8,0.4,6.3,0.4h4c4.2,0,7.2-0.3,8.9-0.9
	c1.8-0.7,3.4-1.8,4.7-3.3C353.4,316.9,354.9,314.4,355.9,311.7z"/>
<path class="st0" d="M389.3,270.6c7.1,0,13.8,2.9,18.5,8.1c5.2,5.4,7.9,12.2,7.9,20.3c0,8.4-2.6,15.3-7.9,20.8
	c-10,10.6-26.8,11.1-37.4,1c-0.3-0.3-0.6-0.5-0.8-0.8c-5.1-5.4-7.7-12.3-7.7-20.9c0-8.7,3-15.9,8.9-21.4
	C375.8,273.1,382.5,270.5,389.3,270.6z M388.6,273.6c-4.6-0.2-9,1.9-11.8,5.5c-3.7,4.5-5.5,11.2-5.5,20c0,9,1.9,15.9,5.8,20.7
	c2.8,3.6,7.1,5.6,11.7,5.5c5,0.1,9.7-2.1,12.8-6c3.4-4,5.1-10.4,5-19.1c0-9.4-1.9-16.4-5.5-21C397.9,275.5,393.8,273.6,388.6,273.6
	L388.6,273.6z"/>
<path class="st0" d="M457.3,298.8c3.8,0.8,6.7,2.1,8.5,3.9c2.6,2.3,4,5.7,3.9,9.1c0,2.8-0.9,5.6-2.6,7.9c-1.8,2.5-4.2,4.4-7.1,5.5
	c-3,1.1-7.6,1.7-13.8,1.7h-26v-1.5h2.1c2.3,0,3.9-0.7,4.9-2.2c0.6-0.9,0.9-3,0.9-6v-35.6c0-3.4-0.4-5.5-1.2-6.5
	c-1.2-1.3-2.9-1.9-4.7-1.8h-2.1v-1.5h23.8c3.6-0.1,7.2,0.3,10.7,1c3.6,0.7,6.8,2.5,9.3,5.2c2.1,2.4,3.2,5.4,3.2,8.5
	c0,2.7-0.9,5.3-2.5,7.4C462.8,296.3,460.2,298,457.3,298.8z M436.1,296.6c1,0.2,2.1,0.3,3.4,0.4s2.7,0.1,4.2,0.1
	c3.9,0,6.9-0.4,8.9-1.3c1.9-0.8,3.5-2.2,4.6-3.9c1-1.7,1.6-3.7,1.6-5.8c0-3.2-1.4-6.2-3.9-8.2c-2.6-2.3-6.4-3.4-11.5-3.4
	c-2.5,0-4.9,0.3-7.3,0.9L436.1,296.6z M436.1,322.9c3,0.7,6.2,1.1,9.3,1.1c4.9,0,8.6-1.1,11.2-3.3c2.5-2,3.9-5,3.9-8.2
	c0-2.2-0.6-4.3-1.7-6.2c-1.3-2.1-3.3-3.8-5.7-4.7c-3.1-1.2-6.4-1.8-9.7-1.7c-1.7,0-3.1,0-4.3,0.1c-1,0-1.9,0.1-2.9,0.3L436.1,322.9z
	"/>
<path class="st0" d="M512.3,308.5H491l-3.7,8.7c-0.8,1.5-1.2,3.2-1.4,4.8c0,0.9,0.5,1.7,1.2,2.2c0.8,0.6,2.5,1,5.2,1.2v1.5H475v-1.5
	c2.3-0.4,3.8-0.9,4.5-1.6c1.4-1.3,2.9-3.9,4.6-7.9l19.3-45.2h1.4l19.1,45.7c1.5,3.7,2.9,6.1,4.2,7.2c1.5,1.2,3.3,1.8,5.2,1.8v1.5
	h-21.7v-1.5c2.2-0.1,3.7-0.5,4.4-1.1c0.7-0.5,1.2-1.4,1.2-2.3c-0.2-2-0.8-3.9-1.6-5.6L512.3,308.5z M511.2,305.5l-9.3-22.2
	l-9.6,22.2L511.2,305.5z"/>
<path class="st0" d="M581.9,311.7l1.3,0.3l-4.7,14.9H536v-1.5h2.1c2.3,0,4-0.8,5-2.3c0.6-0.9,0.8-2.9,0.8-6v-35.5
	c0-3.4-0.4-5.6-1.1-6.5c-1.2-1.3-2.9-1.9-4.7-1.8H536v-1.5h24.9v1.5c-2.9,0-5,0.3-6.1,0.8c-1,0.4-1.9,1.2-2.4,2.1
	c-0.4,0.9-0.6,2.9-0.7,6.2v34.5c-0.1,1.6,0.1,3.1,0.7,4.6c0.3,0.6,0.9,1,1.5,1.3c0.7,0.3,2.8,0.4,6.3,0.4h4c4.2,0,7.2-0.3,8.9-0.9
	c1.8-0.7,3.4-1.8,4.7-3.3C579.5,316.9,580.9,314.4,581.9,311.7z"/>
<path class="st0" d="M652.7,270.6l1.2,18.7h-1.2c-1.7-5.6-4.1-9.6-7.2-12.1c-3.2-2.5-7.1-3.8-11.2-3.7c-7.6-0.2-14.4,4.5-16.8,11.6
	c-1.8,4.8-2.7,10-2.5,15.1c-0.1,4.4,0.7,8.8,2.4,12.9c1.5,3.5,4,6.4,7.2,8.4c3.3,2,7.1,3,11,2.9c3.3,0.1,6.6-0.7,9.5-2.3
	c2.7-1.5,5.7-4.6,9-9.1l1.3,0.8c-2.8,4.9-6,8.5-9.7,10.7c-4,2.3-8.5,3.5-13.1,3.4c-9.1,0-16.2-3.4-21.2-10.1
	c-3.8-5.1-5.7-11.4-5.6-17.8c-0.1-5.3,1.2-10.5,3.7-15.1c2.3-4.4,5.8-8.1,10.2-10.7c4.3-2.5,9.2-3.8,14.1-3.8c4.1,0,8.1,1,11.8,2.9
	c0.7,0.5,1.6,0.8,2.4,0.9c0.7,0,1.4-0.3,1.9-0.8c0.8-0.8,1.3-1.9,1.5-3L652.7,270.6z"/>
<path class="st0" d="M696.1,308.5h-21.3l-3.7,8.7c-0.7,1.5-1.2,3.1-1.4,4.8c0,0.9,0.5,1.7,1.2,2.2c0.8,0.6,2.5,1,5.2,1.2v1.5h-17.3
	v-1.5c2.3-0.4,3.8-0.9,4.5-1.6c1.4-1.3,2.9-3.9,4.6-7.9l19.3-45.2h1.4l19.1,45.7c1.5,3.7,2.9,6.1,4.2,7.2c1.5,1.2,3.3,1.8,5.2,1.8
	v1.5h-21.7v-1.5c2.2-0.1,3.7-0.5,4.5-1.1c0.7-0.5,1.1-1.4,1.2-2.3c-0.2-2-0.8-3.9-1.6-5.6L696.1,308.5z M695,305.5l-9.3-22.2
	l-9.6,22.2H695z"/>
<path class="st0" d="M735.1,301.1v16c0,3.5,0.4,5.6,1.1,6.5c1.2,1.3,2.9,1.9,4.7,1.8h2.1v1.5h-23.6v-1.5h2.1c2.3,0,4-0.8,5-2.3
	c0.5-0.8,0.8-2.8,0.8-6v-35.5c0-3.5-0.4-5.6-1.1-6.5c-1.2-1.3-2.9-1.9-4.7-1.8h-2.1v-1.5h20.2c3.9-0.1,7.9,0.4,11.6,1.5
	c2.8,1,5.3,2.8,7.2,5.1c1.9,2.4,3,5.4,2.9,8.5c0.2,4.1-1.5,8.1-4.5,11c-3,2.8-7.1,4.2-12.5,4.2c-1.4,0-2.9-0.1-4.3-0.3
	C738.5,301.8,736.9,301.5,735.1,301.1z M735.1,298.8c1.4,0.3,2.7,0.5,3.8,0.6c0.9,0.1,1.9,0.2,2.8,0.2c2.8,0,5.4-1.2,7.3-3.3
	c2.1-2.3,3.2-5.3,3.1-8.5c0-2.3-0.5-4.6-1.5-6.6c-0.9-1.9-2.3-3.5-4.1-4.6c-1.9-1-4-1.6-6.1-1.5c-1.8,0.1-3.6,0.3-5.3,0.8V298.8z"/>
<path class="st0" d="M789.9,325.4v1.5h-23.6v-1.5h2c2.3,0,3.9-0.7,5-2c0.7-0.9,1-2.9,1-6.2v-35.5c0.1-1.9-0.1-3.7-0.5-5.5
	c-0.3-0.7-0.9-1.4-1.7-1.7c-1.1-0.7-2.4-1-3.7-1h-2v-1.5h23.5v1.5h-2c-1.9-0.2-3.7,0.6-4.9,2c-0.7,0.9-1,3-1,6.2v35.5
	c-0.1,1.9,0.1,3.7,0.5,5.5c0.4,0.8,1,1.4,1.7,1.7c1.1,0.7,2.4,1,3.7,1L789.9,325.4z"/>
<path class="st0" d="M840,271.9l0.6,12.9H839c-0.1-1.7-0.5-3.3-1.2-4.9c-0.7-1.5-1.9-2.7-3.3-3.5c-1.7-0.8-3.6-1.2-5.5-1.1h-7.7v42
	c0,3.4,0.4,5.5,1.1,6.3c1.3,1.2,3,1.8,4.8,1.7h1.9v1.5h-23.3v-1.5h2c2.3,0,4-0.7,5-2.1c0.6-0.9,0.9-2.8,0.9-5.9v-42h-6.6
	c-1.8-0.1-3.7,0.1-5.5,0.6c-1.5,0.6-2.8,1.6-3.6,3c-1.1,1.8-1.7,3.8-1.8,5.9h-1.5l0.6-12.9L840,271.9z"/>
<path class="st0" d="M874,308.5h-21.3l-3.7,8.7c-0.7,1.5-1.2,3.1-1.4,4.8c0,0.9,0.5,1.7,1.2,2.2c0.8,0.6,2.5,1,5.2,1.2v1.5h-17.3
	v-1.5c2.3-0.4,3.8-0.9,4.5-1.6c1.4-1.3,2.9-3.9,4.6-7.9l19.3-45.2h1.4l19.1,45.7c1.5,3.7,2.9,6.1,4.2,7.2c1.5,1.2,3.3,1.8,5.2,1.8
	v1.5h-21.7v-1.5c2.2-0.1,3.7-0.5,4.4-1.1c0.7-0.5,1.1-1.4,1.1-2.3c-0.2-2-0.8-3.9-1.6-5.6L874,308.5z M872.8,305.5l-9.3-22.2
	l-9.6,22.2H872.8z"/>
<path class="st0" d="M943.5,311.7l1.3,0.3l-4.7,14.9h-42.6v-1.5h2.1c2.3,0,4-0.8,5-2.3c0.6-0.9,0.9-2.9,0.9-6v-35.5
	c0-3.4-0.4-5.6-1.1-6.5c-1.2-1.3-3-1.9-4.7-1.8h-2.1v-1.5h24.9v1.5c-2.9,0-5,0.3-6.1,0.8c-1,0.4-1.9,1.2-2.4,2.1
	c-0.4,0.9-0.7,2.9-0.7,6.2v34.5c-0.1,1.6,0.1,3.1,0.7,4.6c0.3,0.6,0.9,1,1.5,1.3c0.7,0.3,2.8,0.4,6.3,0.4h4c4.2,0,7.2-0.3,8.9-0.9
	c1.8-0.7,3.4-1.8,4.7-3.3C941.1,316.9,942.5,314.4,943.5,311.7z"/>
</svg>
