<?xml version="1.0" encoding="utf-8"?>
<!-- Generator: Adobe Illustrator 25.4.1, SVG Export Plug-In . SVG Version: 6.00 Build 0)  -->
<svg version="1.1" id="Layer_1" xmlns="http://www.w3.org/2000/svg" xmlns:xlink="http://www.w3.org/1999/xlink" x="0px" y="0px"
	 viewBox="0 0 900 900" style="enable-background:new 0 0 900 900;" xml:space="preserve">
<style type="text/css">
	.st0{fill:#FFFFFF;}
</style>
<path class="st0" d="M472.2,253.4c-110.9,0-201.1,90.2-201.1,201.1s90.2,201.1,201.1,201.1s201.1-90.2,201.1-201.1
	C673.3,343.6,583.1,253.4,472.2,253.4z M605.6,410.6l-133.2-73.1l-105,58.2l-0.4,51.9l104.5,60.7l28.3-18.2l-116.7-67.8l89.1-51.7
	l132.9,77l-1.2,84.8l-134.1,75L337.9,531l0.4-31.5L472,577l103.4-60.2l0.4-52.9l-103.5-58.2L443,421.9L560.8,491l-88.6,53.3
	l-133.4-78.7l1.2-90.4l134.1-75l132,78.6L605.6,410.6z"/>
<path class="st0" d="M402.7,708l-8.8-2.6l-4.2,14.2l8.6,2.5c5.1,1.5,9,0.2,10.4-4.6C410.2,712.5,407.3,709.4,402.7,708z"/>
<path class="st0" d="M472.2,236.7c-120.1,0-217.8,97.7-217.8,217.8s97.7,217.8,217.8,217.8S690,574.6,690,454.5
	S592.3,236.7,472.2,236.7z M472.2,661.5c-114.2,0-207-92.9-207-207c0-114.2,92.9-207,207-207s207,92.9,207,207
	C679.2,568.7,586.4,661.5,472.2,661.5z"/>
<path class="st0" d="M581.7,184.5L581.7,184.5c-3.1,3.8-8.8,10.1-15.7,17.7l13.4,6C580.5,196.1,581,188.9,581.7,184.5z"/>
<path class="st0" d="M310.4,686.9c3.4-11,5.4-17.5,7-21.4h-0.1c-3.6,2.9-10.2,7.6-18.1,13.2L310.4,686.9z"/>
<polygon class="st0" points="179.8,464.5 178.7,476.5 188.5,483.5 199.4,478.4 200.6,466.4 190.7,459.4 "/>
<polygon class="st0" points="741.5,464.5 740.4,476.5 750.3,483.5 761.2,478.4 762.3,466.4 752.5,459.4 "/>
<path class="st0" d="M472.2,122c-183.6,0-332.5,148.9-332.5,332.5S288.6,787,472.2,787s332.5-148.9,332.5-332.5S655.8,122,472.2,122
	z M725.9,365.8c0.5-0.1,0.9-0.4,1.3-0.8l23.3-24.3l2.9,9.8c-6,5.9-14.5,14.2-18.5,17.8c5.1,0.6,17.2,3.2,25.2,4.9l2.7,9l-32.8-7.9
	c-0.4-0.1-0.6-0.2-1.5,0.1l-16.5,4.9l-2.6-8.6L725.9,365.8z M678,237l7.6,8.7c-4.2,12.2-12,35.8-14.4,41.1l0.1,0.1
	c3.8-4,10-9.4,16.1-14.7l12.1-10.6l5.5,6.3l-36.9,32.2l-7.2-8.2c3.8-10.8,12.8-36.9,15.3-42.6l-0.1-0.1c-3.3,3.4-10.4,9.7-17,15.4
	l-12.4,10.9l-5.6-6.4L678,237z M579.4,175.8l10.7,4.8l-3.8,53.1l-9.1-4l1-13.5l-17.3-7.7l-9.2,9.9l-8.5-3.8L579.4,175.8z M452,156
	l38.5,0.6l-0.1,7.4l-14.8-0.2l-0.6,40.3l-9-0.1l0.6-40.3l-14.8-0.2L452,156z M350.2,179.8c11.2-4.8,18.4-0.6,21.6,5.3l-8.3,3.6
	c-1.9-2.9-5-5.1-10.9-2.6c-4.4,1.9-6.1,4.8-4.6,8.3c1.5,3.4,4.1,3.9,12.1,2.5c13.9-2.4,18.6,1.3,21.1,7.2
	c3.3,7.7-0.1,15.6-11.4,20.5c-11.1,4.7-19,1.4-23.2-5.7l8.3-3.6c3.1,4.2,7.3,5.1,12.8,2.7c5.7-2.4,7-5.8,5.5-9.4
	c-1.6-3.8-4.6-4.8-13.3-3.3c-12.5,2.2-17.4-0.5-20-6.5C336.9,191.7,340,184.2,350.2,179.8z M244.4,260.6l20.3,18.5
	c7,6.4,12.4,4.5,16,0.7c4.1-4.5,4.5-9.6-2.2-15.7l-20.3-18.5l5.8-6.4l19.9,18.2c11.4,10.4,8.4,19.7,1.7,27.1
	c-6.8,7.4-15.9,11-26.9,0.9L238.6,267L244.4,260.6z M189.6,492.2c-11.4,0-20.7-9.3-20.7-20.7s9.3-20.7,20.7-20.7s20.7,9.3,20.7,20.7
	S201.1,492.2,189.6,492.2z M194.8,381c-7.4-2.4-10.9-9.6-7.6-19.9c3.7-11.4,11.5-14,18-12.6l-2.7,8.4c-3.3-0.4-7,0.4-9,6.4
	c-1.4,4.4-0.4,7.6,3.2,8.8c3.5,1.1,5.5-0.5,9.7-7.4c7.2-11.9,13-12.9,19-11c7.8,2.5,11.5,10.2,7.8,21.7c-3.7,11.3-11.2,15-19.2,13.5
	l2.7-8.4c5.1,0.5,8.5-2.2,10.3-7.8c1.9-5.8,0.2-8.9-3.4-10.1c-3.9-1.3-6.5,0.3-11,7.7C206.1,381.1,200.9,383,194.8,381z
	 M257.6,619.3l-5.1-7.7c2.9-3.4,4.5-8,0.7-13.9c-5.2-7.9-14.4-6.4-22.2-1.3c-7.3,4.8-13.2,12.7-7.7,21.2c3.9,6,9.1,5.7,12.8,4.8
	l5.1,7.8c-8.6,3.2-17.7,1.1-24.2-8.9c-8.4-12.8-3.1-25.1,8.6-32.7c11.3-7.4,25.5-7.7,34,5.4C266.5,604.4,263.8,613.7,257.6,619.3z
	 M311.5,711.9l-7.6-5.6l3.7-12.3l-14.4-10.6l-10.5,7.2l-7.1-5.2l41.4-28.5l9,6.6L311.5,711.9z M417.4,719.9
	c-2.8,9.5-11.3,12-20.2,9.4l-9.5-2.8l-5.2,17.6l-8.6-2.5l13.4-45.5l18.3,5.4C415.1,704.2,419.9,711.3,417.4,719.9z M472.2,678.2
	c-123.4,0-223.7-100.4-223.7-223.7c0-123.4,100.4-223.7,223.7-223.7c123.4,0,223.7,100.4,223.7,223.7
	C695.9,577.9,595.6,678.2,472.2,678.2z M474.5,759.5l-0.8-47.5l8.9-0.1l0.8,47.5L474.5,759.5z M572.7,740.1l-8.5,2.7L552,704.6
	l-14,4.5l-2.3-7l36.5-11.7l2.3,7l-14,4.5L572.7,740.1z M667.6,685.7l-10.9-6.8l-14.1,11l4.2,12.1l-6.9,5.4L623.5,660l8.8-6.9
	L675,680L667.6,685.7z M722.2,628.1L681,604.6l4.4-7.7l34.8,19.8l11.9-20.9l5.9,4.6L722.2,628.1z M751.4,492.2
	c-11.4,0-20.7-9.3-20.7-20.7s9.3-20.7,20.7-20.7s20.7,9.3,20.7,20.7S762.8,492.2,751.4,492.2z"/>
<path class="st0" d="M631.7,661.9c1.8,4.2,4.6,11.8,7.9,21l11-8.6C640.9,668.1,635.1,664.4,631.7,661.9L631.7,661.9z"/>
</svg>
