<?xml version="1.0" encoding="utf-8"?>
<!-- Generator: Adobe Illustrator 25.4.1, SVG Export Plug-In . SVG Version: 6.00 Build 0)  -->
<svg version="1.1" id="Layer_1" xmlns="http://www.w3.org/2000/svg" xmlns:xlink="http://www.w3.org/1999/xlink" x="0px" y="0px"
	 viewBox="0 0 162 55" style="enable-background:new 0 0 162 55;" xml:space="preserve">
<style type="text/css">
	.st0{fill:#FFFFFF;}
</style>
<g id="Gruppe_6" transform="translate(-229 -239)">
	<path id="Pfad_17" class="st0" d="M376.5,281h-80.1c-0.3,0-0.5-0.2-0.5-0.5s0.2-0.5,0.5-0.5h80.1c0.3,0,0.5,0.2,0.5,0.5
		S376.7,281,376.5,281"/>
	<path id="Pfad_18" class="st0" d="M310.3,259.6h-1c-0.3-0.9-0.7-1.7-1.3-2.5c-0.6-0.9-1.1-1.4-1.6-1.4c-0.3,0-0.6-0.1-1-0.1
		s-0.7,0-1,0h-0.6v14.2c0,0.3,0.1,0.6,0.2,0.8c0.1,0.3,0.4,0.5,0.7,0.6c0.3,0.1,0.6,0.2,0.9,0.2c0.4,0.1,0.8,0.1,1.1,0.2v1h-10.1v-1
		c0.2,0,0.6-0.1,1-0.1c0.3,0,0.6-0.1,0.9-0.2s0.5-0.3,0.7-0.5c0.1-0.3,0.2-0.5,0.2-0.8v-14.3h-0.6c-0.3,0-0.6,0-1,0s-0.7,0.1-1,0.1
		c-0.5,0.1-1,0.5-1.6,1.4c-0.5,0.8-1,1.6-1.3,2.5h-1v-5.2h17.6v5.1L310.3,259.6L310.3,259.6z"/>
	<path id="Pfad_19" class="st0" d="M334.8,272.5h-7c-1.2-1.8-2.2-3.3-3-4.4s-1.8-2.3-3-3.8h-0.7v5.5c0,0.3,0.1,0.5,0.2,0.8
		c0.2,0.2,0.4,0.4,0.7,0.5c0.2,0.1,0.5,0.2,0.8,0.2c0.3,0.1,0.6,0.1,0.9,0.1v1H314v-1c0.2,0,0.6-0.1,1-0.1c0.3,0,0.6-0.1,0.9-0.2
		s0.5-0.3,0.7-0.5c0.1-0.2,0.2-0.5,0.2-0.8V257c0-0.3,0-0.5-0.1-0.8c-0.2-0.3-0.4-0.4-0.7-0.5c-0.3-0.1-0.6-0.2-1-0.3
		s-0.7-0.1-0.9-0.2v-1h10.2c1.8-0.1,3.6,0.3,5.2,1.1c1.1,0.7,1.8,1.9,1.8,3.2c0.1,1.1-0.3,2.2-1.1,3.1c-0.9,0.9-2.1,1.5-3.3,1.8
		c0.6,0.7,1.3,1.6,2,2.6c0.8,1,1.6,2,2.4,3c0.3,0.3,0.6,0.7,1.1,1.2c0.3,0.4,0.7,0.7,1.2,0.9c0.2,0.1,0.5,0.1,0.7,0.2
		c0.3,0,0.5,0.1,0.6,0.1v1.1L334.8,272.5L334.8,272.5z M326.1,259c0.1-1-0.3-2-1-2.6c-0.8-0.6-1.9-0.9-2.9-0.8h-1v7.6h1
		c1.1,0.1,2.1-0.3,2.9-1C325.8,261.3,326.2,260.2,326.1,259"/>
	<path id="Pfad_20" class="st0" d="M347.7,264.1v1c0.3,0,0.6,0.1,1,0.2c0.3,0.1,0.7,0.2,1,0.3c0.3,0.1,0.5,0.3,0.7,0.5
		c0.1,0.2,0.2,0.5,0.2,0.8v3.7c-0.4,0.3-0.9,0.6-1.4,0.8c-0.6,0.2-1.3,0.4-2,0.3c-1.6,0-3-0.9-3.7-2.3c-1-1.9-1.4-4.1-1.3-6.3
		c-0.1-2.1,0.4-4.1,1.3-5.9c0.8-1.4,2.2-2.2,3.8-2.1c1.3,0,2.5,0.5,3.4,1.4c1.1,1.3,1.9,2.8,2.3,4.4h1.1l-0.1-6.6h-1.1l-0.8,0.7
		c-0.7-0.3-1.4-0.6-2.2-0.8c-0.9-0.3-1.9-0.4-2.9-0.4c-1.4,0-2.8,0.2-4.1,0.7c-1.2,0.4-2.3,1.1-3.2,2c-0.9,0.9-1.6,1.9-2,3.1
		c-0.5,1.3-0.7,2.6-0.7,3.9c0,1.4,0.2,2.8,0.7,4c0.5,1.1,1.2,2.1,2,2.9c0.9,0.8,1.9,1.4,3,1.8c1.2,0.4,2.4,0.6,3.7,0.6
		c1.6,0,3.1-0.2,4.6-0.7c1.3-0.3,2.6-0.8,3.8-1.4c0-0.4,0-0.7,0-1s0-0.6,0-1V264h-7.1L347.7,264.1L347.7,264.1z"/>
	<path id="Pfad_21" class="st0" d="M368.5,273c-1.3,0-2.5-0.2-3.7-0.6c-1.1-0.4-2.2-1-3-1.9c-0.9-0.8-1.5-1.9-2-3
		c-0.5-1.2-0.7-2.6-0.7-3.9s0.2-2.7,0.7-3.9c0.5-1.2,1.2-2.2,2.1-3.1s2-1.6,3.1-2c1.2-0.5,2.6-0.7,3.9-0.7c0.9,0,1.9,0.1,2.7,0.4
		c0.7,0.2,1.4,0.5,2.1,0.8l0.8-0.7h1.1l0.1,6.6h-1.1c-0.4-1.6-1.2-3.2-2.3-4.5c-0.8-0.9-2-1.4-3.3-1.4c-1.5,0-2.9,0.8-3.6,2.1
		c-0.9,1.8-1.4,3.9-1.2,5.9c0,1.2,0.1,2.5,0.4,3.7c0.2,0.9,0.6,1.7,1.1,2.5c0.5,0.6,1.1,1.1,1.7,1.4c0.7,0.3,1.5,0.5,2.2,0.5
		c1.1,0,2.2-0.3,3.2-1c1.1-0.8,1.9-1.8,2.5-2.9l1.1,0.7c-0.3,0.7-0.8,1.4-1.3,2s-1,1.1-1.6,1.5c-0.7,0.5-1.4,0.8-2.2,1.1
		C370.4,272.9,369.5,273,368.5,273"/>
	<path id="Pfad_22" class="st0" d="M254.4,272.9c-5.2,0-9.4-4.2-9.4-9.4c0-5.2,4.2-9.5,9.4-9.5c0.3,0,0.6,0,0.9,0
		c0.6-0.6,1.3-1.2,2-1.7c-6.1-1.6-12.4,2.1-14,8.2c-1.6,6.1,2.1,12.4,8.2,14c1.9,0.5,3.9,0.5,5.8,0c-0.7-0.5-1.4-1.1-2-1.7
		C255,272.9,254.7,272.9,254.4,272.9"/>
	<path id="Pfad_23" class="st0" d="M261.3,256.9c3.5,3.6,3.5,9.4,0,13c0.6,0.3,1.3,0.6,2,0.8c3.5-4.2,3.5-10.3,0-14.5
		C262.6,256.3,261.9,256.6,261.3,256.9"/>
	<path id="Pfad_24" class="st0" d="M264.9,252c-1.8,0-3.6,0.4-5.2,1.3c-5.6,2.9-7.8,9.8-5,15.4c0.7,1.4,1.7,2.7,3,3.7
		c0.6,0.5,1.3,0.9,2,1.3c5.6,2.9,12.5,0.7,15.4-4.9s0.7-12.5-4.9-15.4C268.5,252.4,266.7,252,264.9,252 M264.9,272.9
		c-5.2,0-9.5-4.2-9.5-9.4c0-4,2.5-7.6,6.2-8.9c4.9-1.8,10.3,0.8,12.1,5.7c1.8,4.9-0.8,10.3-5.7,12.1
		C267.1,272.7,266,272.9,264.9,272.9"/>
</g>
</svg>
