<?xml version="1.0" encoding="utf-8"?>
<!-- Generator: Adobe Illustrator 25.4.1, SVG Export Plug-In . SVG Version: 6.00 Build 0)  -->
<svg version="1.1" id="Layer_1" xmlns="http://www.w3.org/2000/svg" xmlns:xlink="http://www.w3.org/1999/xlink" x="0px" y="0px"
	 viewBox="0 0 317 27" style="enable-background:new 0 0 317 27;" xml:space="preserve">
<style type="text/css">
	.st0{fill:#FFFFFF;}
</style>
<path class="st0" d="M21.8,16.5l2.9-16h6.1L25.4,26H19l-3.4-14.6L12.2,26H5.8L0.4,0.4h6.1l2.9,16l3.5-16h5.2L21.8,16.5z M48,21.2
	h-8.5L38.1,26h-6.6l9.4-25.6h5.8L56.1,26h-6.6L48,21.2z M41,16.5h5.5l-2.8-8.9L41,16.5z M68.5,17h-3.3v9H59V0.4h10.1
	c3,0,5.4,0.7,7.1,2c1.7,1.3,2.6,3.3,2.6,5.7c0,1.8-0.4,3.3-1.1,4.4c-0.7,1.2-1.8,2.1-3.4,2.8l5.3,10.3V26H73L68.5,17z M65.2,12.2
	h3.9c1.2,0,2.1-0.3,2.6-0.9c0.6-0.6,0.9-1.5,0.9-2.6c0-1.1-0.3-2-0.9-2.6c-0.6-0.6-1.5-0.9-2.6-0.9h-3.9V12.2z M83.5,26V0.4h9.2
	c3.3,0,5.8,0.6,7.5,1.8c1.7,1.2,2.6,3,2.6,5.3c0,1.3-0.3,2.5-0.9,3.4c-0.6,0.9-1.5,1.6-2.7,2.1c1.3,0.4,2.4,1,3.1,2
	c0.7,1,1.1,2.1,1.1,3.5c0,2.5-0.8,4.4-2.4,5.7c-1.6,1.3-3.9,1.9-7,1.9H83.5z M89.6,15.1v6.1h4c1.1,0,2-0.3,2.6-0.8
	c0.6-0.5,0.9-1.2,0.9-2.2c0-2.1-1.1-3.2-3.2-3.2H89.6z M89.6,11.1h3.2c1.3,0,2.3-0.3,2.9-0.7c0.6-0.5,0.9-1.2,0.9-2.1
	c0-1.1-0.3-1.9-0.9-2.3c-0.6-0.5-1.6-0.7-3-0.7h-3V11.1z M127.8,0.4v16.8c0,1.9-0.4,3.5-1.2,4.9c-0.8,1.4-2,2.4-3.5,3.2
	c-1.5,0.7-3.3,1.1-5.4,1.1c-3.1,0-5.6-0.8-7.4-2.4c-1.8-1.6-2.7-3.8-2.7-6.6V0.4h6.2v17c0.1,2.8,1.4,4.2,3.9,4.2
	c1.3,0,2.2-0.4,2.9-1.1c0.7-0.7,1-1.8,1-3.4V0.4H127.8z M142.2,17h-3.3v9h-6.2V0.4h10.1c3,0,5.4,0.7,7.1,2c1.7,1.3,2.6,3.3,2.6,5.7
	c0,1.8-0.4,3.3-1.1,4.4c-0.7,1.2-1.8,2.1-3.4,2.8l5.3,10.3V26h-6.6L142.2,17z M138.8,12.2h3.9c1.2,0,2-0.3,2.6-0.9
	c0.6-0.6,0.9-1.5,0.9-2.6c0-1.1-0.3-2-0.9-2.6c-0.6-0.6-1.5-0.9-2.6-0.9h-3.9V12.2z M178.1,22.8c-0.9,1.1-2.3,1.9-4.2,2.5
	c-1.8,0.6-3.8,1-6,1c-3.4,0-6-1-8-3.1s-3.1-4.9-3.2-8.6l0-2.2c0-2.5,0.4-4.7,1.3-6.6c0.9-1.9,2.2-3.3,3.8-4.3c1.7-1,3.6-1.5,5.8-1.5
	c3.2,0,5.7,0.7,7.4,2.2c1.8,1.5,2.8,3.6,3.1,6.5h-5.9c-0.2-1.4-0.7-2.4-1.4-3.1c-0.7-0.6-1.7-0.9-3-0.9c-1.5,0-2.7,0.7-3.6,2
	c-0.8,1.3-1.3,3.2-1.3,5.6v1.5c0,2.6,0.4,4.5,1.3,5.8c0.9,1.3,2.3,1.9,4.1,1.9c1.6,0,2.8-0.4,3.6-1.1v-4h-4.3v-4.2h10.5V22.8z"/>
<path class="st0" d="M195.9,19.2c0-0.9-0.3-1.6-1-2.1c-0.6-0.5-1.8-1-3.4-1.6c-1.6-0.5-2.9-1.1-3.9-1.6c-3.3-1.6-5-3.9-5-6.7
	c0-1.4,0.4-2.7,1.2-3.7c0.8-1.1,2-1.9,3.5-2.5c1.5-0.6,3.2-0.9,5.1-0.9c1.8,0,3.5,0.3,4.9,1c1.5,0.7,2.6,1.6,3.4,2.8
	c0.8,1.2,1.2,2.6,1.2,4.1h-6.2c0-1-0.3-1.9-1-2.4c-0.6-0.6-1.5-0.9-2.6-0.9c-1.1,0-2,0.2-2.6,0.7c-0.6,0.5-1,1.1-1,1.8
	c0,0.7,0.4,1.3,1.1,1.8c0.7,0.5,1.9,1.1,3.7,1.7c1.8,0.6,3.2,1.2,4.4,1.8c2.8,1.6,4.1,3.8,4.1,6.6c0,2.2-0.8,4-2.5,5.3
	c-1.7,1.3-4,1.9-6.9,1.9c-2.1,0-4-0.4-5.6-1.1c-1.7-0.8-2.9-1.8-3.8-3.1c-0.8-1.3-1.3-2.8-1.3-4.5h6.2c0,1.4,0.4,2.4,1.1,3
	c0.7,0.6,1.9,1,3.5,1c1,0,1.8-0.2,2.4-0.7C195.6,20.6,195.9,20,195.9,19.2z M222.1,15.2h-9.7v6.1h11.5V26h-17.6V0.4h17.7v4.8h-11.5
	v5.4h9.7V15.2z M236.9,17h-3.3v9h-6.2V0.4h10.1c3,0,5.4,0.7,7.1,2c1.7,1.3,2.6,3.3,2.6,5.7c0,1.8-0.4,3.3-1.1,4.4
	c-0.7,1.2-1.8,2.1-3.4,2.8l5.3,10.3V26h-6.6L236.9,17z M233.5,12.2h3.9c1.2,0,2.1-0.3,2.6-0.9c0.6-0.6,0.9-1.5,0.9-2.6
	c0-1.1-0.3-2-0.9-2.6c-0.6-0.6-1.5-0.9-2.6-0.9h-3.9V12.2z M261.4,17H258v9h-6.2V0.4h10.1c3,0,5.4,0.7,7.1,2
	c1.7,1.3,2.6,3.3,2.6,5.7c0,1.8-0.4,3.3-1.1,4.4c-0.7,1.2-1.8,2.1-3.4,2.8l5.3,10.3V26h-6.6L261.4,17z M258,12.2h3.9
	c1.2,0,2.1-0.3,2.6-0.9c0.6-0.6,0.9-1.5,0.9-2.6c0-1.1-0.3-2-0.9-2.6c-0.6-0.6-1.5-0.9-2.6-0.9H258V12.2z M292.2,15.2h-9.7v6.1H294
	V26h-17.6V0.4H294v4.8h-11.5v5.4h9.7V15.2z M310.7,19.2c0-0.9-0.3-1.6-1-2.1c-0.6-0.5-1.8-1-3.4-1.6c-1.6-0.5-2.9-1.1-3.9-1.6
	c-3.3-1.6-5-3.9-5-6.7c0-1.4,0.4-2.7,1.2-3.7c0.8-1.1,2-1.9,3.5-2.5c1.5-0.6,3.2-0.9,5.1-0.9c1.8,0,3.5,0.3,4.9,1
	c1.5,0.7,2.6,1.6,3.4,2.8c0.8,1.2,1.2,2.6,1.2,4.1h-6.2c0-1-0.3-1.9-1-2.4c-0.6-0.6-1.5-0.9-2.6-0.9c-1.1,0-2,0.2-2.6,0.7
	c-0.6,0.5-1,1.1-1,1.8c0,0.7,0.4,1.3,1.1,1.8c0.7,0.5,1.9,1.1,3.7,1.7c1.8,0.6,3.2,1.2,4.4,1.8c2.8,1.6,4.1,3.8,4.1,6.6
	c0,2.2-0.8,4-2.5,5.3c-1.7,1.3-4,1.9-6.9,1.9c-2.1,0-4-0.4-5.6-1.1c-1.7-0.8-2.9-1.8-3.8-3.1c-0.8-1.3-1.3-2.8-1.3-4.5h6.2
	c0,1.4,0.4,2.4,1.1,3c0.7,0.6,1.9,1,3.5,1c1,0,1.8-0.2,2.4-0.7C310.4,20.6,310.7,20,310.7,19.2z"/>
</svg>
