<?xml version="1.0" encoding="utf-8"?>
<!-- Generator: Adobe Illustrator 25.4.1, SVG Export Plug-In . SVG Version: 6.00 Build 0)  -->
<svg version="1.1" id="Layer_1" xmlns="http://www.w3.org/2000/svg" xmlns:xlink="http://www.w3.org/1999/xlink" x="0px" y="0px"
	 viewBox="0 0 377.5 200.4" style="enable-background:new 0 0 377.5 200.4;" xml:space="preserve">
<style type="text/css">
	.st0{fill:#FFFFFF;}
</style>
<g>
	<g>
		<g>
			<path class="st0" d="M62,152.5c1.8-3.1,4.3-5.6,7.4-7.4c3.1-1.8,6.6-2.7,10.4-2.7c3.8,0,7.3,0.9,10.4,2.7s5.6,4.3,7.4,7.4
				c1.8,3.1,2.7,6.6,2.7,10.4c0,3.8-0.9,7.2-2.7,10.4c-1.8,3.1-4.3,5.6-7.4,7.4c-3.1,1.8-6.6,2.7-10.4,2.7c-3.8,0-7.3-0.9-10.4-2.7
				c-3.1-1.8-5.6-4.3-7.4-7.4c-1.8-3.1-2.7-6.6-2.7-10.4C59.3,159,60.2,155.6,62,152.5z M67.5,170c1.3,2.2,3,3.9,5.2,5.2
				c2.2,1.2,4.6,1.9,7.2,1.9c2.6,0,5.1-0.6,7.2-1.9c2.2-1.3,3.9-3,5.2-5.2c1.3-2.2,1.9-4.6,1.9-7.2c0-2.6-0.6-5-1.9-7.2
				c-1.3-2.2-3-3.9-5.2-5.2c-2.2-1.3-4.6-1.9-7.2-1.9c-2.6,0-5,0.6-7.2,1.9c-2.2,1.3-3.9,3-5.2,5.2c-1.3,2.2-1.9,4.6-1.9,7.2
				C65.6,165.4,66.2,167.9,67.5,170z"/>
		</g>
		<g>
			<path class="st0" d="M108.2,152.5c1.8-3.1,4.3-5.6,7.4-7.4c3.2-1.8,6.6-2.7,10.4-2.7c3.8,0,7.3,0.9,10.4,2.7
				c3.1,1.8,5.6,4.3,7.4,7.4c1.8,3.1,2.7,6.6,2.7,10.4c0,3.8-0.9,7.2-2.7,10.4c-1.8,3.1-4.3,5.6-7.4,7.4c-3.1,1.8-6.6,2.7-10.4,2.7
				c-3.8,0-7.3-0.9-10.4-2.7c-3.1-1.8-5.6-4.3-7.4-7.4c-1.8-3.1-2.7-6.6-2.7-10.4C105.5,159,106.4,155.6,108.2,152.5z M113.7,170
				c1.3,2.2,3,3.9,5.2,5.2c2.2,1.2,4.6,1.9,7.2,1.9c2.6,0,5.1-0.6,7.2-1.9c2.2-1.3,3.9-3,5.2-5.2c1.3-2.2,1.9-4.6,1.9-7.2
				c0-2.6-0.6-5-1.9-7.2c-1.3-2.2-3-3.9-5.2-5.2c-2.2-1.3-4.6-1.9-7.2-1.9c-2.6,0-5,0.6-7.2,1.9c-2.2,1.3-3.9,3-5.2,5.2
				c-1.3,2.2-1.9,4.6-1.9,7.2C111.8,165.4,112.4,167.9,113.7,170z"/>
		</g>
		<g>
			<path class="st0" d="M154.5,142.9H170c3.7,0,7.1,0.9,10.1,2.6c3.1,1.8,5.5,4.2,7.3,7.2c1.8,3.1,2.7,6.4,2.7,10.1s-0.9,7-2.7,10.1
				c-1.8,3.1-4.2,5.5-7.3,7.2c-3.1,1.8-6.4,2.6-10.1,2.6h-15.5V142.9z M176.9,175.1c2.1-1.2,3.8-2.9,5-5.1c1.2-2.2,1.8-4.5,1.8-7.1
				c0-2.6-0.6-5-1.8-7.1c-1.2-2.2-2.9-3.9-5-5.1c-2.1-1.2-4.4-1.9-6.9-1.9h-9.2v28.2h9.2C172.5,176.9,174.8,176.3,176.9,175.1z"/>
		</g>
		<g>
			<path class="st0" d="M200.2,181.6c-2.3-1.1-4.2-2.6-5.9-4.3l1.4-2.3c0.3-0.4,0.6-0.7,1-0.9c0.4-0.2,0.9-0.3,1.4-0.3
				c0.7,0,1.4,0.2,2,0.6c1.1,0.8,2.4,1.5,3.7,2s2.5,0.8,3.5,0.8c2.2,0,3.9-0.5,5.3-1.5c1.3-1,2-2.5,2-4.4c0-1.3-0.6-2.5-1.7-3.5
				c-1.2-1-3-2-5.5-3c-3.8-1.4-6.7-3-8.5-4.9c-1.8-1.8-2.7-4-2.7-6.5c0-2.1,0.5-4,1.5-5.6c1-1.6,2.4-2.9,4.3-3.8
				c1.8-0.9,3.9-1.4,6.3-1.4c1.9,0,3.8,0.4,5.8,1.1c2,0.8,3.6,1.8,4.8,3.2l-1.1,2c-0.3,0.6-0.8,1.1-1.3,1.4
				c-0.5,0.3-1.1,0.5-1.6,0.5c-0.5,0-0.9-0.1-1.4-0.3c-0.8-0.5-1.7-0.9-2.6-1.2c-0.9-0.3-1.8-0.4-2.5-0.4c-1.7,0-3.1,0.4-4.2,1.3
				c-1.1,0.8-1.6,2-1.6,3.4c0,1.1,0.5,2.1,1.6,3c1.1,0.9,2.8,1.7,5.1,2.5c4,1.3,6.9,2.9,8.9,5c2,2.1,2.9,4.6,2.9,7.5
				c0,2.4-0.6,4.5-1.7,6.3c-1.2,1.8-2.8,3.3-4.9,4.3c-2.1,1-4.5,1.5-7.1,1.5C204.8,183.3,202.5,182.7,200.2,181.6z"/>
		</g>
		<g>
			<path class="st0" d="M224.4,142.9h30.5v6.2h-12.1v33.7h-6.3V149h-12.1L224.4,142.9L224.4,142.9z"/>
		</g>
		<g>
			<path class="st0" d="M258.9,152.5c1.8-3.1,4.3-5.6,7.4-7.4c3.1-1.8,6.6-2.7,10.4-2.7c3.8,0,7.3,0.9,10.4,2.7
				c3.1,1.8,5.6,4.3,7.5,7.4c1.8,3.1,2.7,6.6,2.7,10.4c0,3.8-0.9,7.2-2.7,10.4c-1.8,3.1-4.3,5.6-7.5,7.4c-3.1,1.8-6.6,2.7-10.4,2.7
				c-3.8,0-7.3-0.9-10.4-2.7c-3.1-1.8-5.6-4.3-7.4-7.4c-1.8-3.1-2.7-6.6-2.7-10.4C256.2,159,257.1,155.6,258.9,152.5z M264.4,170
				c1.3,2.2,3,3.9,5.2,5.2c2.2,1.2,4.6,1.9,7.2,1.9c2.6,0,5-0.6,7.2-1.9c2.2-1.3,3.9-3,5.2-5.2c1.3-2.2,1.9-4.6,1.9-7.2
				c0-2.6-0.6-5-1.9-7.2c-1.3-2.2-3-3.9-5.2-5.2c-2.2-1.3-4.6-1.9-7.2-1.9c-2.6,0-5.1,0.6-7.2,1.9c-2.2,1.3-3.9,3-5.2,5.2
				c-1.3,2.2-1.9,4.6-1.9,7.2C262.5,165.4,263.1,167.9,264.4,170z"/>
		</g>
		<g>
			<path class="st0" d="M312.6,180.6c-3.1-1.8-5.6-4.2-7.4-7.4c-1.8-3.1-2.7-6.6-2.7-10.4c0-3.8,0.9-7.2,2.7-10.4
				c1.8-3.1,4.3-5.6,7.4-7.4c3.1-1.8,6.6-2.7,10.4-2.7c2.7,0,5.4,0.6,8,1.7c2.6,1.2,4.8,2.7,6.5,4.6l-1.5,1.6
				c-0.4,0.5-0.9,0.8-1.5,1.1c-0.6,0.2-1.1,0.4-1.7,0.4c-0.7,0-1.3-0.2-1.8-0.5c-1.2-0.8-2.4-1.5-3.8-1.9c-1.4-0.5-2.8-0.7-4.2-0.7
				c-2.6,0-5.1,0.6-7.2,1.9c-2.2,1.2-3.9,3-5.1,5.1c-1.2,2.2-1.9,4.6-1.9,7.3s0.6,5.1,1.9,7.2c1.3,2.2,3,3.9,5.1,5.1
				c2.2,1.2,4.6,1.9,7.2,1.9c1.4,0,2.9-0.2,4.3-0.7s2.7-1.1,3.8-2c0.6-0.4,1.3-0.6,2-0.6c0.6,0,1.1,0.1,1.7,0.4c0.5,0.2,1,0.6,1.5,1
				l1.5,1.6c-1.7,2-3.9,3.5-6.6,4.7c-2.6,1.2-5.4,1.8-8.1,1.8C319.2,183.3,315.7,182.4,312.6,180.6z"/>
		</g>
		<g>
			<path class="st0" d="M357.8,144.5c0.8-1.1,1.8-1.6,3-1.6h6l-13.9,18 M352.9,163.8l14.8,19H362c-0.7,0-1.3-0.2-1.9-0.5
				c-0.6-0.3-1.1-0.8-1.5-1.3"/>
		</g>
		<g>
			<path class="st0" d="M370.5,142.9h6l-11.2,14.6l-1.2,1.6c-2.4,3.5-5.8,3.2-6.2,3.2v0.1c0.3,0.1,3.2-0.4,6.2,3.2l1.3,1.6
				l12.2,15.6h-5.7c-0.7,0-1.3-0.2-1.9-0.5c-0.6-0.3-1.1-0.8-1.5-1.3l-12.9-16.8c-0.3-0.4-0.7-0.8-1.1-1.1c-0.5-0.3-0.9-0.5-1.3-0.7
				c0.4-0.1,0.8-0.3,1.3-0.6c0.5-0.3,0.9-0.7,1.2-1.1l12.1-16.1C368.3,143.4,369.3,142.9,370.5,142.9z"/>
		</g>
		<g>
			<polygon class="st0" points="34.7,159.2 34,157.4 34,157.5 			"/>
		</g>
		<g>
			<rect x="344.3" y="142.9" class="st0" width="6.3" height="39.9"/>
		</g>
		<g>
			<polygon class="st0" points="52.1,142.9 38.7,176.1 33.5,163 41.7,142.9 34.4,142.9 30,154.1 25.5,142.9 18.2,142.9 26.4,163 
				21.3,176.1 8,142.9 0,142.9 16.2,182.7 25.5,182.7 30,171.8 34.4,182.7 43.8,182.7 60,142.9 			"/>
		</g>
	</g>
	<g>
		<g>
			<path class="st0" d="M238.4,42.8l-36.8,28.7l-4.2,3.4c-0.2,0.2-0.4,0.3-0.5,0.5c-4.6,3.4-6.5,7.5-7.4,10.7
				c-0.8,2.8-0.6,4.8-0.7,5.3h-0.1c-0.1-0.5,0.1-2.4-0.7-5.3c-0.8-3.2-2.8-7.3-7.4-10.7c-0.2-0.2-0.3-0.3-0.5-0.5l-4.2-3.4L139,42.8
				l-4.8-3.8v15.3c0,1,0.2,1.9,0.4,2.8c0.2,0.8,0.5,1.6,0.9,2.3c0.8,1.5,1.8,2.7,3,3.7c0.7,0.9,1.5,1.7,2.5,2.4l43,32.4
				c0.8,0.6,1.5,1.3,2.2,2.1c0.2,0.3,0.4,0.6,0.6,0.9c0.7,1.1,1.3,2.2,1.7,3.2c0,0.1,0.1,0.2,0.1,0.3c0,0,0,0,0,0c0,0,0,0,0,0
				c0-0.1,0.1-0.2,0.1-0.3c0.4-1,0.9-2.1,1.7-3.2c0.2-0.3,0.4-0.6,0.6-0.9c0.6-0.8,1.4-1.5,2.2-2.1l43-32.4c1-0.7,1.8-1.6,2.5-2.4
				c1.2-1,2.2-2.2,3-3.7c0.4-0.8,0.7-1.5,0.9-2.3c0.3-0.9,0.4-1.9,0.4-2.8V39L238.4,42.8z"/>
		</g>
		<g>
			<g>
				<path class="st0" d="M213.5,17.2c0,0-17.2,5.1-24.8,19.8c1.7,3.2,2.9,6.9,3.4,11.1c0.8,6.9-2.3,17.4-2.9,19.5
					c3.6-1.7,18.7-9.1,23.4-18.6C217.9,38,213.5,17.2,213.5,17.2z"/>
			</g>
			<g>
				<path class="st0" d="M188.4,67.9c0,0,0.1-0.1,0.3-0.2c-0.1-0.1-0.3-0.1-0.5-0.2C188.3,67.8,188.4,67.9,188.4,67.9z"/>
			</g>
			<g>
				<path class="st0" d="M192.1,48c-0.5-4.2-1.7-7.9-3.4-11.1c-7.6-14.7-24.8-19.8-24.8-19.8s-4.4,20.8,1,31.7
					c4.7,9.5,19.7,17,23.4,18.6c0.2,0.1,0.3,0.2,0.5,0.2c0.2,0.1,0.3,0.2,0.3,0.2s0-0.1,0.1-0.4C189.8,65.5,192.9,54.9,192.1,48z"/>
			</g>
		</g>
		<g>
			<polygon class="st0" points="187.6,108 188.4,108.3 188.4,108.3 			"/>
		</g>
		<g>
			<path class="st0" d="M188.5,108.3L188.5,108.3L188.5,108.3l-0.9-0.3l-49.5-15.1c10.4,16.5,28.8,27.4,49.8,27.4
				c20.8,0,39-10.8,49.5-27L188.5,108.3L188.5,108.3z"/>
		</g>
		<g>
			<path class="st0" d="M242.1,72.8c0.3-2.1,0.4-4.3,0.4-6.4c0-0.2,0-0.4,0-0.7L192,105l44.2-16C241.6,84.1,241.5,77.4,242.1,72.8z"
				/>
		</g>
		<g>
			<polygon class="st0" points="188.4,108.3 188.4,108.3 188.4,108.3 			"/>
		</g>
		<g>
			<polygon class="st0" points="188.4,108.3 188.4,108.3 188.4,108.3 			"/>
		</g>
		<g>
			<path class="st0" d="M134.5,65.8c0,0.2,0,0.4,0,0.7c0,2.2,0.1,4.3,0.4,6.4c0.5,4.6,0.4,11.2,5.8,16.2l44.2,16L134.5,65.8z"/>
		</g>
		<g>
			<polygon class="st0" points="188.5,108.3 188.5,108.3 188.4,108.3 			"/>
		</g>
		<g>
			<polygon class="st0" points="188.4,108.3 188.5,108.3 188.4,108.3 188.4,108.3 			"/>
		</g>
		<g>
			<polygon class="st0" points="188.5,108.3 188.4,108.3 188.4,108.3 			"/>
		</g>
	</g>
</g>
</svg>
